<?xml version="1.0" standalone="no"?>
<!DOCTYPE svg PUBLIC "-//W3C//DTD SVG 1.1//EN" "http://www.w3.org/Graphics/SVG/1.1/DTD/svg11.dtd" >
<svg>
<metadata>
Created by FontForge 20090914 at Sat Feb 27 11:57:46 2016
 By www-data
a_SimplerCollege *Arsenal Company &#194;&#169; 1997*  FAX: (095)924-3775; e-Mail: arsenal@itco.msk.su; Phone: (095)924-5811 (Design and Featuring W.Chufarofsky)
</metadata>
<defs>
<font id="a_SimplerClg" horiz-adv-x="624" >
  <font-face 
    font-family="a_SimplerClg"
    font-weight="400"
    font-stretch="normal"
    units-per-em="1000"
    panose-1="4 2 9 4 2 11 3 6 2 4"
    ascent="800"
    descent="-200"
    x-height="708"
    cap-height="708"
    bbox="-37 -236 1188 867"
    underline-thickness="60"
    underline-position="-150"
    unicode-range="U+0020-U+2219"
  />
<missing-glyph horiz-adv-x="655" 
d="M40 0v760h575v-760h-575zM80 40h495v680h-495v-680z" />
    <glyph glyph-name=".notdef" horiz-adv-x="655" 
d="M40 0v760h575v-760h-575zM80 40h495v680h-495v-680z" />
    <glyph glyph-name="space" unicode=" " horiz-adv-x="360" 
 />
    <glyph glyph-name="exclam" unicode="!" horiz-adv-x="326" 
d="M65 51h196v163h-196v-163zM65 508l55 -216h84l57 216v149h-196v-149zM313 0h-300v265h62l-62 236v207h300v-207l-64 -236h64v-265z" />
    <glyph glyph-name="quotedbl" unicode="&#x22;" horiz-adv-x="352" 
d="M161 472v188h-87v-104l31 -84h56zM247 472l31 84v104h-87v-188h56zM319 549l-43 -119h-200l-43 119v152h286v-152z" />
    <glyph glyph-name="numbersign" unicode="#" horiz-adv-x="807" 
d="M392 465l44 184h-101l-45 -184h-145l-12 -60h141l-26 -110h-133l-15 -61h133l-43 -183h101l45 183h83l-45 -183h101l44 183h141l14 61h-139l26 110h132l14 60h-132l44 184h-100l-45 -184h-82zM378 405h81l-26 -110h-82zM684 700l-44 -184h132l-71 -333h-142l-44 -183
h-390l43 183h-134l70 333h146l45 184h389z" />
    <glyph glyph-name="dollar" unicode="$" horiz-adv-x="667" 
d="M290 -86h130v124h46l121 128v266h-265v81h265v154h-167v99h-130v-99h-67l-143 -134v-227h274v-99h-274v-169h210v-124zM474 -139h-238v124h-209v571l175 164h34v99h238v-99h167v-576l-152 -159h-15v-124z" />
    <glyph glyph-name="percent" unicode="%" horiz-adv-x="843" 
d="M256 458h-41v106h41v-106zM356 657h-241v-291h241v291zM629 144h-42v107h42v-107zM487 344v-293h241v293h-241zM510 657l-254 -606h76l255 606h-77zM179 0l132 315h-247v393h343v-163l69 163h188l-132 -313h247v-395h-343v165l-70 -165h-187z" />
    <glyph glyph-name="ampersand" unicode="&#x26;" horiz-adv-x="666" 
d="M93 301v-250h459v154h69l-69 108h-187v-108h-85v108h46v103h-46v91h85v-50l187 50v150h-459v-229l98 -60zM41 0v328l55 37l-55 33v310h562v-240l-225 -61v-43h202l135 -210h-112v-154h-562z" />
    <glyph glyph-name="quotesingle" unicode="'" horiz-adv-x="204" 
d="M123 478l32 85v103h-88v-188h56zM196 555l-43 -118h-127v271h170v-153z" />
    <glyph glyph-name="parenleft" unicode="(" horiz-adv-x="418" 
d="M67 30l169 -143l115 136l-91 58v408l91 57l-115 135l-169 -142v-509zM243 -188l-229 193v559l229 191l187 -221l-117 -74v-350l117 -75z" />
    <glyph glyph-name="parenright" unicode=")" horiz-adv-x="418" 
d="M67 23l115 -136l169 143v509l-169 142l-115 -135l91 -57v-408zM175 -188l-187 223l117 75v350l-117 74l187 221l229 -191v-559z" />
    <glyph glyph-name="asterisk" unicode="*" horiz-adv-x="504" 
d="M125 462v-69h99l27 51l27 -51h99v69l-49 41v7h76v95h-63l-34 -27v82h-111v-82l-33 27h-65v-95h82v-7zM80 348v117h-27v185h98v55h201v-55h97v-185h-27v-117h-342z" />
    <glyph glyph-name="plus" unicode="+" horiz-adv-x="630" 
d="M242 150h146v146h145v116h-145v146h-146v-146h-145v-116h145v-146zM436 102h-242v145h-146v214h146v145h242v-145h146v-214h-146v-145z" />
    <glyph glyph-name="comma" unicode="," horiz-adv-x="325" 
d="M94 145v-143h37l-55 -129h84l88 180v92h-154zM49 -43v233h244v-148l-105 -214h-180l55 129h-14z" />
    <glyph glyph-name="hyphen" unicode="-" horiz-adv-x="382" 
d="M105 305h172v108h-172v-108zM313 269h-244v180h244v-180z" />
    <glyph glyph-name="period" unicode="." horiz-adv-x="302" 
d="M88 153v-116h126v116h-126zM51 0v190h200v-190h-200z" />
    <glyph glyph-name="slash" unicode="/" horiz-adv-x="419" 
d="M68 -72h105l178 728h-107zM214 -125h-212l201 833h214z" />
    <glyph glyph-name="zero" unicode="0" horiz-adv-x="630" 
d="M87 657v-606h456v606h-456zM353 205h-76v302h76v-302zM35 0v708h560v-708h-560z" />
    <glyph glyph-name="one" unicode="1" horiz-adv-x="630" 
d="M232 507v-302h-116v-154h412v154h-106v452h-191l-94 -83v-67h95zM181 257v199h-95v141l125 111h262v-451h106v-257h-514v257h116z" />
    <glyph glyph-name="two" unicode="2" horiz-adv-x="630" 
d="M87 51h456v166h-266v87h153l113 125v228h-456v-150h266v-103h-151l-115 -100v-253zM595 0h-560v327l148 129h-148v252h560v-298l-128 -142h128v-268z" />
    <glyph glyph-name="three" unicode="3" horiz-adv-x="630" 
d="M69 51h456v321l-110 39l110 96v150h-438v-150h272l-109 -96v-76l85 -23v-107h-266v-154zM577 0h-560v257h267v16l-85 23v138l24 22h-188v252h542v-224l-62 -54l62 -22v-408z" />
    <glyph glyph-name="four" unicode="4" horiz-adv-x="630" 
d="M53 181h249v-130h190v130h79v150h-79v326h-189l-250 -326v-150zM302 475v-144h-108zM250 130h-248v218l276 360h265v-326h79v-252h-79v-130h-293v130z" />
    <glyph glyph-name="five" unicode="5" horiz-adv-x="630" 
d="M86 51h329l123 111v254h-265l6 91h259v150h-419l-33 -348h262v-104h-262v-154zM434 0h-399v257h-5l42 451h517v-569z" />
    <glyph glyph-name="six" unicode="6" horiz-adv-x="630" 
d="M274 309h79v-104h-79v104zM87 546v-495h328l128 111v249h-269v96h269v150h-334zM35 0v569l154 139h406v-569l-161 -139h-399z" />
    <glyph glyph-name="seven" unicode="7" horiz-adv-x="630" 
d="M169 51h193l181 471v135h-456v-150h268zM397 0h-304l186 456h-244v252h560v-195z" />
    <glyph glyph-name="eight" unicode="8" horiz-adv-x="630" 
d="M353 205h-79v99h79v-99zM353 411h-79v96h79v-96zM87 51h456v252l-97 53l97 72v229h-456v-227l97 -73l-97 -65v-241zM595 0h-560v320l60 39l-60 45v304h560v-306l-53 -39l53 -30v-333z" />
    <glyph glyph-name="nine" unicode="9" horiz-adv-x="630" 
d="M353 399h-76v108h76v-108zM543 162v495h-329l-127 -111v-249h266v-92h-266v-154h332zM595 708v-569l-156 -139h-404v569l160 139h400z" />
    <glyph glyph-name="colon" unicode=":" horiz-adv-x="302" 
d="M63 657v-163h176v163h-176zM63 214v-163h176v163h-176zM12 443v265h278v-265h-278zM12 0v265h278v-265h-278z" />
    <glyph glyph-name="semicolon" unicode=";" horiz-adv-x="325" 
d="M83 655v-167h180v167h-180zM83 199v-167h43l-64 -151h98l103 210v108h-180zM30 435v273h286v-273h-286zM30 -21v273h286v-173l-123 -251h-211l64 151h-16z" />
    <glyph glyph-name="less" unicode="&#x3c;" horiz-adv-x="636" 
d="M541 567l-446 -177v-71l446 -177v108l-266 104l266 104v109zM46 423l544 216v-214l-181 -71l181 -71v-213l-544 216v137z" />
    <glyph glyph-name="equal" unicode="=" horiz-adv-x="630" 
d="M522 403v111h-414v-111h414zM522 194v111h-414v-111h414zM569 561v-414h-508v414h508z" />
    <glyph glyph-name="greater" unicode="&#x3e;" horiz-adv-x="636" 
d="M541 319v71l-446 177v-109l266 -104l-266 -104v-108zM590 423v-137l-544 -216v213l181 71l-181 71v214z" />
    <glyph glyph-name="question" unicode="?" horiz-adv-x="561" 
d="M184 206v-155h190v155h-190zM184 363v-94h190v83l115 76v229h-300l-118 -88v-112h190v50h39v-64zM133 0v391l22 15h-135v188l151 114h370v-309l-116 -75v-324h-292z" />
    <glyph glyph-name="at" unicode="@" horiz-adv-x="1064" 
d="M627 346c-6 32.667 -16.1689 56 -30.502 70s-31.833 21 -52.5 21c-20 0 -38.833 -5.5 -56.5 -16.5s-33.167 -26.167 -46.5 -45.5s-24 -42.333 -32 -69s-12 -56 -12 -88c0 -37.333 7 -64.5 21 -81.5s32.667 -25.5 56 -25.5c26.667 0 51.334 10.333 74.001 31
s39.334 50.667 50.001 90zM775.998 473l-74.001 -277.007c-2 -16 -3 -27 -3 -33c0 -17.333 2.83301 -29.333 8.5 -36s13.5 -10 23.5 -10c12 0 25.5 3.66699 40.5 11s33.167 20.333 54.5 39c22.667 20.667 41.667 49.334 57 86.001s23 76.334 23 119.001
s-7.83301 81.5 -23.5 116.5s-38 64.833 -67 89.5s-64 43.834 -105 57.501s-86.5 20.5 -136.5 20.5c-42.667 0 -81.834 -4.33301 -117.501 -13s-71.167 -23 -106.5 -43c-58.667 -34 -105.667 -81.5 -141 -142.5s-53 -128.833 -53 -203.5
c0 -59.333 10.333 -110.666 31 -153.999s51 -79.666 91 -108.999c34.667 -25.333 73.334 -44.666 116.001 -57.999s89.334 -20 140.001 -20c54.667 0 108 8.16699 160 24.5s105.333 42.833 160 79.5l36 -49c-50.667 -36 -105.834 -63.5 -165.501 -82.5
s-121.5 -28.5 -185.5 -28.5c-67.333 0 -129.333 8 -186 24s-104.667 38.333 -144 67c-56 41.333 -96.833 87.166 -122.5 137.499s-38.5 106.833 -38.5 169.5c0 104.667 35.333 199.334 106 284.001c46.667 55.333 106.667 98.666 180 129.999s154.666 47 243.999 47
c60.667 0 117.167 -8 169.5 -24s94.833 -36 127.5 -60c47.333 -35.333 82.666 -74.166 105.999 -116.499s35 -87.166 35 -134.499c0 -55.333 -10.833 -105.5 -32.5 -150.5s-55.167 -84.5 -100.5 -118.5c-21.333 -16.667 -47.5 -30 -78.5 -40s-61.833 -15 -92.5 -15
c-31.333 0 -56.666 4.66699 -75.999 14s-32.333 22 -39 38c-35.333 -34 -82 -51 -140 -51s-102 14.5 -132 43.5s-45 68.5 -45 118.5c0 37.333 6.66699 72.5 20 105.5s31.5 61.667 54.5 86s50.333 43.5 82 57.5s66.167 21 103.5 21c26.667 0 50.334 -4.33301 71.001 -13
s37.334 -20 50.001 -34l15 30h100z" />
    <glyph glyph-name="A" unicode="A" 
d="M83 456v-405h188v235h79v-235h187v606h-290zM350 384h-79v44l79 104v-148zM32 0v474l190 234h367v-708h-557z" />
    <glyph glyph-name="B" unicode="B" horiz-adv-x="629" 
d="M87 657v-606h455v250l-98 66l98 61v229h-455zM274 510h81v-96h-81v96zM355 206h-81v109h81v-109zM35 0v708h559v-309l-55 -34l55 -37v-328h-559z" />
    <glyph glyph-name="C" unicode="C" horiz-adv-x="623" 
d="M88 657v-606h454v265h-188v-103h-77v294h77v-98l188 66v182h-454zM36 0v708h557v-270l-200 -70h200v-368h-557z" />
    <glyph glyph-name="D" unicode="D" 
d="M87 657v-606h454v451l-187 155h-267zM274 517l79 -74v-238h-79v312zM35 0v708h338l219 -182v-526h-557z" />
    <glyph glyph-name="E" unicode="E" horiz-adv-x="568" 
d="M87 51h403v158h-213v99h93v100h-93v99h213v150h-403v-606zM541 0h-505v708h505v-252h-119v-195h119v-261z" />
    <glyph glyph-name="F" unicode="F" horiz-adv-x="540" 
d="M82 51h190v257h103v100h-103v99h213v150h-403v-606zM323 0h-292v708h505v-252h-109v-199h-104v-257z" />
    <glyph glyph-name="G" unicode="G" horiz-adv-x="644" 
d="M88 657v-606h164l120 47v-47h187v325h-220v-95h33v-76h-97v302h97v-76l187 76v150h-471zM37 0v708h573v-235l-111 -45h111v-428h-289v23l-59 -23h-225z" />
    <glyph glyph-name="H" unicode="H" horiz-adv-x="629" 
d="M276 657h-189v-606h189v271h76v-271h190v606h-190v-236h-76v236zM35 708h559v-708h-559v708z" />
    <glyph glyph-name="I" unicode="I" horiz-adv-x="318" 
d="M64 657v-606h190v606h-190zM13 0v708h292v-708h-292z" />
    <glyph glyph-name="J" unicode="J" horiz-adv-x="566" 
d="M60 320v-269h296l126 153v453h-325v-150h138v-234l-63 -75v122h-172zM8 0v371h236v85h-138v252h428v-522l-154 -186h-372z" />
    <glyph glyph-name="K" unicode="K" 
d="M541 657h-188v-187l-79 -64v251h-187v-606h187v274l79 -72v-202h188v205l-115 109l115 105v187zM35 708h557v-260l-91 -84l91 -86v-278h-557v708z" />
    <glyph glyph-name="L" unicode="L" horiz-adv-x="533" 
d="M82 657v-606h399v154h-209v452h-190zM31 0v708h292v-451h210v-257h-502z" />
    <glyph glyph-name="M" unicode="M" horiz-adv-x="768" 
d="M99 657v-606h188v390l97 -139l97 138v-389h188v606h-168l-117 -190l-117 190h-168zM48 0v708h247l89 -144l89 144h247v-708h-290v278l-46 -65l-46 66v-279h-290z" />
    <glyph glyph-name="N" unicode="N" horiz-adv-x="661" 
d="M89 657v-606h187v275l108 -152v-123h187v606h-187v-267l-162 267h-133zM38 0v708h213l82 -134v134h289v-708h-584z" />
    <glyph glyph-name="O" unicode="O" horiz-adv-x="627" 
d="M87 546v-495h323l131 111v495h-324zM353 217h-79v286h79v-286zM35 0v569l164 139h393v-569l-163 -139h-394z" />
    <glyph glyph-name="P" unicode="P" horiz-adv-x="603" 
d="M87 657v-606h187v143l267 139v324h-454zM353 408l-79 -40v135h79v-95zM35 0v708h557v-406l-267 -139v-163h-290z" />
    <glyph glyph-name="Q" unicode="Q" horiz-adv-x="627" 
d="M86 543v-501h330l130 -62l34 135h-107l73 83v458h-328zM356 198h-80v306h80v-306zM34 -10v578l165 140h399v-541h49l-66 -262l-177 85h-370z" />
    <glyph glyph-name="R" unicode="R" 
d="M87 657v-606h187v247l79 -60v-187h188v158l-139 107l139 34v307h-454zM353 432l-79 -21v96h79v-75zM35 0v708h557v-398l-74 -18l74 -58v-234h-557z" />
    <glyph glyph-name="S" unicode="S" horiz-adv-x="585" 
d="M78 51h298l131 139v226h-242v91h242v150h-298l-131 -118v-223h241v-111h-241v-154zM398 0h-371v562l162 146h369v-539z" />
    <glyph glyph-name="T" unicode="T" horiz-adv-x="581" 
d="M196 507v-456h189v456h123v150h-435v-150h123zM145 0v456h-123v252h537v-252h-123v-456h-291z" />
    <glyph glyph-name="U" unicode="U" horiz-adv-x="633" 
d="M87 657v-606h459v606h-190v-452h-79v452h-190zM36 0v708h561v-708h-561z" />
    <glyph glyph-name="V" unicode="V" 
d="M87 657v-606h295l159 185v421h-188v-376l-79 -98v474h-187zM35 0v708h557v-491l-186 -217h-371z" />
    <glyph glyph-name="W" unicode="W" horiz-adv-x="804" 
d="M100 657v-606h170l102 127l77 -127h89l172 223v383h-190v-355l-65 -79l-71 107l-94 -104v431h-190zM48 0v708h293v-350l49 55l70 -103l9 11v387h293v-452l-200 -256h-142l-54 89l-71 -89h-247z" />
    <glyph glyph-name="X" unicode="X" horiz-adv-x="629" 
d="M84 286v-235h190v262h79v-262h190v235l-95 74l95 80v217h-190v-241h-79v241h-190v-217l95 -80zM33 0v310l65 52l-65 54v292h561v-292l-65 -54l65 -52v-310h-561z" />
    <glyph glyph-name="Y" unicode="Y" horiz-adv-x="606" 
d="M208 259v-208h190v208l144 128v270h-188v-252h-102v252h-188v-270zM157 0v236l-144 128v344h580v-344l-144 -128v-236h-292z" />
    <glyph glyph-name="Z" unicode="Z" horiz-adv-x="517" 
d="M53 223v-172h411v154h-196l196 284v168h-411v-150h200zM1 0v239l153 217h-153v252h514v-235l-149 -216h149v-257h-514z" />
    <glyph glyph-name="bracketleft" unicode="[" horiz-adv-x="418" 
d="M67 681v-794h284v135h-91v524h91v135h-284zM14 -166v900h390v-241h-91v-418h91v-241h-390z" />
    <glyph glyph-name="backslash" unicode="\" horiz-adv-x="416" 
d="M243 -72h105l-175 728h-105zM414 -125h-212l-200 833h212z" />
    <glyph glyph-name="bracketright" unicode="]" horiz-adv-x="418" 
d="M67 -113h284v794h-284v-135h91v-524h-91v-135zM404 -166h-390v241h91v418h-91v241h390v-900z" />
    <glyph glyph-name="asciicircum" unicode="^" horiz-adv-x="734" 
d="M588 482l-179 188h-84l-179 -188h81l141 134l140 -134h80zM427 712l258 -272h-194l-123 118l-125 -118h-194l258 272h120z" />
    <glyph glyph-name="underscore" unicode="_" horiz-adv-x="652" 
d="M428 -214v26h-204v-26h204zM451 -166v-70h-250v70h250z" />
    <glyph glyph-name="grave" unicode="`" horiz-adv-x="210" 
d="M153 740h-37l-95 76h79z" />
    <glyph glyph-name="a" unicode="a" 
d="M83 456v-405h188v235h79v-235h187v606h-290zM350 384h-79v44l79 104v-148zM32 0v474l190 234h367v-708h-557z" />
    <glyph glyph-name="b" unicode="b" horiz-adv-x="629" 
d="M87 657v-606h455v250l-98 66l98 61v229h-455zM274 510h81v-96h-81v96zM355 206h-81v109h81v-109zM35 0v708h559v-309l-55 -34l55 -37v-328h-559z" />
    <glyph glyph-name="c" unicode="c" horiz-adv-x="623" 
d="M88 657v-606h454v265h-188v-103h-77v294h77v-98l188 66v182h-454zM36 0v708h557v-270l-200 -70h200v-368h-557z" />
    <glyph glyph-name="d" unicode="d" 
d="M87 657v-606h454v451l-187 155h-267zM274 517l79 -74v-238h-79v312zM35 0v708h338l219 -182v-526h-557z" />
    <glyph glyph-name="e" unicode="e" horiz-adv-x="568" 
d="M87 51h403v158h-213v99h93v100h-93v99h213v150h-403v-606zM541 0h-505v708h505v-252h-119v-195h119v-261z" />
    <glyph glyph-name="f" unicode="f" horiz-adv-x="540" 
d="M82 51h190v257h103v100h-103v99h213v150h-403v-606zM323 0h-292v708h505v-252h-109v-199h-104v-257z" />
    <glyph glyph-name="g" unicode="g" horiz-adv-x="644" 
d="M88 657v-606h164l120 47v-47h187v325h-220v-95h33v-76h-97v302h97v-76l187 76v150h-471zM37 0v708h573v-235l-111 -45h111v-428h-289v23l-59 -23h-225z" />
    <glyph glyph-name="h" unicode="h" horiz-adv-x="629" 
d="M276 657h-189v-606h189v271h76v-271h190v606h-190v-236h-76v236zM35 708h559v-708h-559v708z" />
    <glyph glyph-name="i" unicode="i" horiz-adv-x="318" 
d="M64 657v-606h190v606h-190zM13 0v708h292v-708h-292z" />
    <glyph glyph-name="j" unicode="j" horiz-adv-x="566" 
d="M60 320v-269h296l126 153v453h-325v-150h138v-234l-63 -75v122h-172zM8 0v371h236v85h-138v252h428v-522l-154 -186h-372z" />
    <glyph glyph-name="k" unicode="k" 
d="M541 657h-188v-187l-79 -64v251h-187v-606h187v274l79 -72v-202h188v205l-115 109l115 105v187zM35 708h557v-260l-91 -84l91 -86v-278h-557v708z" />
    <glyph glyph-name="l" unicode="l" horiz-adv-x="533" 
d="M82 657v-606h399v154h-209v452h-190zM31 0v708h292v-451h210v-257h-502z" />
    <glyph glyph-name="m" unicode="m" horiz-adv-x="768" 
d="M99 657v-606h188v390l97 -139l97 138v-389h188v606h-168l-117 -190l-117 190h-168zM48 0v708h247l89 -144l89 144h247v-708h-290v278l-46 -65l-46 66v-279h-290z" />
    <glyph glyph-name="n" unicode="n" horiz-adv-x="661" 
d="M89 657v-606h187v275l108 -152v-123h187v606h-187v-267l-162 267h-133zM38 0v708h213l82 -134v134h289v-708h-584z" />
    <glyph glyph-name="o" unicode="o" horiz-adv-x="627" 
d="M87 546v-495h323l131 111v495h-324zM353 217h-79v286h79v-286zM35 0v569l164 139h393v-569l-163 -139h-394z" />
    <glyph glyph-name="p" unicode="p" horiz-adv-x="603" 
d="M87 657v-606h187v143l267 139v324h-454zM353 408l-79 -40v135h79v-95zM35 0v708h557v-406l-267 -139v-163h-290z" />
    <glyph glyph-name="q" unicode="q" horiz-adv-x="627" 
d="M86 543v-501h330l130 -62l34 135h-107l73 83v458h-328zM356 198h-80v306h80v-306zM34 -10v578l165 140h399v-541h49l-66 -262l-177 85h-370z" />
    <glyph glyph-name="r" unicode="r" 
d="M87 657v-606h187v247l79 -60v-187h188v158l-139 107l139 34v307h-454zM353 432l-79 -21v96h79v-75zM35 0v708h557v-398l-74 -18l74 -58v-234h-557z" />
    <glyph glyph-name="s" unicode="s" horiz-adv-x="585" 
d="M78 51h298l131 139v226h-242v91h242v150h-298l-131 -118v-223h241v-111h-241v-154zM398 0h-371v562l162 146h369v-539z" />
    <glyph glyph-name="t" unicode="t" horiz-adv-x="545" 
d="M178 507v-456h189v456h123v150h-435v-150h123zM127 0v456h-123v252h537v-252h-123v-456h-291z" />
    <glyph glyph-name="u" unicode="u" horiz-adv-x="633" 
d="M87 657v-606h459v606h-190v-452h-79v452h-190zM36 0v708h561v-708h-561z" />
    <glyph glyph-name="v" unicode="v" 
d="M87 657v-606h295l159 185v421h-188v-376l-79 -98v474h-187zM35 0v708h557v-491l-186 -217h-371z" />
    <glyph glyph-name="w" unicode="w" horiz-adv-x="804" 
d="M100 657v-606h170l102 127l77 -127h89l172 223v383h-190v-355l-65 -79l-71 107l-94 -104v431h-190zM48 0v708h293v-350l49 55l70 -103l9 11v387h293v-452l-200 -256h-142l-54 89l-71 -89h-247z" />
    <glyph glyph-name="x" unicode="x" horiz-adv-x="629" 
d="M84 286v-235h190v262h79v-262h190v235l-95 74l95 80v217h-190v-241h-79v241h-190v-217l95 -80zM33 0v310l65 52l-65 54v292h561v-292l-65 -54l65 -52v-310h-561z" />
    <glyph glyph-name="y" unicode="y" horiz-adv-x="606" 
d="M208 259v-208h190v208l144 128v270h-188v-252h-102v252h-188v-270zM157 0v236l-144 128v344h580v-344l-144 -128v-236h-292z" />
    <glyph glyph-name="z" unicode="z" horiz-adv-x="517" 
d="M53 223v-172h411v154h-196l196 284v168h-411v-150h200zM1 0v239l153 217h-153v252h514v-235l-149 -216h149v-257h-514z" />
    <glyph glyph-name="braceleft" unicode="{" horiz-adv-x="487" 
d="M131 222v-208l165 -125h119v136h-89v197l-83 65l83 64v197h89v136h-119l-165 -124v-209l-83 -64zM78 -12v209l-115 90l115 90v209l201 151h189v-242h-90v-169l-49 -39l49 -39v-170h90v-242h-189z" />
    <glyph glyph-name="bar" unicode="|" horiz-adv-x="209" 
d="M155 -182v892h-101v-892h101zM208 764v-1000h-208v1000h208z" />
    <glyph glyph-name="braceright" unicode="}" horiz-adv-x="487" 
d="M191 -111l166 125v208l82 65l-82 64v209l-166 124h-119v-136h90v-197l82 -64l-82 -65v-197h-90v-136h119zM410 -12l-202 -152h-189v242h90v170l49 39l-49 39v169h-90v242h189l202 -151v-209l114 -90l-114 -90v-209z" />
    <glyph glyph-name="asciitilde" unicode="~" horiz-adv-x="818" 
d="M632 302v55.999c-32.667 -22.667 -58.5 -38.167 -77.5 -46.5s-37.167 -12.5 -54.5 -12.5c-13.333 0 -27.166 2.5 -41.499 7.5s-29.5 9.83301 -45.5 14.5c-14.667 4.66699 -29.5 9 -44.5 13s-31.833 6 -50.5 6c-40.667 0 -84.667 -15.333 -132 -46v-56
c33.333 22.667 59.333 38.167 78 46.5s36.667 12.5 54 12.5c14 0 28.167 -2 42.5 -6s28.833 -8.33301 43.5 -13c14.667 -5.33301 29.5 -10.166 44.5 -14.499s31.833 -6.5 50.5 -6.5c43.333 0 87.666 15 132.999 45zM669 282.999
c-32.667 -22 -62.998 -38.001 -90.998 -48.001s-54.333 -15 -79 -15c-22.667 0 -42.5 2.5 -59.5 7.5l-47.5 14.5c-14.667 5.33301 -28 9.66602 -40 12.999s-23.333 5 -34 5c-6.66699 0 -13.5 -0.833008 -20.5 -2.5s-16.333 -5.66699 -28 -12s-27 -15.666 -46 -27.999
l-74.5 -49.5v145c33.333 22 64 38.167 92 48.5s53.667 15.5 77 15.5c21.333 0 40.666 -2.16699 57.999 -6.5s33.666 -8.83301 48.999 -13.5c16.667 -5.33301 31 -10.166 43 -14.499s22.667 -6.5 32 -6.5c6.66699 0 13.667 1 21 3s17 6.16699 29 12.5s27.333 15.5 46 27.5
l73 49v-145z" />
    <glyph glyph-name="currency" unicode="&#xa4;" horiz-adv-x="671" 
d="M48 656l53.999 51l107 -103c16.667 10 36 18 58 24s44.667 9 68 9c24 0 47 -3 69 -9s41.333 -14 58 -24l107 103l53 -51l-103 -100c17.333 -21.333 29.5 -42 36.5 -62s10.5 -40.667 10.5 -62s-3.33301 -41.833 -10 -61.5s-19 -40.5 -37 -62.5l104 -99l-54 -52l-107 104
c-16 -9.33301 -34.667 -17.333 -56 -24s-44.666 -10 -69.999 -10c-24 0 -47 3 -69 9s-41.333 14 -58 24l-107 -103l-54 52l105 99c-15.333 18 -27.166 37 -35.499 57s-12.5 42.333 -12.5 67c0 21.333 3.66699 41.833 11 61.5s19.666 40.5 36.999 62.5zM472.999 433
c0 43.333 -13.668 78.832 -41.001 106.499s-59.333 41.5 -96 41.5c-18 0 -35.167 -3.66699 -51.5 -11s-30.833 -17.5 -43.5 -30.5s-22.667 -28.667 -30 -47s-11 -38.166 -11 -59.499c0 -22 3.66699 -42 11 -60s17.333 -33.667 30 -47s27.167 -23.666 43.5 -30.999
s33.5 -11 51.5 -11s35.333 3.66699 52 11s31.334 17.666 44.001 30.999s22.667 29 30 47s11 38 11 60z" />
    <glyph glyph-name="brokenbar" unicode="&#xa6;" horiz-adv-x="209" 
d="M154 321v325h-99v-325h99zM154 -118v325h-99v-325h99zM207 699v-431h-205v431h205zM207 260v-431h-205v431h205z" />
    <glyph glyph-name="section" unicode="&#xa7;" horiz-adv-x="676" 
d="M138 164v-174h434v226l-49 42l67 91l-274 213v35h77v-52h179v173h-434v-226l57 -52l-65 -89l263 -207v-32h-77v52h-178zM437 328l-39 -47l-111 89l37 46zM86 -62v279h130l-158 123l67 93l-39 36v302h538v-279h-133l171 -134l-69 -92l31 -26v-302h-538z" />
    <glyph glyph-name="copyright" unicode="&#xa9;" horiz-adv-x="833" 
d="M416 715c100.667 0 185.998 -34.998 255.998 -104.998c33.333 -33.333 59.166 -72 77.499 -116s27.5 -90.333 27.5 -139s-9 -94.667 -27 -138s-43.667 -81.333 -77 -114c-35.333 -34.667 -75.166 -61.334 -119.499 -80.001s-90.166 -28 -137.499 -28
s-92.666 9.16699 -135.999 27.5s-82.333 44.833 -117 79.5s-61 73.667 -79 117s-27 88.666 -27 135.999s9.16699 93 27.5 137s44.833 83.667 79.5 119c33.333 33.333 71.5 59 114.5 77s88.833 27 137.5 27zM728.998 355.002c0 87.333 -29.999 161.002 -89.999 221.002
c-61.333 61.333 -135.333 92 -222 92c-86 0 -159 -30 -219 -90c-30.667 -30.667 -54 -65.334 -70 -104.001s-24 -78.334 -24 -119.001s8 -80 24 -118s39 -72 69 -102c61.333 -61.333 134.666 -92 219.999 -92c84 0 158 31 222 93c60 58.667 90 131.667 90 219z
M513.999 443.004c-4 24.667 -14.6709 43.8301 -32.0039 57.4971s-40 20.5 -68 20.5c-33.333 0 -60 -14.333 -80 -43s-30 -69.667 -30 -123c0 -52 10.333 -92 31 -120s48.667 -42 84 -42c26.667 0 48.834 7.5 66.501 22.5s28.834 36.167 33.501 63.5h71
c-2.66699 -42.667 -20 -77.167 -52 -103.5s-72.667 -39.5 -122 -39.5c-58.667 0 -105 19.333 -139 58s-51 93.334 -51 164.001c0 33.333 4.66699 63.333 14 90s22.5 49.334 39.5 68.001s37.333 33.167 61 43.5s49.834 15.5 78.501 15.5
c46.667 0 85.334 -12.167 116.001 -36.5s47.667 -56.166 51 -95.499h-72z" />
    <glyph glyph-name="guillemotleft" unicode="&#xab;" horiz-adv-x="791" 
d="M543 354l129 184h-167l-123 -184l124 -183h166zM279 354l131 184h-166l-124 -184l124 -183h163zM763 586l-162 -232l162 -231h-545l-156 231l156 232h545z" />
    <glyph glyph-name="logicalnot" unicode="&#xac;" horiz-adv-x="833" 
d="M709 420v-245h-67v177h-518v68h585z" />
    <glyph glyph-name="registered" unicode="&#xae;" horiz-adv-x="833" 
d="M416 715c49.333 0 95.832 -9.16504 139.499 -27.498s82.834 -44.833 117.501 -79.5c32.667 -33.333 58.167 -71.833 76.5 -115.5s27.5 -89.5 27.5 -137.5c0 -100.667 -35 -185 -105 -253c-35.333 -34.667 -75.166 -61.167 -119.499 -79.5s-89.833 -27.5 -136.5 -27.5
c-48 0 -93.667 9.16699 -137 27.5s-82.333 45.166 -117 80.499c-34 34.667 -60 73.5 -78 116.5s-27 88.167 -27 135.5s9.5 93.333 28.5 138s45.833 84.667 80.5 120c33.333 33.333 71.166 58.666 113.499 75.999s87.833 26 136.5 26zM728.999 352.002
c0 89.333 -29.667 163.67 -89 223.003c-60.667 62 -135 93 -223 93c-42 0 -81.667 -7.66699 -119 -23s-70.333 -37.333 -99 -66c-30.667 -31.333 -54.167 -66.333 -70.5 -105s-24.5 -78.334 -24.5 -119.001s8 -79.834 24 -117.501s38.667 -71.5 68 -101.5s63 -53 101 -69
s77 -24 117 -24c86 0 160.667 30.667 224 92c29.333 28.667 51.833 61.667 67.5 99s23.5 76.666 23.5 117.999zM425.999 566.006c113.333 0 169.999 -37.333 169.999 -112c0 -29.333 -8.16699 -53.5 -24.5 -72.5s-39.166 -31.5 -68.499 -37.5l91 -186h-86l-83 174h-76v-174
h-77v408h154zM411.998 516.006h-63v-135h65c34.667 0 60.5 4.83301 77.5 14.5s25.5 26.5 25.5 50.5c0 25.333 -8.5 43.333 -25.5 54s-43.5 16 -79.5 16z" />
    <glyph glyph-name="degree" unicode="&#xb0;" horiz-adv-x="355" 
d="M76 608v-160h139l64 57v160h-138zM194 505h-34v103h34v-103zM33 405v222l91 81h198v-222l-91 -81h-198z" />
    <glyph glyph-name="plusminus" unicode="&#xb1;" horiz-adv-x="833" 
d="M451 582v-166h258v-68h-258v-166h-69v166h-258v68h258v166h69zM709 83v-69h-585v69h585z" />
    <glyph glyph-name="mu" unicode="&#xb5;" horiz-adv-x="609" 
d="M232 530l-62.999 -292.999c-4.66699 -20.667 -7 -42.334 -7 -65.001c0 -32.667 8.66699 -57.667 26 -75s41.333 -26 72 -26c45.333 0 80 16 104 48s43.333 81.667 58 149l56 262h87l-76 -357c-4.66699 -20.667 -7.66699 -35.5 -9 -44.5s-2 -15.833 -2 -20.5
c0 -22 11.667 -33 35 -33c5.33301 0 11 1 17 3l-16 -72c-18.667 -4 -36.334 -6 -53.001 -6c-20.667 0 -36.5 5 -47.5 15s-19.5 26.333 -25.5 49c-28.667 -42.667 -72.667 -64 -132 -64c-51.333 0 -93 19 -125 57l-54 -259h-88l155 732h88z" />
    <glyph glyph-name="paragraph" unicode="&#xb6;" horiz-adv-x="500" 
d="M468 680h-59.001v-680h-54v680h-87v-680h-54v382c-56.667 2.66699 -101.167 19.5 -133.5 50.5s-48.5 70.833 -48.5 119.5c0 50 17.333 90.833 52 122.5s81.334 47.5 140.001 47.5h244v-42z" />
    <glyph glyph-name="guillemotright" unicode="&#xbb;" horiz-adv-x="791" 
d="M286 538h-166l128 -184l-128 -183h166l121 183zM550 538h-168l130 -184l-130 -183h168l122 183zM28 586h547l154 -232l-154 -231h-547l162 231z" />
    <glyph glyph-name="Agrave" unicode="&#xc0;" 
d="M83 456v-405h188v235h79v-235h187v606h-290zM299 435v-51h-28v44l79 104v-148h-48l20 26v25h-23zM32 0v474l190 234h367v-708h-557zM302 384h-3v-4z" />
    <glyph glyph-name="Agrave" unicode="&#x410;" 
d="M83 456v-405h188v235h79v-235h187v606h-290zM299 435v-51h-28v44l79 104v-148h-48l20 26v25h-23zM32 0v474l190 234h367v-708h-557zM302 384h-3v-4z" />
    <glyph glyph-name="Aacute" unicode="&#xc1;" horiz-adv-x="621" 
d="M274 205v105l79 -41v-64h-79zM87 657v-606h454v258l-267 136v62h236v150h-423zM35 0v708h526v-252h-194l225 -116v-340h-557z" />
    <glyph glyph-name="Aacute" unicode="&#x411;" horiz-adv-x="621" 
d="M274 205v105l79 -41v-64h-79zM87 657v-606h454v258l-267 136v62h236v150h-423zM35 0v708h526v-252h-194l225 -116v-340h-557z" />
    <glyph glyph-name="Acircumflex" unicode="&#xc2;" horiz-adv-x="629" 
d="M87 657v-606h455v250l-98 66l98 61v229h-455zM274 510h81v-96h-81v96zM355 206h-81v109h81v-109zM35 0v708h559v-309l-55 -34l55 -37v-328h-559zM304 459h21v6h-21v-6z" />
    <glyph glyph-name="Acircumflex" unicode="&#x412;" horiz-adv-x="629" 
d="M87 657v-606h455v250l-98 66l98 61v229h-455zM274 510h81v-96h-81v96zM355 206h-81v109h81v-109zM35 0v708h559v-309l-55 -34l55 -37v-328h-559zM304 459h21v6h-21v-6z" />
    <glyph glyph-name="Atilde" unicode="&#xc3;" horiz-adv-x="525" 
d="M86 657v-606h189v448h171v158h-360zM35 0v708h462v-261h-171v-447h-291z" />
    <glyph glyph-name="Atilde" unicode="&#x413;" horiz-adv-x="525" 
d="M86 657v-606h189v448h171v158h-360zM35 0v708h462v-261h-171v-447h-291z" />
    <glyph glyph-name="Adieresis" unicode="&#xc4;" horiz-adv-x="723" 
d="M584 657h-297l-157 -201v-255h-70v-150h593v150h-69v456zM317 201v227l79 101v-328h-79zM262 708h373v-456h69v-252h-695v252h69v222z" />
    <glyph glyph-name="Adieresis" unicode="&#x414;" horiz-adv-x="723" 
d="M584 657h-297l-157 -201v-255h-70v-150h593v150h-69v456zM317 201v227l79 101v-328h-79zM262 708h373v-456h69v-252h-695v252h69v222z" />
    <glyph glyph-name="Aring" unicode="&#xc5;" horiz-adv-x="564" 
d="M85 51h403v158h-213v99h93v100h-93v99h213v150h-403v-606zM539 0h-505v708h505v-252h-119v-195h119v-261z" />
    <glyph glyph-name="Aring" unicode="&#x415;" horiz-adv-x="564" 
d="M85 51h403v158h-213v99h93v100h-93v99h213v150h-403v-606zM539 0h-505v708h505v-252h-119v-195h119v-261z" />
    <glyph glyph-name="AE" unicode="&#xc6;" horiz-adv-x="876" 
d="M528 657h-180v-252l-79 65v187h-185v-187l114 -105l-114 -109v-205h185v205l79 70v-275h180v275l79 -70v-205h185v205l-115 109l115 105v187h-185v-187l-79 -65v252zM33 708h810v-260l-90 -84l90 -86v-278h-810v278l90 86l-90 84v260z" />
    <glyph glyph-name="AE" unicode="&#x416;" horiz-adv-x="876" 
d="M528 657h-180v-252l-79 65v187h-185v-187l114 -105l-114 -109v-205h185v205l79 70v-275h180v275l79 -70v-205h185v205l-115 109l115 105v187h-185v-187l-79 -65v252zM33 708h810v-260l-90 -84l90 -86v-278h-810v278l90 86l-90 84v260z" />
    <glyph glyph-name="Ccedilla" unicode="&#xc7;" horiz-adv-x="562" 
d="M75 206v-155h403v264l-97 56l97 63v223h-403v-150h214v-92h-110v-100h110v-109h-214zM24 0v257h103v199h-103v252h505v-303l-49 -31l49 -30v-344h-505z" />
    <glyph glyph-name="Ccedilla" unicode="&#x417;" horiz-adv-x="562" 
d="M75 206v-155h403v264l-97 56l97 63v223h-403v-150h214v-92h-110v-100h110v-109h-214zM24 0v257h103v199h-103v252h505v-303l-49 -31l49 -30v-344h-505z" />
    <glyph glyph-name="Egrave" unicode="&#xc8;" horiz-adv-x="654" 
d="M271 656h-187v-606h160l136 201v-201h187v606h-187v-153l-109 -155v308zM35 708h584v-708h-584v708z" />
    <glyph glyph-name="Egrave" unicode="&#x418;" horiz-adv-x="654" 
d="M271 656h-187v-606h160l136 201v-201h187v606h-187v-153l-109 -155v308zM35 708h584v-708h-584v708z" />
    <glyph glyph-name="Eacute" unicode="&#xc9;" horiz-adv-x="654" 
d="M271 656h-187v-606h160l136 201v-201h187v606h-187v-153l-109 -155v308zM170 816l102 -128h108l103 128h-120l-35 -47l-39 47h-119zM35 708h156l-129 158h529l-129 -158h157v-708h-584v708z" />
    <glyph glyph-name="Eacute" unicode="&#x419;" horiz-adv-x="654" 
d="M271 656h-187v-606h160l136 201v-201h187v606h-187v-153l-109 -155v308zM170 816l102 -128h108l103 128h-120l-35 -47l-39 47h-119zM35 708h156l-129 158h529l-129 -158h157v-708h-584v708z" />
    <glyph glyph-name="Ecircumflex" unicode="&#xca;" 
d="M541 657h-188v-187l-79 -64v251h-187v-606h187v274l79 -72v-202h188v205l-115 109l115 105v187zM35 708h557v-260l-91 -84l91 -86v-278h-557v708z" />
    <glyph glyph-name="Ecircumflex" unicode="&#x41a;" 
d="M541 657h-188v-187l-79 -64v251h-187v-606h187v274l79 -72v-202h188v205l-115 109l115 105v187zM35 708h557v-260l-91 -84l91 -86v-278h-557v708z" />
    <glyph glyph-name="Edieresis" unicode="&#xcb;" 
d="M271 51v377l79 104v-481h187v606h-290l-164 -201v-405h188zM589 0h-557v474l190 234h367v-708z" />
    <glyph glyph-name="Edieresis" unicode="&#x41b;" 
d="M271 51v377l79 104v-481h187v606h-290l-164 -201v-405h188zM589 0h-557v474l190 234h367v-708z" />
    <glyph glyph-name="Igrave" unicode="&#xcc;" horiz-adv-x="740" 
d="M85 657v-606h188v390l97 -139l97 138v-389h188v606h-168l-117 -190l-117 190h-168zM34 0v708h247l89 -144l89 144h247v-708h-290v278l-46 -65l-46 66v-279h-290z" />
    <glyph glyph-name="Igrave" unicode="&#x41c;" horiz-adv-x="740" 
d="M85 657v-606h188v390l97 -139l97 138v-389h188v606h-168l-117 -190l-117 190h-168zM34 0v708h247l89 -144l89 144h247v-708h-290v278l-46 -65l-46 66v-279h-290z" />
    <glyph glyph-name="Iacute" unicode="&#xcd;" horiz-adv-x="629" 
d="M275 657h-189v-606h189v271h76v-271h190v606h-190v-236h-76v236zM34 708h559v-708h-559v708z" />
    <glyph glyph-name="Iacute" unicode="&#x41d;" horiz-adv-x="629" 
d="M275 657h-189v-606h189v271h76v-271h190v606h-190v-236h-76v236zM34 708h559v-708h-559v708z" />
    <glyph glyph-name="Icircumflex" unicode="&#xce;" horiz-adv-x="619" 
d="M83 546v-495h323l131 111v495h-324zM349 217h-79v286h79v-286zM31 0v569l164 139h393v-569l-163 -139h-394z" />
    <glyph glyph-name="Icircumflex" unicode="&#x41e;" horiz-adv-x="619" 
d="M83 546v-495h323l131 111v495h-324zM349 217h-79v286h79v-286zM31 0v569l164 139h393v-569l-163 -139h-394z" />
    <glyph glyph-name="Idieresis" unicode="&#xcf;" horiz-adv-x="627" 
d="M541 657h-454v-606h187v456h79v-456h188v606zM35 708h557v-708h-557v708z" />
    <glyph glyph-name="Idieresis" unicode="&#x41f;" horiz-adv-x="627" 
d="M541 657h-454v-606h187v456h79v-456h188v606zM35 708h557v-708h-557v708z" />
    <glyph glyph-name="Eth" unicode="&#xd0;" horiz-adv-x="613" 
d="M87 657v-606h187v143l267 139v324h-454zM353 408l-79 -40v135h79v-95zM35 0v708h557v-406l-267 -139v-163h-290z" />
    <glyph glyph-name="Eth" unicode="&#x420;" horiz-adv-x="613" 
d="M87 657v-606h187v143l267 139v324h-454zM353 408l-79 -40v135h79v-95zM35 0v708h557v-406l-267 -139v-163h-290z" />
    <glyph glyph-name="Ntilde" unicode="&#xd1;" horiz-adv-x="623" 
d="M88 657v-606h454v265h-188v-103h-77v294h77v-98l188 66v182h-454zM36 0v708h557v-270l-200 -70h200v-368h-557z" />
    <glyph glyph-name="Ntilde" unicode="&#x421;" horiz-adv-x="623" 
d="M88 657v-606h454v265h-188v-103h-77v294h77v-98l188 66v182h-454zM36 0v708h557v-270l-200 -70h200v-368h-557z" />
    <glyph glyph-name="Ograve" unicode="&#xd2;" horiz-adv-x="581" 
d="M196 507v-456h189v456h123v150h-435v-150h123zM145 0v456h-123v252h537v-252h-123v-456h-291z" />
    <glyph glyph-name="Ograve" unicode="&#x422;" horiz-adv-x="581" 
d="M196 507v-456h189v456h123v150h-435v-150h123zM145 0v456h-123v252h537v-252h-123v-456h-291z" />
    <glyph glyph-name="Oacute" unicode="&#xd3;" 
d="M271 439v218h-188v-258l267 -136v-54h-267v-158h454v606h-187v-259zM32 368v340h557v-708h-557v261h209z" />
    <glyph glyph-name="Oacute" unicode="&#x423;" 
d="M271 439v218h-188v-258l267 -136v-54h-267v-158h454v606h-187v-259zM32 368v340h557v-708h-557v261h209z" />
    <glyph glyph-name="Ocircumflex" unicode="&#xd4;" horiz-adv-x="876" 
d="M346 657v-64h-265v-324l265 -138v-80h184v80l265 138v324h-265v64h-184zM530 294v146h82v-95zM264 440h82v-146l-82 51v95zM294 645v63h288v-63h264v-406l-264 -139v-100h-288v100l-264 139v406h264z" />
    <glyph glyph-name="Ocircumflex" unicode="&#x424;" horiz-adv-x="876" 
d="M346 657v-64h-265v-324l265 -138v-80h184v80l265 138v324h-265v64h-184zM530 294v146h82v-95zM264 440h82v-146l-82 51v95zM294 645v63h288v-63h264v-406l-264 -139v-100h-288v100l-264 139v406h264z" />
    <glyph glyph-name="Otilde" unicode="&#xd5;" horiz-adv-x="629" 
d="M84 286v-235h190v262h79v-262h190v235l-95 74l95 80v217h-190v-241h-79v241h-190v-217l95 -80zM33 0v310l65 52l-65 54v292h561v-292l-65 -54l65 -52v-310h-561z" />
    <glyph glyph-name="Otilde" unicode="&#x425;" horiz-adv-x="629" 
d="M84 286v-235h190v262h79v-262h190v235l-95 74l95 80v217h-190v-241h-79v241h-190v-217l95 -80zM33 0v310l65 52l-65 54v292h561v-292l-65 -54l65 -52v-310h-561z" />
    <glyph glyph-name="Odieresis" unicode="&#xd6;" horiz-adv-x="660" 
d="M87 51h531v154h-74v452h-190v-452h-77v452h-190v-606zM669 0h-633v708h559v-451h74v-257z" />
    <glyph glyph-name="Odieresis" unicode="&#x426;" horiz-adv-x="660" 
d="M87 51h531v154h-74v452h-190v-452h-77v452h-190v-606zM669 0h-633v708h559v-451h74v-257z" />
    <glyph glyph-name="multiply" unicode="&#xd7;" horiz-adv-x="612" 
d="M336 224v-173h189v606h-189v-297l-79 40v257h-187v-296zM285 0v192l-267 137v379h559v-708h-292z" />
    <glyph glyph-name="multiply" unicode="&#x427;" horiz-adv-x="612" 
d="M336 224v-173h189v606h-189v-297l-79 40v257h-187v-296zM285 0v192l-267 137v379h559v-708h-292z" />
    <glyph glyph-name="Oslash" unicode="&#xd8;" horiz-adv-x="789" 
d="M87 51h615v606h-190v-452h-79v302h-77v-302h-79v452h-190v-606zM753 0h-717v708h292v-150h133v150h292v-708z" />
    <glyph glyph-name="Oslash" unicode="&#x428;" horiz-adv-x="789" 
d="M87 51h615v606h-190v-452h-79v302h-77v-302h-79v452h-190v-606zM753 0h-717v708h292v-150h133v150h292v-708z" />
    <glyph glyph-name="Ugrave" unicode="&#xd9;" horiz-adv-x="819" 
d="M87 51h690v154h-75v452h-190v-452h-78v302h-78v-302h-79v452h-190v-606zM828 0h-792v708h293v-150h132v150h293v-451h74v-257z" />
    <glyph glyph-name="Ugrave" unicode="&#x429;" horiz-adv-x="819" 
d="M87 51h690v154h-75v452h-190v-452h-78v302h-78v-302h-79v452h-190v-606zM828 0h-792v708h293v-150h132v150h293v-451h74v-257z" />
    <glyph glyph-name="Uacute" unicode="&#xda;" horiz-adv-x="669" 
d="M67 507h77v-456h444v331l-257 125v150h-264v-150zM331 205v146l80 -40v-106h-80zM93 456h-77v252h367v-168l256 -125v-415h-546v456z" />
    <glyph glyph-name="Uacute" unicode="&#x42a;" horiz-adv-x="669" 
d="M67 507h77v-456h444v331l-257 125v150h-264v-150zM331 205v146l80 -40v-106h-80zM93 456h-77v252h367v-168l256 -125v-415h-546v456z" />
    <glyph glyph-name="Ucircumflex" unicode="&#xdb;" horiz-adv-x="869" 
d="M592 657v-606h190v606h-190zM87 657v-606h444v331l-257 125v150h-187zM274 205v146l80 -40v-106h-80zM36 0v708h289v-168l216 -106v274h292v-708h-797z" />
    <glyph glyph-name="Ucircumflex" unicode="&#x42b;" horiz-adv-x="869" 
d="M592 657v-606h190v606h-190zM87 657v-606h444v331l-257 125v150h-187zM274 205v146l80 -40v-106h-80zM36 0v708h289v-168l216 -106v274h292v-708h-797z" />
    <glyph glyph-name="Udieresis" unicode="&#xdc;" horiz-adv-x="606" 
d="M87 657v-606h443v331l-256 125v150h-187zM274 205v146l79 -40v-106h-79zM35 0v708h290v-168l257 -125v-415h-547z" />
    <glyph glyph-name="Udieresis" unicode="&#x42c;" horiz-adv-x="606" 
d="M87 657v-606h443v331l-256 125v150h-187zM274 205v146l79 -40v-106h-79zM35 0v708h290v-168l257 -125v-415h-547z" />
    <glyph glyph-name="Yacute" unicode="&#xdd;" horiz-adv-x="626" 
d="M83 51h456v606h-456v-150l187 -57v57h79v-92h-79v-95h79v-115h-79v63h-187v-217zM591 0h-560v320h188v92l-188 57v239h560v-708z" />
    <glyph glyph-name="Yacute" unicode="&#x42d;" horiz-adv-x="626" 
d="M83 51h456v606h-456v-150l187 -57v57h79v-92h-79v-95h79v-115h-79v63h-187v-217zM591 0h-560v320h188v92l-188 57v239h560v-708z" />
    <glyph glyph-name="Thorn" unicode="&#xde;" horiz-adv-x="891" 
d="M276 414v243h-190v-606h190v263h80v-263h323l131 111v495h-324l-130 -111v-132h-80zM622 217h-79v290h79v-290zM327 708v-119l141 119h393v-569l-163 -139h-663v708h292z" />
    <glyph glyph-name="Thorn" unicode="&#x42e;" horiz-adv-x="891" 
d="M276 414v243h-190v-606h190v263h80v-263h323l131 111v495h-324l-130 -111v-132h-80zM622 217h-79v290h79v-290zM327 708v-119l141 119h393v-569l-163 -139h-663v708h292z" />
    <glyph glyph-name="germandbls" unicode="&#xdf;" 
d="M350 51h188v606h-454v-294l139 -47l-139 -113v-152h187v170l79 77v-247zM350 503v-93l-79 26v67h79zM589 0h-557v227l86 70l-86 29v382h557v-708z" />
    <glyph glyph-name="germandbls" unicode="&#x42f;" 
d="M350 51h188v606h-454v-294l139 -47l-139 -113v-152h187v170l79 77v-247zM350 503v-93l-79 26v67h79zM589 0h-557v227l86 70l-86 29v382h557v-708z" />
    <glyph glyph-name="agrave" unicode="&#xe0;" 
d="M83 456v-405h188v235h79v-235h187v606h-290zM299 435v-51h-28v44l79 104v-148h-48l20 26v25h-23zM32 0v474l190 234h367v-708h-557zM302 384h-3v-4z" />
    <glyph glyph-name="agrave" unicode="&#x430;" 
d="M83 456v-405h188v235h79v-235h187v606h-290zM299 435v-51h-28v44l79 104v-148h-48l20 26v25h-23zM32 0v474l190 234h367v-708h-557zM302 384h-3v-4z" />
    <glyph glyph-name="aacute" unicode="&#xe1;" horiz-adv-x="621" 
d="M274 205v105l79 -41v-64h-79zM87 657v-606h454v258l-267 136v62h236v150h-423zM35 0v708h526v-252h-194l225 -116v-340h-557z" />
    <glyph glyph-name="aacute" unicode="&#x431;" horiz-adv-x="621" 
d="M274 205v105l79 -41v-64h-79zM87 657v-606h454v258l-267 136v62h236v150h-423zM35 0v708h526v-252h-194l225 -116v-340h-557z" />
    <glyph glyph-name="acircumflex" unicode="&#xe2;" horiz-adv-x="629" 
d="M87 657v-606h455v250l-98 66l98 61v229h-455zM274 510h81v-96h-81v96zM355 206h-81v109h81v-109zM35 0v708h559v-309l-55 -34l55 -37v-328h-559zM304 459h21v6h-21v-6z" />
    <glyph glyph-name="acircumflex" unicode="&#x432;" horiz-adv-x="629" 
d="M87 657v-606h455v250l-98 66l98 61v229h-455zM274 510h81v-96h-81v96zM355 206h-81v109h81v-109zM35 0v708h559v-309l-55 -34l55 -37v-328h-559zM304 459h21v6h-21v-6z" />
    <glyph glyph-name="atilde" unicode="&#xe3;" horiz-adv-x="525" 
d="M86 657v-606h189v448h171v158h-360zM35 0v708h462v-261h-171v-447h-291z" />
    <glyph glyph-name="atilde" unicode="&#x433;" horiz-adv-x="525" 
d="M86 657v-606h189v448h171v158h-360zM35 0v708h462v-261h-171v-447h-291z" />
    <glyph glyph-name="adieresis" unicode="&#xe4;" horiz-adv-x="723" 
d="M584 657h-297l-157 -201v-255h-70v-150h593v150h-69v456zM317 201v227l79 101v-328h-79zM262 708h373v-456h69v-252h-695v252h69v222z" />
    <glyph glyph-name="adieresis" unicode="&#x434;" horiz-adv-x="723" 
d="M584 657h-297l-157 -201v-255h-70v-150h593v150h-69v456zM317 201v227l79 101v-328h-79zM262 708h373v-456h69v-252h-695v252h69v222z" />
    <glyph glyph-name="aring" unicode="&#xe5;" horiz-adv-x="564" 
d="M85 51h403v158h-213v99h93v100h-93v99h213v150h-403v-606zM539 0h-505v708h505v-252h-119v-195h119v-261z" />
    <glyph glyph-name="aring" unicode="&#x435;" horiz-adv-x="564" 
d="M85 51h403v158h-213v99h93v100h-93v99h213v150h-403v-606zM539 0h-505v708h505v-252h-119v-195h119v-261z" />
    <glyph glyph-name="ae" unicode="&#xe6;" horiz-adv-x="876" 
d="M528 657h-180v-252l-79 65v187h-185v-187l114 -105l-114 -109v-205h185v205l79 70v-275h180v275l79 -70v-205h185v205l-115 109l115 105v187h-185v-187l-79 -65v252zM33 708h810v-260l-90 -84l90 -86v-278h-810v278l90 86l-90 84v260z" />
    <glyph glyph-name="ae" unicode="&#x436;" horiz-adv-x="876" 
d="M528 657h-180v-252l-79 65v187h-185v-187l114 -105l-114 -109v-205h185v205l79 70v-275h180v275l79 -70v-205h185v205l-115 109l115 105v187h-185v-187l-79 -65v252zM33 708h810v-260l-90 -84l90 -86v-278h-810v278l90 86l-90 84v260z" />
    <glyph glyph-name="ccedilla" unicode="&#xe7;" horiz-adv-x="562" 
d="M75 206v-155h403v264l-97 56l97 63v223h-403v-150h214v-92h-110v-100h110v-109h-214zM24 0v257h103v199h-103v252h505v-303l-49 -31l49 -30v-344h-505z" />
    <glyph glyph-name="ccedilla" unicode="&#x437;" horiz-adv-x="562" 
d="M75 206v-155h403v264l-97 56l97 63v223h-403v-150h214v-92h-110v-100h110v-109h-214zM24 0v257h103v199h-103v252h505v-303l-49 -31l49 -30v-344h-505z" />
    <glyph glyph-name="egrave" unicode="&#xe8;" horiz-adv-x="654" 
d="M271 656h-187v-606h160l136 201v-201h187v606h-187v-153l-109 -155v308zM35 708h584v-708h-584v708z" />
    <glyph glyph-name="egrave" unicode="&#x438;" horiz-adv-x="654" 
d="M271 656h-187v-606h160l136 201v-201h187v606h-187v-153l-109 -155v308zM35 708h584v-708h-584v708z" />
    <glyph glyph-name="eacute" unicode="&#xe9;" horiz-adv-x="654" 
d="M271 656h-187v-606h160l136 201v-201h187v606h-187v-153l-109 -155v308zM170 816l102 -128h108l103 128h-120l-35 -47l-39 47h-119zM35 708h156l-129 158h529l-129 -158h157v-708h-584v708z" />
    <glyph glyph-name="eacute" unicode="&#x439;" horiz-adv-x="654" 
d="M271 656h-187v-606h160l136 201v-201h187v606h-187v-153l-109 -155v308zM170 816l102 -128h108l103 128h-120l-35 -47l-39 47h-119zM35 708h156l-129 158h529l-129 -158h157v-708h-584v708z" />
    <glyph glyph-name="ecircumflex" unicode="&#xea;" 
d="M541 657h-188v-187l-79 -64v251h-187v-606h187v274l79 -72v-202h188v205l-115 109l115 105v187zM35 708h557v-260l-91 -84l91 -86v-278h-557v708z" />
    <glyph glyph-name="ecircumflex" unicode="&#x43a;" 
d="M541 657h-188v-187l-79 -64v251h-187v-606h187v274l79 -72v-202h188v205l-115 109l115 105v187zM35 708h557v-260l-91 -84l91 -86v-278h-557v708z" />
    <glyph glyph-name="edieresis" unicode="&#xeb;" 
d="M271 51v377l79 104v-481h187v606h-290l-164 -201v-405h188zM589 0h-557v474l190 234h367v-708z" />
    <glyph glyph-name="edieresis" unicode="&#x43b;" 
d="M271 51v377l79 104v-481h187v606h-290l-164 -201v-405h188zM589 0h-557v474l190 234h367v-708z" />
    <glyph glyph-name="igrave" unicode="&#xec;" horiz-adv-x="740" 
d="M85 657v-606h188v390l97 -139l97 138v-389h188v606h-168l-117 -190l-117 190h-168zM34 0v708h247l89 -144l89 144h247v-708h-290v278l-46 -65l-46 66v-279h-290z" />
    <glyph glyph-name="igrave" unicode="&#x43c;" horiz-adv-x="740" 
d="M85 657v-606h188v390l97 -139l97 138v-389h188v606h-168l-117 -190l-117 190h-168zM34 0v708h247l89 -144l89 144h247v-708h-290v278l-46 -65l-46 66v-279h-290z" />
    <glyph glyph-name="iacute" unicode="&#xed;" horiz-adv-x="629" 
d="M275 657h-189v-606h189v271h76v-271h190v606h-190v-236h-76v236zM34 708h559v-708h-559v708z" />
    <glyph glyph-name="iacute" unicode="&#x43d;" horiz-adv-x="629" 
d="M275 657h-189v-606h189v271h76v-271h190v606h-190v-236h-76v236zM34 708h559v-708h-559v708z" />
    <glyph glyph-name="icircumflex" unicode="&#xee;" horiz-adv-x="619" 
d="M83 546v-495h323l131 111v495h-324zM349 217h-79v286h79v-286zM31 0v569l164 139h393v-569l-163 -139h-394z" />
    <glyph glyph-name="icircumflex" unicode="&#x43e;" horiz-adv-x="619" 
d="M83 546v-495h323l131 111v495h-324zM349 217h-79v286h79v-286zM31 0v569l164 139h393v-569l-163 -139h-394z" />
    <glyph glyph-name="idieresis" unicode="&#xef;" horiz-adv-x="627" 
d="M541 657h-454v-606h187v456h79v-456h188v606zM35 708h557v-708h-557v708z" />
    <glyph glyph-name="idieresis" unicode="&#x43f;" horiz-adv-x="627" 
d="M541 657h-454v-606h187v456h79v-456h188v606zM35 708h557v-708h-557v708z" />
    <glyph glyph-name="eth" unicode="&#xf0;" horiz-adv-x="613" 
d="M87 657v-606h187v143l267 139v324h-454zM353 408l-79 -40v135h79v-95zM35 0v708h557v-406l-267 -139v-163h-290z" />
    <glyph glyph-name="eth" unicode="&#x440;" horiz-adv-x="613" 
d="M87 657v-606h187v143l267 139v324h-454zM353 408l-79 -40v135h79v-95zM35 0v708h557v-406l-267 -139v-163h-290z" />
    <glyph glyph-name="ntilde" unicode="&#xf1;" horiz-adv-x="623" 
d="M88 657v-606h454v265h-188v-103h-77v294h77v-98l188 66v182h-454zM36 0v708h557v-270l-200 -70h200v-368h-557z" />
    <glyph glyph-name="ntilde" unicode="&#x441;" horiz-adv-x="623" 
d="M88 657v-606h454v265h-188v-103h-77v294h77v-98l188 66v182h-454zM36 0v708h557v-270l-200 -70h200v-368h-557z" />
    <glyph glyph-name="ograve" unicode="&#xf2;" horiz-adv-x="581" 
d="M196 507v-456h189v456h123v150h-435v-150h123zM145 0v456h-123v252h537v-252h-123v-456h-291z" />
    <glyph glyph-name="ograve" unicode="&#x442;" horiz-adv-x="581" 
d="M196 507v-456h189v456h123v150h-435v-150h123zM145 0v456h-123v252h537v-252h-123v-456h-291z" />
    <glyph glyph-name="oacute" unicode="&#xf3;" 
d="M271 439v218h-188v-258l267 -136v-54h-267v-158h454v606h-187v-259zM32 368v340h557v-708h-557v261h209z" />
    <glyph glyph-name="oacute" unicode="&#x443;" 
d="M271 439v218h-188v-258l267 -136v-54h-267v-158h454v606h-187v-259zM32 368v340h557v-708h-557v261h209z" />
    <glyph glyph-name="ocircumflex" unicode="&#xf4;" horiz-adv-x="876" 
d="M346 657v-64h-265v-324l265 -138v-80h184v80l265 138v324h-265v64h-184zM530 294v146h82v-95zM264 440h82v-146l-82 51v95zM294 645v63h288v-63h264v-406l-264 -139v-100h-288v100l-264 139v406h264z" />
    <glyph glyph-name="ocircumflex" unicode="&#x444;" horiz-adv-x="876" 
d="M346 657v-64h-265v-324l265 -138v-80h184v80l265 138v324h-265v64h-184zM530 294v146h82v-95zM264 440h82v-146l-82 51v95zM294 645v63h288v-63h264v-406l-264 -139v-100h-288v100l-264 139v406h264z" />
    <glyph glyph-name="otilde" unicode="&#xf5;" horiz-adv-x="629" 
d="M84 286v-235h190v262h79v-262h190v235l-95 74l95 80v217h-190v-241h-79v241h-190v-217l95 -80zM33 0v310l65 52l-65 54v292h561v-292l-65 -54l65 -52v-310h-561z" />
    <glyph glyph-name="otilde" unicode="&#x445;" horiz-adv-x="629" 
d="M84 286v-235h190v262h79v-262h190v235l-95 74l95 80v217h-190v-241h-79v241h-190v-217l95 -80zM33 0v310l65 52l-65 54v292h561v-292l-65 -54l65 -52v-310h-561z" />
    <glyph glyph-name="odieresis" unicode="&#xf6;" horiz-adv-x="660" 
d="M87 51h531v154h-74v452h-190v-452h-77v452h-190v-606zM669 0h-633v708h559v-451h74v-257z" />
    <glyph glyph-name="odieresis" unicode="&#x446;" horiz-adv-x="660" 
d="M87 51h531v154h-74v452h-190v-452h-77v452h-190v-606zM669 0h-633v708h559v-451h74v-257z" />
    <glyph glyph-name="divide" unicode="&#xf7;" horiz-adv-x="612" 
d="M336 224v-173h189v606h-189v-297l-79 40v257h-187v-296zM285 0v192l-267 137v379h559v-708h-292z" />
    <glyph glyph-name="divide" unicode="&#x447;" horiz-adv-x="612" 
d="M336 224v-173h189v606h-189v-297l-79 40v257h-187v-296zM285 0v192l-267 137v379h559v-708h-292z" />
    <glyph glyph-name="oslash" unicode="&#xf8;" horiz-adv-x="789" 
d="M87 51h615v606h-190v-452h-79v302h-77v-302h-79v452h-190v-606zM753 0h-717v708h292v-150h133v150h292v-708z" />
    <glyph glyph-name="oslash" unicode="&#x448;" horiz-adv-x="789" 
d="M87 51h615v606h-190v-452h-79v302h-77v-302h-79v452h-190v-606zM753 0h-717v708h292v-150h133v150h292v-708z" />
    <glyph glyph-name="ugrave" unicode="&#xf9;" horiz-adv-x="819" 
d="M87 51h690v154h-75v452h-190v-452h-78v302h-78v-302h-79v452h-190v-606zM828 0h-792v708h293v-150h132v150h293v-451h74v-257z" />
    <glyph glyph-name="ugrave" unicode="&#x449;" horiz-adv-x="819" 
d="M87 51h690v154h-75v452h-190v-452h-78v302h-78v-302h-79v452h-190v-606zM828 0h-792v708h293v-150h132v150h293v-451h74v-257z" />
    <glyph glyph-name="uacute" unicode="&#xfa;" horiz-adv-x="669" 
d="M67 507h77v-456h444v331l-257 125v150h-264v-150zM331 205v146l80 -40v-106h-80zM93 456h-77v252h367v-168l256 -125v-415h-546v456z" />
    <glyph glyph-name="uacute" unicode="&#x44a;" horiz-adv-x="669" 
d="M67 507h77v-456h444v331l-257 125v150h-264v-150zM331 205v146l80 -40v-106h-80zM93 456h-77v252h367v-168l256 -125v-415h-546v456z" />
    <glyph glyph-name="ucircumflex" unicode="&#xfb;" horiz-adv-x="869" 
d="M592 657v-606h190v606h-190zM87 657v-606h444v331l-257 125v150h-187zM274 205v146l80 -40v-106h-80zM36 0v708h289v-168l216 -106v274h292v-708h-797z" />
    <glyph glyph-name="ucircumflex" unicode="&#x44b;" horiz-adv-x="869" 
d="M592 657v-606h190v606h-190zM87 657v-606h444v331l-257 125v150h-187zM274 205v146l80 -40v-106h-80zM36 0v708h289v-168l216 -106v274h292v-708h-797z" />
    <glyph glyph-name="udieresis" unicode="&#xfc;" horiz-adv-x="606" 
d="M87 657v-606h443v331l-256 125v150h-187zM274 205v146l79 -40v-106h-79zM35 0v708h290v-168l257 -125v-415h-547z" />
    <glyph glyph-name="udieresis" unicode="&#x44c;" horiz-adv-x="606" 
d="M87 657v-606h443v331l-256 125v150h-187zM274 205v146l79 -40v-106h-79zM35 0v708h290v-168l257 -125v-415h-547z" />
    <glyph glyph-name="yacute" unicode="&#xfd;" horiz-adv-x="626" 
d="M83 51h456v606h-456v-150l187 -57v57h79v-92h-79v-95h79v-115h-79v63h-187v-217zM591 0h-560v320h188v92l-188 57v239h560v-708z" />
    <glyph glyph-name="yacute" unicode="&#x44d;" horiz-adv-x="626" 
d="M83 51h456v606h-456v-150l187 -57v57h79v-92h-79v-95h79v-115h-79v63h-187v-217zM591 0h-560v320h188v92l-188 57v239h560v-708z" />
    <glyph glyph-name="thorn" unicode="&#xfe;" horiz-adv-x="891" 
d="M276 414v243h-190v-606h190v263h80v-263h323l131 111v495h-324l-130 -111v-132h-80zM622 217h-79v290h79v-290zM327 708v-119l141 119h393v-569l-163 -139h-663v708h292z" />
    <glyph glyph-name="thorn" unicode="&#x44e;" horiz-adv-x="891" 
d="M276 414v243h-190v-606h190v263h80v-263h323l131 111v495h-324l-130 -111v-132h-80zM622 217h-79v290h79v-290zM327 708v-119l141 119h393v-569l-163 -139h-663v708h292z" />
    <glyph glyph-name="ydieresis" unicode="&#xff;" 
d="M350 51h188v606h-454v-294l139 -47l-139 -113v-152h187v170l79 77v-247zM350 503v-93l-79 26v67h79zM589 0h-557v227l86 70l-86 29v382h557v-708z" />
    <glyph glyph-name="ydieresis" unicode="&#x44f;" 
d="M350 51h188v606h-454v-294l139 -47l-139 -113v-152h187v170l79 77v-247zM350 503v-93l-79 26v67h79zM589 0h-557v227l86 70l-86 29v382h557v-708z" />
    <glyph glyph-name="afii10023" unicode="&#x401;" horiz-adv-x="571" 
d="M86 658v-608h405v156h-216v110h96v99h-96v95h216v148h-405zM147 816v-108h115v108h-115zM320 816v-108h117v108h-117zM36 0v708h58v159h397v-159h53v-251h-120v-201h120v-256h-508z" />
    <glyph glyph-name="afii10071" unicode="&#x451;" horiz-adv-x="571" 
d="M86 658v-608h405v156h-216v110h96v99h-96v95h216v148h-405zM147 816v-108h115v108h-115zM320 816v-108h117v108h-117zM36 0v708h58v159h397v-159h53v-251h-120v-201h120v-256h-508z" />
    <glyph glyph-name="endash" unicode="&#x2013;" horiz-adv-x="512" 
d="M154 383v-58h204v58h-204zM124 296v116h264v-116h-264z" />
    <glyph glyph-name="emdash" unicode="&#x2014;" horiz-adv-x="1024" 
d="M272 409v-67h480v67h-480zM241 311v129h542v-129h-542z" />
    <glyph glyph-name="quoteleft" unicode="&#x2018;" horiz-adv-x="328" 
d="M77 485v-93h154v143h-41l61 128h-86zM32 347v149l105 212h185l-61 -128h15v-233h-244z" />
    <glyph glyph-name="quoteright" unicode="&#x2019;" horiz-adv-x="325" 
d="M94 663v-142h37l-55 -129h85l87 179v92h-154zM49 476v232h244v-148l-103 -213h-182l55 129h-14z" />
    <glyph glyph-name="FLW130" unicode="&#x201a;" horiz-adv-x="325" 
d="M94 145v-143h37l-55 -129h84l88 180v92h-154zM49 -43v233h244v-148l-105 -214h-180l55 129h-14z" />
    <glyph glyph-name="quotedblleft" unicode="&#x201c;" horiz-adv-x="626" 
d="M114 485v-93h154v143h-41l61 128h-86zM339 485v-93h153v143h-41l61 128h-86zM69 347v149l105 212h186l-62 -128h15v-45l84 173h186l-61 -128h15v-233h-468z" />
    <glyph glyph-name="quotedblright" unicode="&#x201d;" horiz-adv-x="623" 
d="M356 663v-142h37l-55 -129h84l87 179v92h-153zM131 663v-142h38l-55 -129h84l88 179v92h-155zM86 476v232h468v-148l-103 -213h-181l55 129h-14v44l-85 -173h-180l54 129h-14z" />
    <glyph glyph-name="quotedblbase" unicode="&#x201e;" horiz-adv-x="623" 
d="M131 145v-143h38l-55 -129h85l87 180v92h-155zM356 145v-143h36l-54 -129h84l88 180v92h-154zM311 -43v44l-84 -173h-182l55 129h-14v233h469v-148l-106 -214h-180l55 129h-13z" />
    <glyph glyph-name="FLW134" unicode="&#x2020;" horiz-adv-x="618" 
d="M219 332v-404h193v404h125v158h-125v166h-193v-166h-138v-158h138zM167 -125v405h-139v263h139v165h298v-165h125v-263h-125v-405h-298z" />
    <glyph glyph-name="bullet" unicode="&#x2022;" horiz-adv-x="433" 
d="M97 372c0 -26.667 11.332 -50.3301 33.999 -70.9971s51 -31 85 -31s62.333 10.5 85 31.5s34 44.5 34 70.5c0 13.333 -3 26.166 -9 38.499s-14.333 23.166 -25 32.499s-23.167 16.833 -37.5 22.5s-29.833 8.5 -46.5 8.5c-33.333 0 -61.666 -10.333 -84.999 -31
s-35 -44.334 -35 -71.001zM54.999 372.004c0 18 4.49707 35.5 13.4971 52.5s21 32.333 36 46s32.333 24.667 52 33s39.834 12.5 60.501 12.5s40.667 -4.16699 60 -12.5s36.5 -19.333 51.5 -33s27 -29 36 -46s13.5 -34.5 13.5 -52.5c0 -17.333 -4.5 -34.666 -13.5 -51.999
s-21 -32.833 -36 -46.5s-32.167 -24.834 -51.5 -33.501s-39.666 -13 -60.999 -13s-41.666 4.16699 -60.999 12.5s-36.5 19.333 -51.5 33s-26.833 29.167 -35.5 46.5s-13 35 -13 53z" />
    <glyph glyph-name="FLW133" unicode="&#x2026;" horiz-adv-x="1024" 
d="M223 161v-124h129v124h-129zM447 161v-124h130v124h-130zM672 161v-124h129v124h-129zM186 0v198h203v-198h-203zM410 0v198h204v-198h-204zM635 0v198h203v-198h-203z" />
    <glyph glyph-name="perthousand" unicode="&#x2030;" horiz-adv-x="1301" 
d="M578 657l-247 -606h69l250 606h-72zM555 397v-346h241v346h-241zM697 143h-42v162h42v-162zM183 657v-345h241v345h-241zM324 404h-41v163h41v-163zM895 397v-346h242v346h-242zM1036 143h-41v162h41v-162zM504 0v168l-70 -168h-179l107 261h-230v447h343v-168l69 168
h183l-108 -260h569v-448h-684z" />
    <glyph glyph-name="guilsinglleft" unicode="&#x2039;" horiz-adv-x="492" 
d="M274 354l129 184h-191l-123 -184l123 -183h191zM495 586l-163 -232l163 -231h-309l-154 231l154 232h309z" />
    <glyph glyph-name="guilsinglright" unicode="&#x203a;" horiz-adv-x="491" 
d="M280 538h-191l130 -184l-130 -183h191l122 183zM-3 586h309l154 -232l-154 -231h-309l163 231z" />
    <glyph glyph-name="afii61352" unicode="&#x2116;" horiz-adv-x="1104" 
d="M121 657v-606h187v275l108 -152v-123h187v606h-187v-267l-162 267h-133zM673 528v-327h310v327h-310zM860 296h-64v138h64v-138zM673 51h310v86h-310v-86zM1034 0h-964v708h214l81 -134v134h290v-128h379v-580z" />
    <glyph glyph-name="trademark" unicode="&#x2122;" horiz-adv-x="829" 
d="M347 718v-56h-82v-219h-69v219h-82v56h233zM472 718l66 -168l62 168h86v-275h-65v172l-64 -172h-38l-68 174v-174h-65v275h86z" />
    <glyph glyph-name="periodcentered" unicode="&#x2219;" horiz-adv-x="302" 
d="M88 412v-116h126v116h-126zM51 259v190h200v-190h-200z" />
    </font>
</defs>
</svg>
