<?xml version="1.0" encoding="utf-8"?>
<!-- Generator: Adobe Illustrator 17.1.0, SVG Export Plug-In . SVG Version: 6.00 Build 0)  -->
<!DOCTYPE svg PUBLIC "-//W3C//DTD SVG 1.1//EN" "http://www.w3.org/Graphics/SVG/1.1/DTD/svg11.dtd">
<svg version="1.1" id="Layer_1" xmlns="http://www.w3.org/2000/svg" xmlns:xlink="http://www.w3.org/1999/xlink" x="0px" y="0px"
	 viewBox="0 0 430 780" enable-background="new 0 0 430 780" xml:space="preserve">
<path fill="#030303" stroke="#FFFFFF" stroke-width="2" stroke-miterlimit="10" d="M340.6,305c6.1-0.4,10.3,1.6,14.8,6.1
	c5.8,5.4,11.9,9.4,20.5,7.8c15.6-2.5,30.8-1.2,43.6,9.4c0.4-0.9,0.9-1.2,1.2-2c-5.8-3.3-11.1-6.5-17.3-9.9c4.5,0.4,8.3,0.9,12.3,1.2
	c0-0.9,0-1.6,0-2.5c-9.4,0-18.9,0.4-28.3,0c-8.6-0.4-17.3-0.9-25.4-2.5c-3.7-0.9-6.1-5.8-9.4-9c9.9-3.7,17.7-7,25.9-9.4
	c7.8-2,16.4-3.3,25.9-4.9c-7,0-12.8-0.4-18,0.4c-5.8,0.9-11.5,2.5-16.9,4.1c0.9-5.4,0.9-10.3,1.6-16.9c-1.2,1.6-2,2.5-2,2.9
	c1.6,13.1-6.1,18-17.3,20.5c-9.9,2-19.7,3.7-29.2-2c-7-4.1-13.1-8.6-21.4-14c7.4-7,13.5-13.1,20.5-18.9c9.9-7.8,20.5-14.4,34.5-9.9
	c2,0.9,4.5,0.4,7,0c9.4-0.4,19.3-0.9,28.8-1.6c2.5-0.4,4.9-0.9,7.8-1.2c0-0.9-0.4-1.2-0.4-2c-4.1,0-7.8,0-13.5,0
	c7.4-4.1,13.5-7.4,20.2-10.7c-0.9-0.9-1.2-2-1.6-3.3c-12.8,11.5-28.3,15.2-41.1,14.8c0.4-1.2,0.9-2,1.2-3.3
	c-13.5,2.5-26.3,4.5-39.8,7c0.9-6.1,1.6-12.8,2.5-20.2c-1.6,2.5-3.3,4.9-5.8,8.6c-2-4.1-3.7-7.4-5.4-10.7c0,2.9,0,6.5,1.6,8.6
	c7,9.9,5.8,16.9-3.7,24.3c-4.1,3.3-7.8,7.8-11.9,11.5c-2.5,2-5.8,4.9-8.6,4.9c-11.9,0-23.4-0.4-34.9-1.6c-6.1-0.9-12.3-3.3-18.5-4.9
	c8.3-17.3,15.2-32.4,22.6-48.1c1.2-2.5,2.9-4.9,4.9-7c18.9-15.6,45.2-18,66.1-6.5c6.5,3.7,12.3,7.8,18.5,11.5c2,1.2,4.9,0.9,9.4,1.2
	c-5.8-2.5-9-4.1-12.8-5.8c13.5-4.9,25.9-2.5,36.9,4.5c-4.1-8.3-13.5-6.5-20.5-9.9c0.4-1.2,0-0.9,0.4-2c7.4-0.4,15.2-0.9,24.7-1.2
	c-5.4-1.2-8.6-1.6-12.3-2.5c-0.4-0.9-0.4-1.2-0.4-1.6c6.1-1.2,11.9-2.5,17.7-3.7c-3.7-0.9-7.4-1.6-12.8-2.5
	c-16.9,15.2-35.7,18.9-48.5,8.3c9.9-9,17.3-19.3,18.9-32.8c-2.5,2.9-3.7,6.5-5.4,9.9c-4.1,8.6-7.4,18.9-18,20.2
	c-8.3,0.4-16.4-3.7-24.7-5.8c0-0.9,0-0.9,0-2c6.1-2.5,11.9-4.9,16.9-7c-0.9-0.4-3.7-0.4-6.5-0.9c2-4.1,3.7-7.8,4.9-11.5
	c-17.3,20.9-23.4,25-50.6,29.6c5.8-23.8,23-35.3,45.6-41.9c-5.8,0.9-11.5,1.2-16.9,3.3c-4.9,2-9.4,6.1-13.5,9.4
	c3.3-8.6,7.4-16,12.8-23s11.1-14,17.3-20.5c5.8-5.8,11.9-10.7,17.7-16.4c-0.4-0.4-0.9-0.9-1.2-1.2c-8.3,7-16.9,14.4-25,21.4
	c-0.4-0.9-0.9-2-1.2-3.3c-16.9,28.8-33.7,57.1-50.6,86.3c0-4.9,0.4-10.3,0-15.2c-0.9-5.4-1.6-10.7-3.3-16
	c-2.5-9.9,5.8-20.9,16.4-20.9c1.2,0,2.5,0.4,3.7,0.4c0.4-7.4,8.6-5.8,13.1-11.5c-8.3,3.3-14.8,6.1-22.2,9c0-6.1,0.4-10.7,0-15.2
	c-0.4-4.5,1.6-6.5,6.5-7c3.7-0.4,7.8-2,10.3-4.5c4.1-4.9,8.3-9,15.2-4.5c-2.5-1.6-4.9-3.3-8.6-5.4c2.9-5.8,6.1-11.1,9-16.9
	c-4.5,4.1-7.8,8.6-9.9,14c-4.5,11.1-9.4,14.8-20.2,13.5c3.3-9.9,6.5-19.7,9.4-28.8c0,0-1.2,0.9-3.3,1.6c-1.6-3.7-3.3-7-4.9-10.7
	c3.3,13.1,1.6,25.4-6.1,36.9c0-6.1,0-12.3,0-18c-0.9,0-1.6,0-2,0c1.6,4.9,3.7,10.3-1.6,12.8c0.9,6.5,0.4,13.1,2,18.5
	c3.3,9.4-0.9,16-7.4,21.4c-1.6,1.2-6.5,1.2-8.6,0c-6.5-4.9-9.9-11.9-8.6-21.4c-2,2-3.3,3.7-4.9,6.1c-0.9-14-1.6-26.3-2-38.6
	c-0.9,0.4-1.2,0.4-2,0.4c0.4,4.1,0.9,8.6,1.6,14c-2-2.5-2.5-3.7-3.7-4.5c0.4,5.8,3.3,9.9,2.9,14.4c-1.2,14.8,7,24.3,15.6,34.5
	c3.7,4.5,5.8,10.7,8.6,16c-8.6-4.1-15.6-8.6-22.2-13.5c-9.9-7.8-22.6-15.2-16.4-32.1c-0.9,1.2-1.6,2.5-2.5,4.9
	c-1.6-3.7-2.5-6.5-3.7-9c-0.4,0-0.9,0.4-1.2,0.4c2,7,3.7,13.5,6.1,23c-4.1-3.7-6.1-5.8-8.6-7.8c0.4,2.5,1.2,4.5,3.3,5.8
	c12.8,9.9,25.4,18.9,37.8,29.2c3.3,2.5,7,6.5,7,9.9c-0.4,11.5,0.4,23.8-3.7,34.1c-4.9,13.5-14,25.9-21.8,38.6
	c-11.5,22.6-31.2,36.6-56.7,44.8c-2-7-3.7-14-5.4-20.2c5.8-3.7,10.3-7,14.8-9.9c-0.4-0.4-0.4-0.9-0.9-1.2c-4.9,2-10.3,4.1-16,6.5
	c-1.2-9-0.4-16.9,3.7-23.8c12.8-21.8,34.1-21.8,52.2-22.2c4.5-2.9,7-4.5,9.4-6.1c-10.3,2-20.9,4.5-31.7,7c4.5-4.1,9.9-5.8,14.8-9
	c4.5-2.5,7.8-6.5,11.9-9.9c-0.4-0.4-0.9-0.9-0.9-0.9c-5.8,4.1-11.5,8.3-18,13.1c0.4-3.3,0.9-4.5,0.9-4.1c-9,4.9-18,10.3-27.9,15.6
	c-2-13.5,10.7-17.3,15.6-25.9c-3.7,2.5-7,4.9-10.7,7.4c-0.4-1.6-0.9-3.3-1.2-4.9c-6.1,16-8.6,32.8-23.4,43.6
	c-6.5-11.5-8.6-23.4-2.5-36.2c-3.7,9-9.4,16.9-4.5,27.2c2.9,5.8,4.5,12.3,6.1,18.5c2,9.4,3.3,18.5,5.4,27.9
	c1.2,6.1,1.2,11.5-5.8,14.4c-11.9,5.4-20.9,14-26.3,25.4c-5.8-16.9-11.9-33.7-17.3-51c-3.7-10.7-2-21.8,4.5-30.8
	c9-11.9,14.8-25,18-39.4c0.9-2,3.3-4.9,5.8-5.8c9.9-3.3,18.5-8.6,25-17.3c3.3-4.5,5.4-3.7,8.3-0.4c11.5,13.5,27.2,12.3,42.3,10.7
	c9-0.9,17.7-2,25.4-3.3c-13.5-6.1-28.3,2.5-43.6,1.2c9.4-9.4,18-18,25-25.9c-4.1,0.4-10.7-1.2-14,8.3c-1.6,4.5-5.8,9-9.9,11.9
	c-3.3,2-7.8,2-12.3,3.3c2.5-5.4,4.1-8.6,5.8-12.3c-3.3,4.9-7.4,7.8-12.8,4.9c-4.5-2.5-9-6.5-7-13.5c1.6-6.5,1.6-13.5,3.7-20.5
	c2.5-9.9-1.6-23,11.9-28.8c-2,0.4-4.1,0.9-7,1.2c5.8-14,15.2-22.6,26.3-26.7c2-6.1,4.1-11.1,5.8-15.6c-4.1,9.9-10.7,16.9-20.2,21.4
	c0.4-4.5,0.4-8.3,0.9-10.7c-6.5,14-13.5,28.8-20.5,43.2c-2-3.3-4.1-8.3-7.4-12.3c-11.1-14-14.4-28.8-9-46c2.5-8.6,7-11.9,14.4-13.1
	c2-0.4,4.5,0,7,0c-1.2-4.5,4.5-13.1,10.3-13.5c8.6-0.9,9,7,13.1,11.9c-2-4.1-3.7-8.3-6.1-14H181c-0.4-2-1.2-5.8-1.6-8.6
	c11.9-1.6,23-3.7,36.2-5.8c-4.9-0.9-9.4-2-13.1-1.6c-5.4,0.9-10.3,2-15.2,3.7c-7.4,2-11.9-1.2-11.5-9c0.9-8.6,6.1-12.3,14.8-10.3
	c-0.4,1.6,0.4,1.2,1.6,1.2c0-0.9,0-1.2,0-1.6c-3.7-0.4-7-0.9-10.3-0.9c-0.9-4.5-1.6-8.6-2-12.8c-0.9,0-1.6-0.4-2.5-0.4
	c7,10.3-1.6,16-4.5,24.3c-3.7-4.1-7-7.8-9-9.9c3.7,8.6,8.3,18.5,12.8,28.3c3.7,7.4-0.9,11.5-6.1,15.2c-3.3,2-7.4,3.3-11.9,4.9
	c3.7-13.5,2.5-25.4-5.8-35.7c2,6.5,4.5,13.1,7.4,21.8c-2-2-3.3-2.9-3.7-2.9c-0.9,5.4-1.2,12.3-2.5,18.5c-0.9,4.1-2,7.4-3.3,11.5
	c-4.9,15.6-4.5,30.8,5.8,44.8c11.5,15.6,14.8,32.1,7.4,50.6c-5.4,13.5-20.2,25.4-30.4,23.8c-3.3-14.4-5.8-28.8-9.9-42.3
	c-5.4-17.3-10.3-33.7-3.3-51.3c0.4-0.9,0.4-2,0-3.3c-1.2-7-2.9-14.4-4.5-21.4c-0.4,2-0.9,4.1-1.2,6.5c-6.5-7-4.5-14.8-6.1-23
	c-2,10.7-0.4,19.7,4.5,28.3c2,4.1,3.7,9,3.3,13.1c-0.9,9.4-3.3,18.9-4.9,27.9c-10.7-10.7-22.6-22.2-23.4-40.3
	c-0.9-8.6-1.6-17.3-4.1-25.4c-3.7-11.9,0.4-20.5,7.4-28.8c1.6-1.6,5.8-1.6,8.6-1.2c4.5,0.9,9,2.5,13.5,4.1c0.4-0.4,0.4-0.9,0.4-1.2
	c-4.9-2.5-10.3-5.4-15.6-7.8c4.7-12.2,8.8-22.5,13.3-32.3c-1.2,1.2-2.5,2.9-4.1,4.9c-0.4-2.9-0.9-4.9-1.2-9
	c-2,7.4-3.3,13.1-4.5,18.9c-0.9,4.1-1.2,8.6-3.7,11.5c-5.8,8.3-12.3,15.6-19.3,24.3c0-2.9-0.4-6.1,0-9.4C80,54,88.7,42.5,92.4,29
	c1.2-4.9-0.4-9-1.2-13.1C90.8,30.2,85,43.4,78,57.8c-0.4-5.8-0.9-9.4-0.9-13.1c-1.2,11.1-1.2,22.6-1.2,33.7c0,0.4,0,1.2,0.4,1.6
	c9,16,6.5,34.5,9.4,52.2c-3.3-5.8-6.1-11.5-7.8-17.3c-1.6-6.1-2-12.8-3.3-18.9c-1.2,4.1-0.9,7.8-0.4,11.9
	c0.9,20.2,15.2,32.8,26.7,46.4c9.9,11.5,18,23.4,20.9,37.8c4.9,24.3,8.3,48.5-5.8,71.1c-5.8,9-11.5,18.5-18,29.2
	c-2-10.7-4.5-20.9-6.1-31.7c-1.6-9-1.6-18.5-3.7-27.2c-2-9.4-6.5-18-9-27.2c-0.9-3.3,0-8.3,2-10.3c1.6-1.6,6.5-1.6,9.9-1.2
	c3.3,0,6.1,1.2,9,2c0-0.4,0.4-0.9,0.4-1.2c-4.1-1.6-8.3-3.3-10.7-4.1c4.1-4.5,7.8-9.4,12.3-14.4c-0.4-0.4-0.9-0.9-0.9-0.9
	c-8.6,7-17.7,13.5-27.2,20.9c-1.2-7-3.3-14-3.7-20.9c-0.9-8.6,1.2-17.3-0.9-25.4c-3.3-12.3-9-23.8-3.7-36.9c-2,6.1-4.1,11.9-3.7,18
	c1.6,15.2,9.9,29.6,2,46c-2-10.3-4.1-20.5-6.1-30.8c-2.5-1.6-5.8-4.1-9-6.5c3.7,5.8,6.5,10.7,10.3,16.9c-3.7,0-4.9,0-4.9,0
	c8.6,20.9,17.3,42.3,26.3,63.7c-16.9-13.1-40.3-16-45.6-39.4c-0.9,0.4-1.6,1.2-2.5,1.6c4.9,7.4,9.9,15.2,14.4,23
	c-4.5,0.4-9,0.9-13.5,0.9c2.9,1.6,5.8,0.9,8.6,1.2c26.7,2.5,39.8,18,43.6,46.4c1.6,12.3,2.5,24.3,4.9,36.6c1.6,7,5.8,13.1,9,19.7
	c-0.4,0.4-0.4,0.4-1.2,0.9c-10.7-10.3-21.4-20.5-31.2-29.6c-1.6,7,7.4,10.3,11.5,16.4c-0.9,2-1.6,4.1-2,5.8c3.3-0.4,7-2,8.6-0.9
	c9.9,9.4,20.2,18.9,24.3,32.8c8.6,27.5,9.9,55.8,9.9,84.3c-0.4,11.5-3.3,21.4-9.4,30c-11.5,15.2-24.3,29.6-36.6,44.3
	c-13.5,16-25.9,33.7-32.4,53.8c-7,20.9-10.3,41.9-6.5,64.1c2.5,14.4,3.7,29.2,7,43.6c3.3,23.4,15.6,48.5,4.9,69.9
	c-1.6,3.3-38.6,24.3-38.2,25v23.4c62-27.2,65.7-53,64.9-59.6c-1.6-13.1-2.9-27.2-4.9-40.3c-1.2-9.4-4.5-18.5-5.8-28.3
	c-0.4-3.3,2.9-7,4.5-10.3c2,2,4.1,4.1,6.1,6.1c1.2,1.2,2,3.3,2.9,4.9c0.4-0.4,0.9-0.4,1.2-0.4c-0.4-2.9-0.9-6.1-0.9-9.4
	c3.7,1.2,6.5,2.5,9,3.3c0.4-0.4,0.4-0.9,0.4-0.9c-3.3-2.5-6.5-4.9-10.7-7.8c4.1-0.4,6.5-0.9,8.6-1.2c0-0.4,0-1.2,0-1.6
	c-5.4,0-10.7,0-16.4,0c1.6-3.3,2.9-5.8,4.1-8.3c3.7-7,6.5-7.4,12.8-2C94.3,628,94.3,639,92.7,651c1.2-2,2.5-4.1,2.5-6.5
	c0.4-2.9,0-5.8,0-9c11.9,9.4,11.9,9.4,27.5,12.8c9.4,2,18.9,4.5,25,13.1c0.4,0.4,0.9,0.4,2.5,0.9c-7.4-9.9-16-14.8-28.8-15.6
	c2.5-0.9,3.7-1.2,4.9-1.6c0.9-0.4,1.2-1.2,3.3-3.3c-10.7,3.3-19.3,3.3-27.9-4.1c6.5-1.6,11.5-3.3,17.3-4.1
	c5.8-0.9,11.5-0.9,17.3-0.9c0-0.4,0.4-1.2,0.4-1.6c-3.3-0.9-7-1.2-10.3-2c0-0.9,0-1.2,0-1.6c-6.1,2-12.8,3.3-18.9,5.8
	c-5.8,2.5-8.6,0.4-11.5-4.5c-3.7-5.8-8.3-11.1-12.3-16c7.8-6.1,16.9-2,25.4,0c14,3.7,20.9,3.7,28.3-0.9c-5.4,0-9.9,0-16,0
	c3.3-2,4.5-2.9,6.5-4.1c-19.5,2.2-19.5,2.2-24.9-2.7c7-2,13.1-3.7,18.9-5.8c-0.4-0.4-1.6-1.2-2.5-2c2.5-4.1,4.9-7.8,7.8-11.9
	c-6.5,4.9-11.5,11.9-21.4,12.3c0.4-2.9,0.9-4.9,1.2-7c-3.3,11.9-12.3,13.1-22.6,13.1c5.4-7.8,10.7-15.6,15.6-23.4
	c-1.6-3.7-3.3-7.4-4.9-11.9c-2,23.4-10.3,28.3-21.8,34.5c0.4-5.4,0.9-10.3,1.2-15.2c0.4-4.5,4.1-9.9-1.2-13.1
	c-2.5,16.4,0.4,34.5-16.4,46.4c-4.9-20.5-5.8-41.1,0.9-61.2c4.5-14.4,3.7-14,16-13.1c13.1,0.9,26.7,1.6,39.4,4.9
	c17.7,4.5,32.4,14.8,40.3,32.4c3.3,7,6.5,14,9,21.4c1.6,6.1,1.6,13.1,2.5,19.7c2.9,2.5,6.5,6.5,10.3,10.3
	c-2.9-6.5-5.8-12.8-8.3-18.5c1.2-0.9,0.9-0.4,2-1.2c14.4,16.4,33.3,14.4,52.2,12.8c12.8-1.2,26.3-7,37.8,4.5c-2-2.9-4.1-5.4-7-7
	c-10.7-5.8-21.8-2.5-33.3-2c-8.6,0.4-16.9-0.4-25-0.9c2.5-4.5,4.9-6.1,7-8.6c6.1-7.4,12.8-11.9,22.6-7.4c2.5,1.2,6.1,0.4,10.7,0.4
	c-7-1.6-12.8-3.3-18.9-4.9c10.3-11.5,21.4-17.3,35.7-16c-5.4-0.9-10.7-0.4-15.6-0.9c-1.6-0.4-4.1-2-4.5-3.7
	c-0.9-1.6,0.4-4.1,0.9-6.5c-1.6,2-2,4.9-2.5,7.4c-0.4,2-0.4,5.4-1.6,6.5c-8.6,7-17.3,13.1-27.5,20.9c-0.4-6.1-0.9-11.5-1.2-15.6
	c-6.1,4.5-4.1-4.9-8.6-6.5c2,6.1,3.3,11.5,5.8,16.9c2.9,6.1-0.4,9.4-4.5,12.3c-4.5,3.3-7.8,0.4-10.7-3.3c-2.5-3.7-5.4-7.8-7-11.9
	c-6.5-15.6-12.3-31.7-18-47.2c4.1,1.2,9.9,2,14.4,4.9c4.1,2.5,7,7.8,10.3,11.9c0.9-1.6-0.4-2.5-0.9-3.7c-0.9-1.6-1.2-3.7-2-5.4
	c2,0,4.5-0.4,6.1,0.4c3.7,1.6,7.4,3.7,11.5,6.1c-1.6-3.3-3.3-5.8-4.5-8.3c6.5-1.2,12.3-2,20.5-3.7c-14.8-2.5-28.3,4.1-39.4-5.4
	c4.5-3.3,9.4-6.1,13.1-9.9c7.8-7.4,11.1-7.8,20.5-2.5c1.6,0.9,3.7,1.2,7,2c-2-2-3.3-3.3-4.1-4.1c0.4-0.9,0.4-1.2,0.4-1.6
	c7.4,0.9,14.8,1.6,22.2,2.5c0-0.4,0.4-0.4,0.4-0.9c-4.1-2-8.6-3.7-13.1-6.1c3.3-1.2,6.1-1.6,10.3-3.3c-11.9-1.6-22.6,7.8-34.1,0
	c4.1-5.4,7-10.3,10.7-14.4c4.1-4.5,8.6-8.6,13.1-12.3c-0.4-0.4-0.4-0.9-0.9-1.2c-5.8,3.7-11.5,7.4-16.9,10.3
	c-1.2-4.5-2.5-9-3.7-13.1c-1.2,0.4-2.5,0.4-4.1,0.4c8.3,5.8,3.7,11.9,1.6,17.3c-1.2,3.7-4.5,7-6.5,10.3
	c-11.5,19.3-38.2,20.5-54.6,14c-18.5-7.4-36.9-14.4-57.5-17.3c1.2-2.5,1.6-4.5,2.9-6.1c12.8-16,25.4-32.1,38.2-47.7
	c1.2-1.2,4.1-2,5.8-2c16,2.5,16,2.5,12.8,18c0,0.4,0,0.9,0,0.9c-4.5,12.8-1.2,27.2-9,39.8c2.5-3.3,4.9-6.5,7-9.9
	c1.2,3.7,2,7.8,3.3,11.9c1.2-16-4.1-32.8,8.6-49.7c2.5,7.8,4.1,13.5,6.5,19.3c2,5.4,6.5,9.9,8.6,15.2c2.5,6.5,8.3,3.3,13.5,7
	c-6.5-6.1-11.1-10.3-16-14.8c2-0.9,3.3-1.2,3.7-1.6c-2-2.5-4.9-4.9-6.1-7.8c-3.3-8.6-4.9-17.7-7.8-27.5c0.9-0.4,3.7-0.9,6.5-1.2
	c19.7-2,38.6-6.5,54.6-18.9c4.1-3.3,7.8-4.1,12.8-1.2c13.1,7.8,25.4,16,34.9,28.3c3.7,4.9,7.8,9.9,4.5,17.7
	c-3.3,7.4-4.5,16-4.9,24.3c-0.9,8.6,0.9,16.9,1.2,24.7c0.4-0.9,1.2-3.3,1.2-4.9c0.4-9.4-0.9-19.3,1.6-28.8c1.2-4.5,2-9.4,2.9-14
	c0.9,0,1.6,0.4,2.5,0.4c0.4,6.1,0.9,11.9,1.2,18c0.4,10.7,0.4,21.4,7,30.8c1.2,1.6,0.4,4.9,0,7.4c-2,11.1-4.5,21.8-7,32.8
	c0.9,0,1.6,0.4,2.5,0.4c1.2-4.5,2-9.4,3.3-14c0.4,0,0.9,0,1.2,0c0,7.8,0,15.6,0,23.8c0.4,0.4,0.9,0.4,1.2,0.4
	c1.6-4.9,2.9-9.9,4.5-15.2c1.6,1.2,2.5,2.5,3.7,3.3c-2-5.4-6.1-9.9-7-15.2c-0.9-5.3,1.2-11.1,2-17.7c8.6,5.4,16,9.9,23.4,14.4
	c3.7,2,6.5,4.9,9.9,7.4c1.2-2.5,1.2-2.5-19.3-17.3c0.4-1.2,1.2-2.5,2-4.1c-13.5,3.7-23.8-12.8-21.4-32.1c6.1,4.5,13.1,9.9,20.2,14.8
	c-3.7-6.1-8.6-10.3-13.1-15.2c-3.3-3.7-7-7.4-8.3-11.5c-3.3-10.7-4.9-21.8-7-32.1c4.9,2,11.5,4.9,17.7,7.4c2.5,0.9,6.5-0.4,8.6,1.2
	c6.1,4.9,12.3,10.7,17.3,16.9c2.9,3.7,3.7,9.4,5.4,14c-0.9,0-1.2,0.4-1.6,0.4c5.4,4.5,10.3,9.4,16,14.4c-4.5-7.4-8.6-13.5-12.8-20.2
	c0.9-0.9,0.9-0.9,1.6-1.6c9,6.1,16,15.6,28.8,16.9c-19.3-10.7-34.1-25-48.8-41.9c14.4-1.6,26.7-3.3,39.1-4.9
	c12.3-1.6,23.8-7.8,36.9-3.7c0-0.9,0-1.2,0-2c-4.1-0.9-8.6-1.2-12.8-1.6c-0.4-0.4-0.4-1.2-0.4-1.6c7-1.6,14.4-3.7,21.4-4.9
	c-19.3-4.1-34.1,16-54.2,9.9c7.4-2,14.4-3.7,21.4-5.8c-7.4,0-15.2,1.2-22.2,3.3c-7.4,2-14.4,5.8-21.8,7.4
	c-17.3,3.7-31.2-3.3-45.2-14.8c7-1.2,12.8-2,17.3-2.5c2-3.7,4.1-7.4,6.1-10.7c-8.6,8.6-24.3,13.5-32.1,8.6
	c-9.4-6.5-18.9-13.5-28.3-20.5c4.9-13.5,25-28.3,41.5-29.2c27.9-1.2,53,4.9,68.6,31.2c-0.9-2.9-1.6-5.8-3.3-9.4
	c11.1,2.5,20.9,4.5,31.2,7c-7.4-4.1-15.2-6.1-23-7.8c-8.6-1.6-15.6-4.9-22.2-13.5c9,2.5,16,4.5,23.8,6.5c12.8,3.3,23,10.3,32.8,18.5
	c6.1,4.9,13.1,9.4,21.4,9c-7.8-4.1-15.6-8.3-23.4-12.3c0.4-0.4,0.9-1.2,0.9-1.6c2.5,0.4,4.9,0.9,7.4,0.9
	c-12.3-6.5-23.8-12.3-35.3-18.5c9.4-4.1,18-5.4,25.9,4.5c3.7,4.5,11.1,6.1,16.9,9.4c7,3.7,13.5,7.4,19.7,11.1c0-3.7-2.5-7.4-7.4-9.4
	c-5.4-2-10.3-4.5-17.7-7.4c4.5-0.4,6.5-0.9,9-1.2c-10.3,0-19.3-2.5-25-14.8c5.8-0.9,10.7-1.6,15.6-2.5c9.9-7,20.5-5.8,30.8-0.4
	c-2-2-4.1-4.1-6.1-6.5c-4.9,0-10.3,0-15.6,0c-0.4-0.4-0.4-0.9-0.4-1.2c7.4-2.5,15.2-4.9,24.3-7.8c-7.4,0.9-14,0.4-18.9,2.5
	c-13.5,5.8-26.7,12.3-39.8,18.5c-0.9-0.9-1.2-1.6-1.6-2.5c7.8-7,16-13.5,24.3-20.5c-0.4-0.9-1.2-1.2-1.6-1.6
	c-4.9,7-13.5,8.6-18.9,15.2c-5.8,7.4-13.1,11.9-23.8,10.3c-25.9-3.7-49.7-16-78.5-12.3c5.8-4.9,9.4-9,13.5-12.3
	c15.2-11.9,29.2-11.9,45.6-1.2c6.5,4.1,14.4,7.4,21.4,10.7c0.4-0.4,0.4-0.9,0.4-1.2c-10.3-6.5-20.5-12.8-31.2-19.7
	c8.6-11.5,19.7-12.8,31.2-13.1c-4.5-1.2-9-1.6-13.1-0.9c-14,2.9-25.9,11.9-40.7,11.5c-0.4,0-1.2,0.4-1.6,0.4
	c-6.1,2.9-12.3,5.8-19.3,9c3.7-9.9,12.8-12.3,20.5-17.3c-4.5,0.9-8.6,2-12.3,4.5c-3.7,2-8.6,4.5-9.4,7.8
	c-4.9,14.4-17.7,22.2-27.5,32.1c-0.4,0.4-1.6,0-4.1-0.4c2-10.3,4.9-20.9,5.8-31.2c0.4-7.4,2.5-13.5,9.4-15.6
	c6.5-1.6,13.5-2,20.2-1.6c7,0.4,14.4,2.5,21.4,3.7c-8.3-3.3-16.4-6.1-25-6.5c-8.3-0.4-16.9,2.5-25.4,3.7c-1.2-3.3-2.5-8.6-4.1-12.8
	c-1.6,0-3.3,0-4.5,0c7,17.7,7,21.4-0.4,33.7c-7-4.1-14.4-7.8-21.4-11.5c-0.4,0.9-0.9,1.2-1.2,1.6c4.9,3.7,10.3,7,15.6,10.3
	c4.1,2.5,6.1,4.9,4.5,10.3c-2,7.4-2.5,15.2-3.7,23c-0.4,2.5-0.4,5.4-1.6,7.4c-9,12.8-20.9,20.5-36.2,24.3
	c-6.5,1.6-12.8,2.5-18.5,3.7c6.5-8.6,13.5-15.2,17.7-23.8c3.7-7,6.5-12.8,14.4-15.2c-3.7,0.9-7.4,1.6-11.9,2.5
	c1.2-4.5,3.3-9,3.3-13.1c0.4-4.5-1.2-8.6-2-15.2c-2,36.9-6.1,48.5-18,52.2c2-2.5,4.1-4.5,7-7.4c-2,0.4-3.7,0.9-4.5,0.9
	c-0.4-2.5-0.9-4.5-0.9-4.9c-3.3,4.9-7,11.1-10.3,17.3c-4.5,9-11.5,7-19.3,6.1c-7-0.4-9-1.6-7-9c3.3-10.3,5.4-20.9,6.1-32.1
	c1.2-11.5,0-23,0.4-34.5c0.4-11.9,3.7-22.6,15.2-28.8c15.2-8.3,30.8-16,46.4-24.3c1.6-0.9,4.1-0.9,5.8,0c9.4,4.1,18,9,27.5,13.1
	c11.9,5.4,23,11.9,36.9,8.6c4.1-1.2,9.4,0,14,1.2c13.5,3.3,27.2,6.1,40.7-1.2c3.3-1.6,8.3-0.4,12.3-0.4c-0.9-1.2-1.6-2.5-2.5-3.7
	c14-4.1,25.4,1.6,37.8,5.8c1.6-1.6,3.3-4.1,6.1-4.9c3.3-1.6,7-2,10.3-3.3c-10.7,3.7-21.8,2-32.4-0.4c-10.3-2.5-20.2-1.6-30,2
	c-7,2.9-14.8,4.5-22.6,6.5c-0.4-0.9-0.4-1.2-0.9-1.6c4.9-2.9,10.3-6.1,15.6-9c-3.3-0.4-5.8,0.4-7.4,1.6c-8.6,5.8-17.7,6.1-27.2,3.7
	c-4.1-1.2-8.3-1.2-12.3-1.6c-7.4-0.4-14.4-0.9-21.8-1.2c9-8.3,18.9-7,29.2-5.4c-3.3-1.2-6.5-2.5-9.4-4.1c0-0.9,0-1.2,0-2
	c19.7,0,39.1,0,58.7,0c0-0.9,0.4-1.6,0.4-2.5c-2.5-0.9-5.4-1.2-8.6-1.6c1.6-2,2.9-3.3,4.1-4.9c-11.1,9-23.8,5.4-36.2,5.8
	c2.5-4.9,4.9-9.4,6.1-11.9c-4.5,3.3-9.9,8.6-16,11.1c-7.8,3.7-16,5.8-24.7,7.4c-6.1,0.9-13.1,1.2-18.9-0.9
	c-8.3-2.9-15.2-8.6-22.6-12.8c6.5-8.6,13.1-17.3,19.7-25.9c4.5-6.1,7.8-9.4,17.7-6.5c11.5,3.7,24.7,2.5,36.9,2
	c13.5-0.9,23.4,5.8,32.4,14.4c2.5,2.5,3.3,6.5,4.9,10.3c0.4-0.4,1.2-1.6,1.6-2.5c8.3,6.5,15.2,15.6,29.6,17.7
	c-5.4-2.5-9-4.5-12.3-6.1c0.4-0.9,0.9-2,1.2-2.9c6.5,2.5,12.8,4.9,18.9,7.8c-4.1-3.7-8.6-7-13.5-7.8c-10.3-1.2-18.5-4.9-23.4-14
	C329.4,304.6,335.2,305.4,340.6,305z"/>
</svg>
