<?xml version="1.0" encoding="utf-8"?>
<!-- Generator: Adobe Illustrator 17.1.0, SVG Export Plug-In . SVG Version: 6.00 Build 0)  -->
<!DOCTYPE svg PUBLIC "-//W3C//DTD SVG 1.1//EN" "http://www.w3.org/Graphics/SVG/1.1/DTD/svg11.dtd">
<svg version="1.1" id="Layer_1" xmlns="http://www.w3.org/2000/svg" xmlns:xlink="http://www.w3.org/1999/xlink" x="0px" y="0px"
	 viewBox="0 0 178 1466" enable-background="new 0 0 178 1466" xml:space="preserve">
<path fill="#FFFFFF" d="M31-0.3c0.7,0.9,1.5,1.7,1.9,2.7c0.4,1,1,2.3,0.6,3.2c-2.6,6.9-5.4,13.7-8.2,20.5c7.5-4.6,8.2-12.5,10-20.2
	c1.3,0.4,2.3,0.7,3.6,1.1c1.3-1.8,2.5-3.7,3.9-5.4c0.4-0.5,1.2-0.8,1.9-1.2c0.3,0.7,1,1.6,0.8,2.1c-0.9,2.5-1,5.1-4,7
	c-2.4,1.5-3.6,5-5.3,7.6c-0.2,0.3,0,0.7,0,1.1c-0.6,5-0.6,4.9,4.3,6.7c0.5,0.2,0.7,1.3,1,2c-2.2,0-3.7,3.1-6.3,1
	c-3.5-2.9-4.1-2.8-6.2,1.2c-1.4,2.7-2.3,5.4-1.2,8.8c1.3,4,1.5,8.4,2,12.6c0.7,6.1,4.1,10.5,8.9,15.3c0-3.7,0-6.4,0-9.1
	c0-0.2-0.2-0.6-0.1-0.7c2.9-3.9-0.9-6.6-1.5-9.9c-0.6-3-0.5-6.1-0.5-9.2c0-0.4,0.9-0.8,1.4-1.2c0.4,0.5,1,1,1.1,1.6
	c0.3,2,0.3,4,0.5,6c0.8-0.8,1.3-1.4,1.8-1.9c0.5,0.8,1.4,1.7,1.3,2.4c-0.4,5.8,2,11.4,0.4,17.5c-1.1,4,0.6,8.9,1.6,13.2
	c1.6,7.2,3.7,14.4,5.6,21.6c6.8-1,11.6-8.1,12.9-15.6c1.1-6.1-1.3-11-4.6-15.6c-5.2-7.3-4.8-14.9-2.6-22.9c1.1-3.8,2.7-7.3,1.8-11.9
	c-0.6-3-0.3-6.2-2.2-9c-0.3-0.4,0.2-1.4,0.4-2.1c0.8,0.2,2.2,0.2,2.4,0.7c1.4,3.1,2.8,6.2,3.7,9.4c0.5,1.9,0.1,4,0.1,6.1
	c4.8-1,6.6-3.2,4.8-7.2c-1.8-4-4.6-7.6-7-11.4c-0.4-0.6-0.7-1.3-1.1-2c0.8-0.2,1.9-0.9,2.5-0.6c1.7,0.9,3.3,2.2,5,3.4
	c2.5-2.4,3-5.1,0.9-8.4c-0.4-0.7,0.2-2,0.3-3c0.8,0.5,1.8,0.9,2.5,1.6c0.6,0.7,1.2,1.7,1.3,2.5c0.1,2.8,0.5,5,4.2,4.6
	c0.3,0,0.7,1.2,1,1.9c-0.9,0.4-1.9,1.3-2.5,1.1c-2.9-1.1-4.2,0.6-4.7,2.8c-0.3,1.1,0.6,2.5,0.9,3.8c1.1-0.3,2.6-0.3,3.1-1
	c1.4-1.8,2.3-3,4.7-1c1.2,1,3.8,0,5.6,0.4c1,0.2,1.9,1.4,2.8,2.1c-1,0.4-2,0.9-3.1,1.1c-4.1,0.7-8.3,1.4-12.3,2.9
	c4.8,0.3,9.7,0.7,14.5,1c-0.4,4.9-1.4,5.3-7.2,2.9c0.1,0.6,0.3,1,0.2,1.4c-0.3,1.5-0.6,3.1-0.9,4.6c-0.8-1.1-1.5-2.3-2.4-3.3
	c-0.8-0.9-2.3-2.4-2.7-2.2c-1.3,0.7-2.4,2-3.4,3.2c-0.3,0.4-0.1,1.3-0.1,1.9c-0.4,0.3-0.6,0.5-0.9,0.5c-2.7,0.8-7,0.9-7.7,2.5
	c-1.7,4-2.9,8.9-2.1,13c0.8,4.4,4.1,8.4,6.4,12.9c2.6-4.7,4.9-8.7,7-12.7c0.6-1.1,0.7-2.5,1.2-3.7c0.3-0.8,0.8-1.5,1.2-2.3
	c0.5,0.8,1.1,1.5,1.5,2.4c0.2,0.5,0.1,1.1,1,2.1c1.4-2.2,2.8-4.4,4.3-6.6c0.6-0.8,1.6-1.4,2.4-2.1c0.3,1.1,0.8,2.1,0.7,3.2
	c-0.2,1.9-0.7,3.8-1,5c-4.2,3.3-8.1,6.3-12.5,9.7c2.1,0.3,3.1,0.4,4,0.5c-0.3,0.9-0.4,2.4-1.1,2.7c-6.2,3.3-5.1,9.3-5.8,14.7
	c-0.3,1.9-0.6,3.8-0.9,5.6c-0.1,0.6-0.7,1.3-0.5,1.7c0.9,1.7,2,3.2,3.1,4.8c1-1.1,2-2.2,3.4-3.7c2.4,0.1,2.8,1.4,1.4,6
	c0.3,0.2,0.5,0.4,0.8,0.7c1.9-2.3,4.5-4.3,5.7-6.9c1.8-3.8,4.6-4.1,7.9-3.8c0.7,0.1,1.3,0.7,2,1.1c-0.5,0.6-0.9,1.2-1.5,1.6
	c-1.7,1-3.4,2-5.4,3c5.3,6.2-2.6,2.9-3,5.6c2.5-0.3,5-0.8,7.4-0.9c2.7-0.1,5.4,0.1,8.1,0.5c0.6,0.1,1.1,1.3,1.6,2
	c-0.5,0.4-1,1.1-1.6,1.1c-6,0.3-12,0.6-18,0.8c-5.7,0.3-10.6-1.3-13.6-5.2c-4.9,2.8-9.5,5.4-14,8.1c-0.7,0.4-1.4,1.3-1.6,2
	c-1.5,6.7-4.3,12.7-8.4,18.3c-2.8,3.9-3.3,8.6-1.6,13.3c2.3,6.2,4.6,12.5,6.6,18c3.2-2.4,6.7-5.3,10.6-7.7c2.7-1.7,3.3-3.4,2.4-6.5
	c-1.2-3.8-1.4-7.9-2.3-11.8c-0.8-3.1-1.9-6.1-3.2-9c-0.3-0.7-1.9-0.9-2.9-1.2c-0.8-0.3-1.6-0.5-2.3-0.7c0.6-0.8,1.3-2.2,1.8-2.2
	c3.4,0.4,4-1.6,4.2-4.2c0-0.3,0.1-0.8,0.4-1c1.1-1.1,2.2-2.2,3.4-3.4c-0.1,1.4,0.3,3-0.2,4.2c-1.5,3.8-0.6,7.1,0.9,10.6
	c6.3-4.5,6.5-12.1,9.3-17.9c1.9-0.4,3.6-0.9,5.3-1.2c0.8-0.1,1.6,0.2,2.4,0.3c-0.2,0.8-0.1,1.9-0.6,2.5c-1.3,1.4-2.9,2.5-4.3,3.8
	c-0.9,0.9-1.6,2-2.4,2.9c0.2,0.3,0.4,0.5,0.6,0.8c3.1-2,6.2-4,9.3-6.1c0.2-0.1,0.4-0.5,0.5-0.4c4.2,1.3,6-2.2,8.6-4.2
	c0.4-0.3,1.5-0.3,1.9,0c0.4,0.3,0.5,1.5,0.2,1.9c-1.9,2.3-4,4.5-6,6.7c2.3-1.1,4.9-2.5,7.6-3.6c1.1-0.4,2.3-0.4,3.5-0.6
	c-0.5,1.1-0.9,2.3-1.5,3.2c-1,1.4-2.3,2.7-3.7,4.3c-7.2,0.6-15.8-2.1-22.1,5.1c-2.9,3.3-6,6.6-5.2,12.4c1.7-0.8,3-1.6,4.4-2.1
	c1.1-0.4,2.4-0.5,3.5-0.8c-0.5,1.2-0.7,2.7-1.5,3.5c-1.4,1.4-3.3,2.3-5.1,3.6c0.6,2,1.2,4.2,2.1,7.2c4.8-2.6,9.6-4.7,13.7-7.7
	c7.9-5.9,12.5-14.5,17.6-22.7c3.6-5.7,5.1-11.8,4.7-18.3c-0.1-2.2-1.5-4.9-3.1-6.3c-5.4-4.6-11.3-8.7-16.9-13.2
	c-1-0.8-1.7-2.3-1.9-3.5c-0.1-0.4,1.5-1.2,2.6-2c-0.7-1.6-1.4-3.3-2.1-5c-0.3-0.8-0.6-1.7-0.8-2.5c1.1,0.2,2.3,0.1,3.2,0.6
	c1.6,1,2.9,2.3,3.6,2.8c0.7,3.5,0.4,7,2,8.9c2.9,3.5,7,6.1,10.6,9c0.3-0.3,0.6-0.7,0.9-1c-1.8-2.3-3.5-4.6-5.4-6.8
	c-2.2-2.7-3.5-5.6-3.3-9.2c0.1-1.5-0.3-3.1-0.8-4.5c-0.7-2.1-2.2-3.9,0-6.1c0.5-0.5-0.5-2.4-0.7-3.7c-0.2-1-0.1-2-0.2-3
	c0.8,0.1,1.7,0.4,2.5,0.4c1.1,0,2.2-0.2,3.3-0.1c0.7,0,1.4,0.3,1.9,0.7c0.2,0.2,0.1,1.4-0.2,1.5c-3.9,2-3,5.6-3,8.9
	c0,2.4-1.2,5.4,2.4,6.7c0.3,0.1,0.5,1.1,0.4,1.6c-0.4,3.9,1.9,6.2,4.8,8.6c3.1-2.5,5.6-5,4.1-9.6c-0.9-2.6-1.5-5.4-1.8-8.2
	c-0.1-1,1-2.2,1.6-3.5c0.5-1.2,1-2.5,1.5-3.8c0.9,1.1,1.8,2.2,3,3.6c-0.2-2.7-0.5-5.7-0.7-8.6c-0.1-0.9,0.1-1.9,0.2-2.8
	c0.9,0.4,1.9,0.6,2.6,1.1c1.3,1,2.4,2.2,3.7,3.4c-1.4,3.7-3,7.9-4.8,12.7c4.4-0.6,5.1-3.7,6.6-5.9c1-1.6,1.4-3.7,2.7-5
	c1.3-1.3,3.2-2.1,5-2.9c0.3-0.2,1.1,0.6,1.7,0.9c-0.3,0.5-0.6,1.2-1,1.6c-1.7,1.8-3.5,3.6-4.7,5c1.2,2.3,2,3.8,2.8,5.2
	c-1.4,0.1-2.8,0.2-3.1,0.2c-3.6,1.6-6.5,2.8-9.4,4.3c-0.7,0.4-1.4,1.5-1.6,2.4c-0.3,1.4-0.1,2.8-0.1,3.9c3.6-0.6,7.8-0.2,10.2-2.1
	c2.9-2.2,4.4-6.3,6.5-9.6c0.2-0.4,0.2-0.9,0.9-0.7c2.3-1.5,4.6-3,6.8-4.5c1.9-1.3,3.6-2.7,5.5-3.9c0.5-0.3,1.5,0.1,2.2,0.1
	c-0.1,0.7,0,1.5-0.3,1.9c-1.5,1.8-2.9,3.7-4.8,5c-6.3,4.3-10.6,10.3-14,16.9c1.1-1.8,2-3.8,3.4-5.3c0.9-0.9,2.5-1.1,3.9-1.5
	c-0.4,1.2-0.8,2.4-1.2,3.6c-0.1,0.3-0.4,0.6-0.8,1.1c1.4,0,2.6-0.1,3.7,0c0.8,0.1,1.5,0.7,2.3,1.1c-0.6,0.5-1.2,1.2-1.9,1.6
	c-3.4,1.6-7,2.9-10.3,4.8c-4.8,2.8-4.7,2.9-7.8,10.8c4.8-1.9,9.1-3.2,13-5.4c2-1.1,3.2-3.7,4.8-5.5c0.8-0.9,1.9-1.4,2.8-2.2
	c0.1,1.2,0.2,2.3,0.2,3.5c0,0.4-0.3,0.9-0.5,1.6c0.6,0.2,1.2,0.2,1.6,0.5c0.6,0.4,1,1,1.6,1.5c-0.7,0.4-1.3,0.9-2,1.1
	c-1.7,0.4-3.4,0.7-5.1,1c0.1,0.3,0.1,0.6,0.2,0.9c2.1,0.6,4.2,1.6,6.4,1.5c1.8,0,4.3-0.8,5.2-2.1c2.8-4.2,5.9-8.3,5.3-13.9
	c-0.1-0.4,0.7-1.4,0.8-1.3c1.1,0.4,2.1,1,3.4,1.7c0.3-0.3,0.9-1.1,1.6-1.3c1.4-0.5,2.8-0.6,4.2-0.9c-0.5,1.6-0.7,4.4-1.5,4.6
	c-4.9,1-5.5,5.5-7.6,8.8c-1.6,2.5-3.4,4.9-5.1,7.3c2.4,2.6,6.1,2.6,10.8,0c2.7-1.5,5.1-3.9,7.9-4.5c2.4-0.6,5.2,0.8,7.9,1.3
	c-0.4,0.7-0.6,1.8-1.2,1.9c-1,0.3-2.1,0.1-3.4,0.1c2,1.5,3.9,2.6,5.3,4.3c0.7,0.9,0.3,2.7,0.5,4.1c-1-0.6-2-1.3-2.9-1.9
	c-0.3-0.2-0.6-0.4-1.1-0.8c-0.6,1.5-1.1,2.9-1.6,4.3c-4.5-1.6-8.9-3.3-13.3-4.9c-0.3,0.4-0.6,0.8-1,1.2c4.1,0.8,2,3.7,2.6,5.7
	c-0.9,0.1-2.4,0.5-2.8,0.1c-4.5-5.1-10.4-8-16.6-10.2c-8.5-3-16.2-0.3-23.1,5c-0.6,0.4-1.1,1-1.4,1.7c-3.3,7-6.7,14-10.3,21.6
	c2.8,0.7,5.4,1.6,8,1.8c4.7,0.3,9.3,0.2,14,0.2c0.9,0,1.9-0.4,2.6-0.9c2.5-2.3,4.9-4.8,7.4-7.2c2.7-2.8,2.8-4.3,0.5-7.4
	c-0.5-0.7-1.1-1.7-1.1-2.5c0.1-1.4,0.7-2.8,1-4.2c0.8,0.9,1.7,1.9,2.7,3c0.2-0.2,0.7-0.8,1.2-1c0.7-0.3,1.5-0.2,2.2-0.3
	c0.1,0.8,0.4,1.6,0.2,2.4c-0.2,0.9-0.9,1.7-1.1,2.6c-0.2,0.9,0,1.9,0,3.2c5-0.8,10-1.6,14.9-2.5c0.7-0.1,1.6-0.5,2-0.2
	c3.5,2.6,6.7,0.9,9.6-0.8c2.8-1.6,5.3-3.8,7.9-5.7c0.3-0.2,0.4-0.6,0.7-0.8c0.7-0.5,1.5-0.8,2.2-1.2c0.2,0.9,0.7,1.8,0.5,2.6
	c-0.8,3.1-2.3,5.9-6.1,7c4.5-0.6,7.6,1.5,10.4,4.1c0,0.7,0,1.4,0,2.2c-0.7,0-1.5,0.2-2.1-0.1c-4.5-2.6-9.3-2.8-14.2-2.5
	c-4.5,0.2-9.1,1-13.5,0.5c-3.3-0.4-6.2-0.3-8.9,1.3c-3.6,2.3-7.1,4.7-10.3,7.5c-2.9,2.5-2.6,3.5,0.5,5.8c5.9,4.3,12,5.9,19.1,2.8
	c3.8-1.7,5.2-3.2,4.5-7.1c-0.2-1-0.1-2,0.2-3c0.1-0.2,1.7-0.5,1.9-0.2c0.7,1,1.3,2.2,1.5,3.4c0.1,1.2-0.4,2.4-0.6,3.6
	c0.3,0.3,0.5,0.6,0.8,0.9c2.9-1.3,5.9-2.8,8.9-3.9c0.9-0.3,2.1,0.1,3.1,0.2c-0.4,2.5,2,1.7,3.1,2.5c0.7,0.6,1.3,1.3,1.9,2
	c-0.8,0.3-1.8,1.1-2.4,0.9c-8.1-2.3-14.6,2.6-22,5.1c2.1,1.4,4.2,2.7,6.5,2.9c4.6,0.4,9.2,0.1,13.8,0.1c3.4,0,7.4-0.9,7.7,4.6
	c0,0.3,0.5,0.5,0.7,0.8c0,1,0,1.9,0,2.9c-0.8-0.1-1.9,0.1-2.3-0.4c-3.9-4.3-9.3-3.7-14.3-4.4c-0.6-0.1-1.3-0.2-1.8,0.1
	c-5.6,2.8-9.6-0.7-13.1-4c-2.9-2.7-6-1.5-9.1-1.8c1,3.8,4.3,3.1,6.5,3.3c5,0.6,8.1,3.3,9.8,7.7c1.2,3.1,2.9,3.1,5.6,2.1
	c1.6-0.6,3.4-0.4,5.1-0.6c-1.5,1.3-2.9,2.7-4.4,3.9c-0.4,0.3-1.1,0.2-1.8,0.3c2.8,2.9,5.2,6.1,9.8,5.1c0.4-0.1,1,0.8,1.5,1.2
	c-0.5,0.5-0.8,1.1-1.4,1.3c-0.8,0.3-1.8,0.2-2.7,0.3c-0.1,0.4-0.2,0.7-0.3,1.1c2.3,1,4.6,2,6.8,3c0.8,0.4,1.3,1.1,2,1.7
	c-0.9,0.4-1.8,1.2-2.6,1.2c-5-0.4-8.5-3.3-11.2-7.3c-4.5-6.7-11.3-8-19.1-8.6c0.7,1.4,1.2,2.2,1.4,3.1c0.1,0.9-0.2,1.8-0.3,2.7
	c-0.9-0.4-2.1-0.6-2.5-1.3c-1.2-1.9-2.5-3.4-4.9-2.2c-6.5,3.3-13.2,2.3-19.8,0.5c-1.5-0.4-3.2-0.8-4.6-0.4c-6.7,1.9-12.4-1-18.1-3.6
	c-1.7-0.8-3.4-1.7-5-2.7c-4.8-2.9-9.3-4.4-14.6-0.3c-3.9,3-8.8,4.7-13.3,6.9c-6,2.9-8,8-8.3,14.3c-0.4,8.6-0.9,17.1-1.5,25.7
	c-0.1,1.7-0.9,3.4-1.4,5c6.5,2.6,12.6-1,13.3-7.6c0.1-1,0.5-1.9,0.7-2.9c0.9,0.5,1.8,1,2.6,1.5c2,1.3,2.8-0.4,3-1.6
	c0.8-5.1,1.3-10.3,1.9-15.4c0.1-1.1,0.3-2.1,0.5-3.2c0.8,0.8,1.7,1.6,2.5,2.5c3.1,3.1,0.8,6.4,0,9.4c1.9,0.8,3.4,1.5,5,2.1
	c-1.3,0.8-2.7,1.5-4,2.4c-0.8,0.6-1.7,1.4-2.2,2.3c-1.9,3.6-3.7,7.2-5.3,10.3c6.5-1.2,13.4-3.9,18-10.5c0.8-1.1,1.4-2.4,1.6-3.8
	c0.6-3.4,1.1-6.8,1.3-10.2c0-1.2-1-2.7-1.9-3.5c-1.7-1.6-3.9-2.7-5.6-4.3c-0.6-0.5-0.3-1.9-0.5-2.9c0.8,0.1,1.8-0.1,2.5,0.2
	c2.5,1.2,5,2.5,7.5,3.8c1.9-3.5,2.7-7,0.2-10.7c-0.8-1.2-1.2-2.7-1.7-4.1c1.6-0.2,3.1-0.5,4.6-0.7c0.8,2.5,1.6,4.6,2.3,6.8
	c5.3-2.4,10.2-2,15.3-0.5c2.2,0.6,4.6,0.2,7,0.4c0.6,0,1.6,0.3,1.7,0.7c0.2,0.5-0.1,1.5-0.5,1.8c-1.6,1.3-3.4,2.5-4.2,3
	c1.6-0.2,4.2-0.3,6.9-0.8c1.5-0.3,2.9-1,4.2-1.6c4.5-2.2,9.1-4.5,14.3-2.7c1,0.4,1.7,1.6,2.5,2.4c-1,0.2-2,0.6-3,0.5
	c-4.2-0.4-7.7,0.8-11.7,4c4,2.5,7.7,4.7,11.3,7c1,0.6,1.7,1.6,2.6,2.4c-1.3,0.2-2.7,0.9-3.8,0.5c-2.9-1.1-5.8-2.3-8.3-4
	c-7.8-5-13.2-4.7-20,1.5c-0.6,0.6-1.3,1.1-1.6,1.3c10.6,2.2,21.2,4.6,31.8,6.7c5.6,1.1,8-3.7,11.3-6.6c0.8-0.7,1.7-1.2,2.5-1.9
	c1.5-1.3,2.9-2.6,4.4-3.9c0.7-0.6,1.6-1.1,2.3-1.7c0.2,1.1,1,2.6,0.5,3.2c-1.6,2.2-3.7,4.2-5.6,6.1c-0.5,0.5-1.3,0.7-1.9,1
	c0.4,0.5,0.7,1,1.1,1.5c3.8-2.1,7.5-4.7,11.6-6.2c2.8-1,6.3-0.5,9.4-0.5c0.2,0,0.8,0.9,0.7,1.1c-0.3,0.5-0.8,1.2-1.4,1.3
	c-1.9,0.5-3.9,0.8-5.8,1.4c2.4-0.4,7.1,2.2,7.8,4.5c0.2,0.5,0.1,1.3-0.2,1.6c-0.3,0.3-1.1,0.4-1.6,0.2c-1.1-0.4-2.1-1-3.2-1.5
	c-4.2-2.2-4.5-2.2-8.7-0.9c-0.1,1.1-0.3,2.1-0.4,3.2c-1-0.3-1.9-0.8-2.9-1c-1.3-0.3-2.6-0.4-4.5-0.6c2.7,4.8,6.3,5.9,10.1,4.1
	c1.1-0.5,2.4-0.4,3.6-0.6c-0.8,1.1-1.6,2.2-2.4,3.3c-0.2,0.3-0.5,0.5-1.2,1c1.6,0.7,3.1,1.1,4.4,1.8c1,0.6,2.2,1.5,2.4,2.5
	c0.3,1.4-0.2,3-0.4,4.5c-1-0.8-2.1-1.5-3.1-2.3c-0.1,0.1-0.1,0.3-0.2,0.4c-1.2-0.5-2.4-0.9-3.5-1.7c-1.3-0.9-2.4-2.1-3.6-3.2
	c-2.8-1.6-5.7-3.2-8.5-4.8c-1.7-0.9-3.5-1.7-5.2-2.6c-0.3,0.6-0.5,1.1-0.8,1.7c4.9,1.9,9.7,3.8,14.6,5.7c0.1,1.3,0.2,2.5,0.4,4.1
	c1.4,0.5,3.1,1,4.7,1.6c0.6,0.3,1.1,1,1.7,1.5c-0.6,0.4-1.4,1.3-1.9,1.1c-2.8-0.7-6.1-1-8.3-2.6c-4.2-3.1-9.1-2.9-13.6-4.5
	c-2.4-0.8-5.1-2-5,2.5c0,0.3-0.9,0.9-1.3,0.8c-0.4-0.1-0.9-0.6-1.2-1.1c-7-14.4-29.7-17.5-39.2-9.5c-2.5,2.1-4.9,4.5-7.6,7.1
	c4.6,3.3,8.7,6.7,13.1,9.4c2.9,1.8,8.1-0.1,10.8-2.9c0.7-0.7,1.8-1,2.7-1.4c0.1,1.1,0.5,2.4,0.1,3.4c-0.9,2.4-1.9,4.9-5.4,4.1
	c-0.6-0.1-1.3,0.5-2,0.7c7.1,6.3,15.4,6.3,24.1,2.2c1.6-0.7,3.4-0.9,5-1.5c2.9-1,5.9-1.7,8.4-3.3c2.4-1.5,3.1-0.7,3.7,1.3
	c3.3-0.3,6.5-0.7,9.7-0.7c0.9,0,1.9,1.3,2.8,2c-0.9,0.3-1.9,0.7-2.8,0.7c-1.4,0.1-2.8,0-4.1,0c0.7,1.4,1.2,2.4,1.7,3.4
	c-1,0.1-1.9,0.4-2.9,0.4c-1.8,0-3.6-0.6-5.3-0.3c-7.9,1.3-15.8,2.8-24.6,4.4c5.1,3.8,7.5,9.8,13.9,11.1c0.7,0.1,1.3,0.9,1.9,1.5
	c1,1,2.1,2,3.1,3.1c0.6,0.7,1.3,1.3,1.9,2c-1,0.3-2.1,1.1-2.8,0.8c-3-1.2-5.9-2.8-9.1-4c1.1,0.8,2.2,1.6,3.2,2.5
	c0.6,0.6,1.1,1.4,1.6,2.1c-0.9,0.3-2.1,1.2-2.7,0.9c-1.8-0.9-3.5-2.3-5.1-3.6c-1.5-1.3-3.6-2.3-2.2-5.2c0.4-0.8-0.9-2.7-1.8-3.6
	c-2.4-2.5-4.7-5.2-7.6-7c-2.4-1.5-5.6-1.7-8.5-2.5c0.7,3.9,1.3,7.8,2.1,11.7c0.2,1.1,0.9,2.3,1.7,3c2.8,2.5,5.7,4.8,8.5,7.3
	c0.5,0.5,0.7,1.3,1.1,1.9c-0.8,0.2-1.9,0.9-2.5,0.6c-2.9-1.4-5.6-3-8.4-4.5c-0.6,3.1,2.4,9.3,5.2,10.2c0.7,0.2,1.8-0.4,2.6-0.5
	c1-0.1,2,0.1,2.9,0.2c-0.3,0.9-0.5,1.8-1,3.3c2,1.3,4.3,3.1,6.8,4.2c3.3,1.5,2,4.1,2.2,6.5c-0.8,0-2,0.5-2.4,0.1
	c-4.6-3.8-9-7.7-13.8-11.9c-1.5,4.6-2.6,8.1,1.6,10.7c0.4,0.2,0.6,1.5,0.3,2c-1.3,2.4-2.8,4.8-4.4,7.1c-0.2,0.3-1.9,0.1-1.9-0.1
	c-0.3-1.1-0.2-2.2-0.3-3.6c-2.8-0.1-2.7-1.6-2-4.2c1.3-4.4,2-8.9,2.9-13.4c0.1-0.4,0.1-1-0.2-1.4c-3.8-5.2-3.2-11.3-3.3-17.2
	c0-0.4-0.1-0.8-0.8-1.3c-0.3,4.8-0.4,9.6-0.9,14.4c-0.2,1.9-1,3.9-1.8,5.7c-0.3,0.6-1.5,0.7-2.4,1c-0.2-0.8-0.8-1.8-0.5-2.2
	c3.5-4.9,1.3-10.2,1.1-15.2c-1.1-0.5-2.2-0.9-3.3-1.3c0.7-1.1,1.3-2.2,2-3.2c0.3-0.4,0.7-0.7,1-1c4.3-5.8,4.7-5.4-0.1-10.8
	c-3.9-4.3-8.8-7.6-13.3-11.2c-2-1.6-3.8-1.4-6,0.3c-6.8,5.3-14.9,7.2-23.2,8.2c-1,0.1-2.1,0.1-2.8,0.1c1,3.8,1.9,7.5,2.9,11.2
	c0.1,0.5,0.7,1,1.1,1.4c0.4,0.4,1.1,0.6,1.4,1.1c1.5,3.1,3.1,6.2,6.4,7.8c-0.6,0.6-1.3,1.8-1.9,1.8c-1.9,0-3.7-0.5-6.1-0.8
	c-2.2-4.9-4.5-10.2-7-16c-1.4,4.9-3.1,8.7-0.5,13.5c1,1.8-0.4,5.7,0.5,8.7c-0.8,0-2,0.4-2.4,0c-1.1-1.2-1.9-2.7-2.8-4.1
	c-0.6,0.3-1.4,1-2.2,1.2c-0.6,0.1-1.4-0.2-1.9-0.6c-0.3-0.2-0.2-1.3,0.1-1.6c3.7-3.9,2.5-9.2,3.9-13.8c0.5-1.6,0.5-3.3,1.1-4.8
	c0.7-1.7,1.5-3.5-0.8-4c-2-0.5-5.2-0.8-6.2,0.3c-6,6.8-11.4,14-17.5,21.6c2.9,0.7,5.4,1.1,7.8,1.9c4.5,1.4,9.2,2.5,13.4,4.6
	c6.6,3.4,13.1,3.6,19.7,1.1c5.9-2.3,9.5-7,10.7-13.2c0.1-0.6-0.2-1.3-0.2-2c0-1.1,0-2.1,0-3.2c1.1,0.6,2.3,1,3.2,1.7
	c0.6,0.5,0.8,1.4,1.2,2.3c1.4-0.8,2.8-1.7,4.3-2.2c0.9-0.3,2.1,0.1,3.1,0.2c-0.5,0.9-0.8,1.9-1.4,2.6c-2.8,3.1-5.8,6.1-8.7,9.1
	c0.3,0.5,0.6,0.9,0.8,1.4c2.3-0.4,4.5-0.8,6.8-1.1c1.8-0.2,3.5-0.6,5.3-0.4c0.6,0.1,1.1,1.4,1.7,2.2c-0.3,0.2-0.6,0.4-0.9,0.7
	c0.2,0.2,0.5,0.4,0.7,0.7c1,1.3,1.9,2.7,2.9,4.1c-1.4-0.3-2.9-0.6-4.3-1c-2.1-0.5-4.2-2.5-6.3,0.6c-0.4,0.6-3.1,0.3-4.2-0.4
	c-3-2-5.2-1.5-7.5,1.1c-1.1,1.3-2.7,2.3-4.3,3.8c2.6,1,4.9,2.6,7.2-0.4c0.2-0.3,1.2-0.6,1.2-0.5c2,3,4.9,0.5,7.2,1.1
	c-0.4,1.1-0.6,2.7-1.4,3.1c-1.7,0.9-3.8,1.1-6.1,1.8c-0.6,0.8,2.6,4.1-1.3,3.6c-1.7-0.2-3.1-1.8-4.5-2.6c-0.2,1.5-0.4,2.8-0.6,4
	c-1.2-0.7-2.6-1.4-3.7-2.3c-1.9-1.6-3.5-3.3-5.7-4.4c2.2,6.2,4.3,12.3,6.6,18.4c0.8,2.1,2.2,4,3.6,5.7c0.5,0.6,2.3,0.8,3.1,0.4
	c0.8-0.4,1.4-2,1.2-2.9c-0.4-2.2-1.5-4.3-1.9-6.5c-0.2-1.1,0.5-2.4,0.8-3.6c0.7,0.6,1.3,1.3,2,1.9c0.3,0.3,0.7,0.8,1.1,0.8
	c2.7,0,2.5,1.5,1.8,3.4c-0.3,0.7-0.1,1.6-0.2,3.2c2.8-2.3,4.9-4.3,7.3-5.9c2.5-1.8,5.3-3.3,4.5-7.2c-0.1-0.5,1.3-1.3,2.1-1.9
	c0.4,0.8,0.9,1.5,1.1,2.3c0.1,0.6-0.1,1.3-0.3,2.6c2.2,0,4,0,5.9,0c1.1,0,2.3-0.1,3.2,0.3c0.8,0.4,1.3,1.4,1.9,2.1
	c-0.9,0.3-1.9,0.9-2.7,0.7c-5.6-0.9-9.8,0.5-14,5.7c2.5,0,4.4-0.1,6.2,0c0.8,0,1.7,0.4,2.5,0.7c-0.6,0.8-1,2.1-1.7,2.2
	c-2,0.4-4.3,0.9-6,0.2c-4-1.4-6.3,0.5-8.6,3.1c-0.5,0.6-1.4,1-2.1,1.4c0.2,0.2,0.3,0.5,0.5,0.7c6.3,0,12.7-0.3,19,0.1
	c2.5,0.2,5,1.7,7.3,3c0.7,0.4,0.6,2.2,0.8,3.4c-1-0.3-2.1-0.5-3-0.8c-4.5-1.7-9-1.9-13.8-1.3c-7.7,1-15.5,1.7-22.8-2.8
	c0.8,1.1,1.8,2.1,2.3,3.3c0.3,0.7-0.1,1.7-0.3,2.6c-0.8-0.2-1.7-0.1-2.2-0.6c-1.8-1.4-3.4-3-5.5-4.9c3.1-3.8,0.6-7.5-1.3-11.4
	c-1.2-2.3-2-4.9-3-7.3c-3.1-7-9-10.6-15.8-13.1c-6.3-2.4-12.9-3.3-19.7-2.7c-1.4,0.1-3.5,1.4-3.9,2.6c-2.5,6.7-4.3,13.6-2.7,20.9
	c0.4,2,0.4,4.1,0.7,6.1c0.4,0.1,0.8,0.2,1.2,0.2c0.9-1.8,2.3-3.6,2.6-5.5c0.6-4.3,0.7-8.6,1-12.9c0-0.5,0.3-1.1,0.5-1.6
	c1.4,0.5,2.9,0.7,4.2,1.5c0.5,0.3,0.7,1.7,0.5,2.5c-0.6,2.6-1.5,5.1-2.5,8.6c5.6-2.9,7.3-7,8-11.8c0.1-1.1,0.7-2,1.1-3.1
	c0.7,0.8,1.5,1.6,2.1,2.5c2,3,1.5,5.7-1,8.3c-1.2,1.2-1.7,3-2.5,4.5c0.3,0.3,0.6,0.5,0.9,0.8c1-1,2.1-1.9,3-3
	c0.6-0.7,0.8-1.8,1.4-2.4c0.7-0.6,1.8-0.9,2.7-1.3c0.2,0.9,0.5,1.9,0.9,3.4c1.6-1.4,3-2.8,4.6-4.1c0.7-0.6,1.6-1,2.5-1.4
	c0.2,1,0.6,2,0.5,3c-0.1,1.5-0.1,3.2-0.7,4.4c-0.5,1-1.9,1.8-3,2.2c-1.6,0.6-3.3,0.7-4.9,1c0.1,0.4,0.2,0.8,0.2,1.2
	c1.6-0.3,3.2-0.6,4.8-0.9c1-0.2,2.7-0.7,3.1-0.3c1.7,1.9,3.7,2,5.9,1.4c0.3-0.1,1.2,0.8,1.1,1.1c-0.1,0.6-0.6,1.5-1.1,1.6
	c-3.4,0.5-6.8,1.2-10.2,1.1c-2.9-0.1-5.8-1.2-8.7-1.8c-1.2-0.2-2.6,0-4.5,0c1.8,2.8,3.2,5.2,4.9,7.4c0.4,0.5,1.4,1,2.1,0.9
	c2-0.3,4.5-0.3,5.8-1.5c4.1-3.7,7,0,10.4,1.1c0.6,0.2,0.9,1.2,1.3,1.8c-0.8,0.3-1.6,0.9-2.4,0.9c-4.3,0.2-8.5,0.2-12.8,0.2
	c0,0.6,0,1.2,0,1.7c2.2,0,4.5-0.2,6.7,0.1c1.3,0.1,2.5,0.9,3.6,1.5c1,0.5,2,1.2,2.8,1.9c2.1,2,4.3,4,6.2,6.2
	c0.4,0.4-0.2,1.7-0.3,2.6c-0.7-0.4-1.8-0.5-2.2-1.1c-3-4.3-7.5-5.5-12.3-6.5c-3.3-0.7-6.5-1.9-9.9-2.9c0,0.2,0.1,1.3-0.3,1.9
	c-0.7,0.9-1.8,1.5-2.7,2.3c-0.2-1.1-0.7-2.2-0.5-3.1c1.3-4.8-0.3-8.6-5.9-12.7c-0.9,1.3-1.7,2.6-2.9,4.4c1.4,0,2,0.1,2.7,0
	c3.6-0.7,3.6-0.8,3.2,3c0,0.3,0.5,0.6,0.7,1c0.4,0.8,0.7,1.6,1,2.4c-1,0.3-1.9,0.6-3.1,0.9c-0.7,2.8-2.3,3.7-3.7,1.6
	c-0.8-1.1-1.2-2.5-1.8-3.7c-0.4,0-0.7,0-1.1,0.1c-0.1,1.2-0.5,2.5-0.3,3.7c1.6,8.6,3.6,17.2,4.9,25.9c1,6.3,1.3,12.8,1.6,19.2
	c0.4,7.8,0.3,15.5,0.8,23.3c0.7,10.3,1.8,20.6,2.8,30.9c1,10.4,2,20.8,2.9,31.3c1,12.3,2,24.7,2.9,37c0.6,7.8,1.1,15.7,1.4,23.6
	c0.4,7.9,0.6,15.8,0.7,23.7c0.3,25.4,0.6,50.8,0.7,76.2c0,11-0.4,22-0.7,33c-0.2,7.9-0.4,15.8-0.7,23.7c-0.5,14-0.9,27.9-1.4,41.9
	c-0.4,12.3-1,24.6-1.4,36.9c-0.5,12.4-1,24.8-1.4,37.2c-0.5,12.8-1,25.5-1.4,38.3c-0.5,14.8-1,29.6-1.4,44.4
	c-0.3,9-0.5,17.9-0.7,26.9c-0.3,11.4-0.5,22.7-0.7,34.1c-0.3,13.9-0.5,27.8-0.7,41.7c-0.3,21.8-0.6,43.6-0.7,65.4
	c0,16,0.4,32.1,0.7,48.1c0.2,9.4,0.4,18.9,0.7,28.3c0.4,11.6,0.9,23.1,1.4,34.7c0.5,11.3,0.9,22.7,1.5,34
	c0.6,11.4,1.3,22.8,2.2,34.3c0.9,12.2,1.8,24.5,2.9,36.7c1.3,13.8,2.8,27.7,4.2,41.5c1.2,11.9,2.2,23.9,3.7,35.8
	c1.9,15.6,4.1,31.1,6.4,46.6c3.5,23.2,7,46.5,10.9,69.7c2.8,16.5,6.3,32.9,9.5,49.3c0.2,1.2,0.1,2.6,0.2,3.8c-5.3,0-10.6,0-15.8,0
	c-2.7-13.6-5.6-27.2-8.2-40.8c-2.2-11.3-4.2-22.6-6.1-34c-1.9-11.6-3.7-23.2-5.4-34.8c-1.7-11.1-3.4-22.3-4.9-33.5
	c-1.2-8.8-2-17.7-3.1-26.6c-1.1-9.4-2.4-18.8-3.5-28.3c-0.7-5.9-1-11.9-1.6-17.8c-0.9-9.5-1.9-18.9-2.8-28.4
	c-0.6-6.9-1.1-13.8-1.6-20.7c-1-13.2-1.9-26.4-2.8-39.5c-0.3-3.9-0.6-7.8-0.7-11.8c-0.3-9.4-0.4-18.9-0.8-28.3
	c-0.4-12.1-0.9-24.1-1.4-36.2c-0.2-4.6-0.6-9.3-0.7-13.9c-0.3-19.5-0.5-39-0.8-58.6c-0.2-15.6-0.7-31.1-0.7-46.7
	c0-22.3,0.4-44.6,0.7-66.8c0.1-10.9,0.5-21.8,0.7-32.7c0.2-9.3,0.4-18.6,0.7-28c0.4-14.6,0.9-29.1,1.4-43.7
	c0.4-12.8,0.9-25.5,1.4-38.3c0.5-12.5,1-25.1,1.4-37.6c0.5-11.9,1-23.9,1.4-35.8c0.5-14.2,1-28.4,1.5-42.6
	c0.2-7.2,0.5-14.3,0.7-21.5c0.3-11.7,0.6-23.4,0.7-35.2c0.3-24.6,0.6-49.1,0.7-73.7c0-8.2-0.2-16.5-0.7-24.7
	c-0.8-12.4-1.7-24.7-2.8-37c-1-11-2.4-22-3.5-33c-0.2-2.2,0.1-4.4-0.1-6.6c-0.7-12.1-1.7-24.3-2.1-36.4c-0.5-15.7,0-31.4-1-47
	c-0.6-10.9-3.2-21.6-4.5-32.4c-1.3-11-3.1-22-3.1-33c0.1-14,6.1-26.3,14.8-37.1c6-7.5,12.6-14.7,18.5-22.3c3.8-4.9,5.5-10.5,5.5-17
	c-0.1-10.8-0.9-21.3-3.5-31.9c-1.7-6.9-5.6-11.9-10.4-16.6c-0.7-0.7-2.6,0-4,0.1c-1.2,0.1-2.4,0.2-3.5,0.3c0.5-1,0.9-2.2,1.6-2.8
	c1.8-1.6,0.2-2.3-0.4-3.5c-1.1-2.1-2.1-4.3-2.8-6.6c-0.1-0.4,0.8-1.2,1.2-1.8c0.5,0.4,1,0.8,1.4,1.3c2.5,3,5,6.1,8,8.9
	c-2.1-6.4-2.9-12.8-2.8-19.4c0-10.1-7.4-18.9-17.2-20.4c-1.5-0.2-3.2,0.7-4.8,1c-1.2,0.3-2.4,0.5-3.6,0.7c0-0.7,0-1.4,0-2.2
	C3,89.3,5.2,88.3,7,87.4c-1.1-2.4-2.6-5-3.5-7.7c-0.3-0.8,0.6-2,1-3C5.1,77.4,6,78,6.3,78.8c2.5,7,8.5,9.7,15.3,13.1
	c-1.2-3.4-2.1-5.9-3-8.4c-1.8-4.5-3.5-9.1-5.5-13.5c-1.7-3.6-1.9-3.9-0.3-5.4c-0.9-1-2-2-2.8-3.2c-0.4-0.6-0.4-1.5-0.6-2.2
	c0.8-0.2,1.9-0.7,2.3-0.4c1.8,1.6,5,1.8,4.6,5.5c-0.2,2.4,0.6,5,1,7.5c1.1-7.6-2-14.4-4.3-20.6c1.4-1.3,2.4-2.2,3.5-3.1
	c0.7-0.6,1.6-1,2.4-1.6c0.2,0.9,0.6,1.9,0.6,2.8c0,0.9-0.8,1.8-0.8,2.7c0,2.9-1.4,6.4,3.1,7.5c0.4,0.1,0.8,1.6,0.7,2.4
	c-0.3,4.8-1,9.7-1.2,14.5c-0.1,2,0.7,4,1.2,6.6c3.9-3.1,7.1-5.6,10.5-8.1c0.7-0.5,1.8-0.6,2.8-0.9c-0.1,1.1,0.1,2.4-0.5,3.2
	c-1.1,1.6-2.5,3-4.1,4.7c2.2,0.7,3.9,1.2,5.5,1.8c0.6,0.3,1.1,1,1.6,1.5c-0.6,0.4-1.3,1.2-1.9,1.1c-2-0.2-3.9-1-5.9-1.2
	c-1.4-0.1-3.4-0.3-4.1,0.5c-0.8,0.9-0.9,3-0.3,4.2c3.6,7.7,5.1,15.8,5.3,24.2c0.1,3.3,1.2,6.6,1.9,10c2-2.9,3.6-5.3,5.3-7.6
	c6.7-9.2,6.9-19.5,4.8-30.1c-1.3-6.3-3.3-12.2-7.6-17.1c-3-3.5-6.2-6.9-9-10.7c-1.8-2.4-3.6-5.1-4.5-8c-1.6-4.8-2.5-9.9-3.6-14.9
	c-0.1-0.7,0.4-1.5,0.7-2.2c0.7,0.3,1.7,0.5,1.9,1c1.1,2.5,2.1,5,2.8,7.6c0.6,2.3,0.8,4.8,1.1,7.2c0.2-3.7,0.3-7.6-1-10.8
	c-3.1-7.2-1.7-14.6-1.9-21.9c0-0.9,1.4-1.8,2.1-2.7c0.4,1,0.8,1.9,1.6,4.1c1.1-6.7,2-12.5,2.9-18.3C29.5-0.3,30.2-0.3,31-0.3z
	 M156,152.5c3.4,3.1,6.8,6.2,10.3,9.4c-0.1,0.1-0.1,0.1-0.2,0.2c-1-1.2-2.1-2.4-3.4-3.8c2.2-0.1,3.9-0.2,5.7-0.3
	c-3.9,0.1-7-1.1-9.3-4.4c-0.5-0.7-2.1-0.7-3.2-1c0.8-0.8,1.5-1.9,2.4-2.4c1.4-0.7,3-1,4.6-1.5c-5,1.6-9.9,1-14.7-0.1
	c-4.7-1.1-9-0.8-13.5,1c-3.3,1.3-6.7,2-10.1,3c-0.1-0.3-0.2-0.5-0.3-0.8c2.3-1.4,4.7-2.8,7-4.1c-1.4-0.2-2.4,0.1-3.4,0.8
	c-3.8,2.5-7.9,2.7-12.2,1.6c-1.8-0.5-3.7-0.6-5.6-0.7c-3.3-0.2-6.5-0.3-9.8-0.5c4.1-3.7,8.5-3.2,13.1-2.4c-1.4-0.6-2.9-1.2-4.3-1.8
	c0-0.3,0-0.6,0-0.9c8.8,0,17.6,0,26.4,0c0-0.4,0.1-0.7,0.1-1.1c-1.2-0.3-2.5-0.5-3.8-0.8c0.7-0.9,1.2-1.6,1.8-2.2
	c-5.1,4-10.7,2.3-16.3,2.5c1.2-2.3,2.2-4.2,2.8-5.4c-2.1,1.5-4.4,3.8-7.2,5c-3.5,1.6-7.3,2.6-11.1,3.3c-2.8,0.5-6,0.7-8.5-0.3
	c-3.7-1.3-6.9-3.8-10.2-5.7c3-3.9,6-7.6,8.8-11.6c2-2.8,3.6-4.3,7.9-2.9c5.2,1.6,11.1,1.3,16.6,0.9c6.2-0.4,10.6,2.5,14.6,6.5
	c1.1,1.1,1.5,3,2.3,4.7c0.1-0.1,0.5-0.7,0.8-1.1c3.7,3,6.8,7.1,13.3,7.9c-2.5-1.3-4.1-2-5.6-2.8c0.2-0.4,0.4-0.9,0.6-1.3
	c2.9,1.2,5.7,2.3,8.6,3.5c-1.8-1.7-4-3.2-6.2-3.5c-4.6-0.5-8.3-2.2-10.5-6.3c2.6,0.1,5.1,0.5,7.7,0.3c2.7-0.2,4.6,0.8,6.6,2.7
	c2.5,2.4,5.5,4.2,9.3,3.6c7.1-1.1,13.8-0.6,19.7,4.2c0.2-0.3,0.3-0.6,0.5-0.9c-2.5-1.5-5-2.9-7.8-4.5c1.9,0.2,3.7,0.4,5.5,0.6
	c0-0.4,0-0.7,0-1.1c-4.2,0-8.5,0.1-12.7,0c-3.8-0.1-7.7-0.2-11.4-1.1c-1.5-0.3-2.6-2.5-4.2-4.1c4.5-1.6,8-3.2,11.7-4.2
	c3.6-1,7.3-1.4,11.7-2.2c-3.1,0-5.7-0.3-8.2,0.1c-2.6,0.3-5.1,1.2-7.6,1.9c0.2-2.4,0.4-4.6,0.7-7.5c-0.7,0.8-1.1,1.1-1,1.3
	c0.8,5.9-2.7,8.1-7.7,9.2c-4.5,1-8.9,1.6-13.1-0.9c-3.1-1.8-6-3.9-9.7-6.3c3.4-3.2,6.1-6.1,9.2-8.5c4.5-3.5,9.3-6.4,15.5-4.4
	c1,0.3,2.1,0.1,3.2,0c4.3-0.2,8.7-0.4,13-0.7c1.2-0.1,2.3-0.3,3.5-0.5c0-0.3-0.1-0.6-0.1-0.9c-1.8,0-3.6,0-6.1,0
	c3.4-1.8,6.2-3.3,9-4.9c-0.3-0.5-0.5-1-0.8-1.4c-5.8,5.1-12.9,6.8-18.6,6.6c0.2-0.5,0.4-1,0.6-1.4c-6,1.1-11.9,2.1-17.9,3.2
	c0.3-2.6,0.7-5.8,1.1-9.1c-0.7,1.1-1.5,2.2-2.6,3.8c-0.9-1.8-1.7-3.3-2.4-4.8c0,1.4-0.1,2.9,0.7,3.9c3.1,4.4,2.7,7.5-1.6,10.9
	c-1.9,1.5-3.4,3.5-5.3,5.1c-1.1,1-2.5,2.3-3.8,2.3c-5.2,0-10.5-0.1-15.7-0.7c-2.9-0.3-5.6-1.5-8.4-2.3c3.7-7.8,6.9-14.7,10.2-21.6
	c0.6-1.1,1.3-2.4,2.3-3.1c8.6-7,20.3-8.2,29.8-2.9c2.9,1.6,5.5,3.6,8.4,5.2c0.9,0.5,2.3,0.3,4.3,0.5c-2.5-1.1-4.1-1.8-5.8-2.6
	c6.2-2.3,11.6-1.2,16.7,2.1c-1.9-3.7-6.1-2.9-9.1-4.4c0-0.3,0-0.7,0-1c3.4-0.2,6.9-0.4,11.2-0.6c-2.3-0.5-3.9-0.8-5.5-1.1
	c-0.1-0.2-0.1-0.4-0.2-0.7c2.7-0.6,5.4-1.1,7.9-1.7c-1.6-0.3-3.4-0.6-5.7-1.1c-7.5,6.9-16.1,8.5-21.8,3.7c4.4-4.1,7.8-8.7,8.5-14.8
	c-1.2,1.3-1.6,3-2.4,4.5c-1.9,3.8-3.3,8.6-8.1,9c-3.5,0.3-7.2-1.6-10.9-2.5c-0.1-0.3-0.1-0.6-0.2-0.9c2.7-1.1,5.4-2.2,7.6-3.2
	c-0.5-0.1-1.6-0.2-2.9-0.4c0.8-1.9,1.5-3.5,2.3-5.1c-7.7,9.5-10.6,11.3-22.7,13.4c2.5-10.8,10.4-15.9,20.5-18.8
	c-2.6,0.3-5.2,0.5-7.5,1.5c-2.2,1-4.1,2.8-6.2,4.3c1.5-3.8,3.4-7.3,5.7-10.4c2.4-3.2,5.1-6.3,7.8-9.2c2.5-2.6,5.3-4.9,7.9-7.4
	c-0.2-0.2-0.4-0.4-0.6-0.6c-3.7,3.2-7.5,6.4-11.2,9.6c-0.1-0.3-0.3-0.9-0.5-1.5c-7.6,13-15.2,25.9-22.7,38.8c0-2.2,0.2-4.6,0-6.9
	c-0.2-2.4-0.7-4.9-1.4-7.2c-1.3-4.5,2.5-9.6,7.4-9.5c0.6,0,1.2,0.2,1.7,0.2c0.2-3.3,3.8-2.6,5.9-5.2c-3.8,1.5-6.7,2.6-10,4
	c0-2.8,0.1-4.8,0-6.9c-0.1-2.1,0.7-2.9,2.9-3.1c1.6-0.2,3.6-0.9,4.6-2.1c2-2.4,3.7-4,6.8-2c-1.1-0.7-2.3-1.4-3.8-2.4
	c1.4-2.5,2.8-5.1,4.1-7.6c-2,1.8-3.5,4-4.5,6.3c-2.2,5-4.3,6.7-9.1,6.1c1.5-4.5,3-8.9,4.3-12.9c0,0-0.7,0.4-1.4,0.8
	c-0.7-1.6-1.4-3.2-2.2-4.8c1.4,5.9,0.7,11.4-2.8,16.6c0-2.7,0-5.5,0-8.2c-0.3,0-0.7,0-1,0c0.8,2.4,1.7,4.7-0.7,5.7
	c0.3,3,0,5.8,0.9,8.4c1.4,4.3-0.4,7.2-3.3,9.7c-0.8,0.7-3,0.7-3.9,0c-3-2.1-4.4-5.3-3.8-9.6c-0.9,1.1-1.4,1.6-2.3,2.7
	c-0.3-6.2-0.7-11.8-1-17.4c-0.3,0-0.6,0-0.9,0.1c0.2,1.9,0.4,3.9,0.7,6.3c-0.8-1.1-1.2-1.6-1.6-2.1c0.1,2.5,1.5,4.5,1.3,6.4
	c-0.6,6.7,3.2,11,7.1,15.6c1.7,2,2.6,4.8,3.8,7.2c-3.8-1.9-7-3.8-10-6.1c-4.5-3.6-10.1-6.8-7.4-14.4c-0.3,0.6-0.7,1.3-1.2,2.2
	c-0.6-1.7-1.1-2.9-1.6-4.1c-0.2,0.1-0.4,0.2-0.6,0.2c0.8,3.1,1.7,6.2,2.8,10.3c-1.8-1.7-2.8-2.6-3.8-3.5c0.1,1.2,0.7,2.1,1.4,2.6
	c5.7,4.4,11.5,8.6,17.1,13.1c1.4,1.1,3.2,2.9,3.2,4.4c-0.1,5.2,0.1,10.7-1.7,15.4c-2.3,6.2-6.4,11.7-9.8,17.4
	c-6.1,10.1-15.1,16.4-26.5,20.1c-0.8-3.2-1.7-6.4-2.4-9c2.6-1.8,4.6-3.1,6.6-4.4c-0.1-0.2-0.2-0.3-0.3-0.5c-2.3,1-4.6,1.9-7.2,3
	c-0.6-4.1-0.2-7.5,1.7-10.7c5.7-9.8,15.3-9.9,23.6-10c2-1.3,3.2-2.1,4.2-2.8c-4.7,1-9.5,2.1-14.3,3.1c2.1-1.8,4.5-2.7,6.6-4
	c2-1.3,3.6-3,5.4-4.5c-0.1-0.1-0.3-0.3-0.4-0.4c-2.6,1.8-5.1,3.7-8.2,5.9c0.2-1.4,0.3-2,0.3-1.9c-4,2.3-8.2,4.6-12.5,7.1
	c-0.9-6.2,4.8-7.8,7.1-11.7c-1.6,1.1-3.2,2.3-4.8,3.4c-0.2-0.7-0.3-1.4-0.5-2.3c-2.7,7.2-3.8,14.8-10.5,19.6
	c-3-5.2-3.9-10.5-1.1-16.2c-1.6,4-4.2,7.6-2,12.3c1.2,2.6,2,5.5,2.7,8.3c1,4.1,1.6,8.3,2.4,12.5c0.6,2.8,0.5,5.2-2.5,6.5
	c-5.4,2.4-9.5,6.3-11.9,11.5c-2.6-7.6-5.3-15.3-7.8-22.9c-1.6-4.9-0.9-9.9,2-13.8c4-5.4,6.6-11.3,8.2-17.7c0.3-1,1.5-2.3,2.5-2.6
	c4.5-1.6,8.5-3.9,11.2-7.7c1.5-2.1,2.4-1.7,3.7-0.2C71,99.3,78,98.7,84.9,98c4-0.4,7.9-0.9,11.5-1.4c-6-2.9-12.7,1.1-19.7,0.6
	c4.2-4.3,8.1-8.3,11.4-11.6c-1.8,0.1-4.8-0.5-6.3,3.7c-0.7,2.1-2.7,4-4.5,5.4c-1.4,1-3.5,1-5.5,1.5c1.1-2.4,1.8-3.9,2.6-5.5
	c-1.5,2.4-3.4,3.6-5.8,2.2c-2.1-1.2-4-2.9-3.1-6.1c0.8-3,0.8-6.3,1.6-9.3c1.1-4.5-0.6-10.3,5.3-12.9c-1,0.2-1.9,0.3-3.1,0.5
	C71.7,58.8,76.2,54.9,81,53c1-2.8,1.8-5,2.5-7.2c-1.9,4.4-5,7.5-9,9.7c0.1-1.9,0.2-3.7,0.3-4.9c-3,6.3-6.2,13-9.3,19.4
	c-0.9-1.5-1.9-3.7-3.3-5.5c-5-6.3-6.5-12.9-4.1-20.8c1.1-3.7,3.1-5.2,6.4-5.9c1-0.2,2.1,0,3.2,0c-0.6-2,2.1-6,4.6-6.2
	c3.8-0.3,4.1,3.1,5.9,5.3c-0.9-2-1.8-4.1-3-6.8c2.9,1.2,5.5,2.2,7.7,3c0.6-0.8,1.2-1.5,2-2.5c-5.2,0-9.9,0-14.9,0
	c-0.2-1-0.4-2.5-0.7-3.8c5.3-0.9,10.4-1.7,16.2-2.6c-2.3-0.3-4.2-0.9-5.9-0.7c-2.3,0.2-4.6,1-6.9,1.7c-3.3,1-5.4-0.5-5.1-4
	c0.3-3.8,2.8-5.5,6.6-4.6c0.4,0.1,0.8-0.1,1.2-0.2c0-0.2,0-0.4,0-0.7c-1.6-0.1-3.1-0.3-4.6-0.4c-0.3-2.1-0.7-3.9-1-5.7
	c-0.4,0-0.8-0.1-1.2-0.1c3.2,4.6-0.8,7.3-2.1,10.9c-1.6-1.8-3.1-3.5-4-4.5c1.7,3.8,3.7,8.3,5.8,12.8c1.6,3.3-0.4,5.2-2.7,6.8
	c-1.5,1-3.3,1.4-5.4,2.2c1.7-6.1,1.2-11.4-2.5-16.1c1,3,2,6,3.3,9.9c-1.3-1.2-1.9-1.7-1.6-1.4c-0.3,2.6-0.6,5.5-1.1,8.4
	c-0.3,1.7-0.9,3.4-1.5,5.1c-2.3,7.1-2.1,13.9,2.6,20.1c5.2,7,6.6,14.5,3.3,22.8C60.2,92.9,53.6,98,49,97.3c-1.5-6.4-2.5-12.8-4.5-19
	c-2.4-7.7-4.7-15.2-1.4-23.2c0.2-0.4,0.1-1,0-1.4c-0.7-3.5-1.4-7.1-2.2-10.6c0.1-0.1,0.3-0.1,0.4-0.2c-0.2,1.2-0.4,2.3-0.7,4.1
	c-3-3.1-2.1-6.6-2.8-10.3c-1,4.9-0.1,8.9,2.1,12.8c1,1.7,1.7,4,1.5,6c-0.4,4.3-1.5,8.6-2.2,12.6c-4.9-4.8-10.2-10-10.6-18.2
	c-0.2-3.8-0.7-7.8-1.9-11.4c-1.7-5.2,0.2-9.2,3.3-12.9c0.7-0.8,2.6-0.8,3.9-0.6c2.1,0.4,4,1.3,6.1,1.9c0-0.2,0-0.3,0.1-0.5
	c-2.4-1.2-4.7-2.3-7-3.5c2.1-5.4,3.9-10,5.8-14.6c-0.5,0.6-1.1,1.3-1.9,2.2c-0.2-1.3-0.3-2.2-0.5-4c-0.8,3.5-1.4,6.1-2.1,8.6
	c-0.5,1.8-0.6,3.8-1.6,5.2c-2.6,3.7-5.6,7.1-8.7,10.9c0-1.3-0.1-2.8,0-4.3c0.7-6.4,4.7-11.6,6.3-17.8c0.8-3.2-1.1-5.4-0.6-8.2
	c0.4,7.4-2.3,13.9-5.9,21.1c-0.2-2.6-0.3-4.3-0.4-6c-0.5,5.1-0.5,10.1-0.5,15.1c0,0.2,0,0.5,0.1,0.7c4,7.3,2.9,15.6,4.3,23.5
	c-1.5-2.5-2.9-5-3.6-7.8c-0.8-2.8-1-5.7-1.5-8.5c-0.5,1.8-0.2,3.6-0.2,5.3c0.3,9.1,6.8,14.9,12.1,21c4.4,5.2,8,10.5,9.5,17.1
	c2.4,10.9,3.7,21.8-2.6,32c-2.5,4.1-5.1,8.3-8.1,13.2c-1-4.9-2-9.5-2.8-14.2c-0.7-4.1-0.6-8.3-1.6-12.3c-1-4.2-3-8.1-4.1-12.3
	c-0.4-1.4,0-3.6,0.9-4.7c0.8-0.9,2.9-0.7,4.4-0.6c1.3,0,2.6,0.6,4,0.9c0-0.2,0.1-0.3,0.1-0.5c-1.9-0.7-3.7-1.4-4.9-1.8
	c1.8-2,3.6-4.2,5.5-6.4c-0.1-0.1-0.3-0.3-0.4-0.4c-4,3-7.9,6.1-12.3,9.5c-0.6-3.1-1.4-6.3-1.7-9.5c-0.3-3.8,0.6-7.9-0.4-11.4
	c-1.5-5.5-4-10.8-1.7-16.7c-1,2.7-1.8,5.5-1.6,8.1c0.7,6.8,4.4,13.4,0.9,20.7c-0.9-4.6-1.9-9.2-2.8-13.9c-1.1-0.8-2.6-1.8-4.1-2.9
	c1.6,2.6,3,4.9,4.6,7.5c-1.6,0-2.3,0-2.2,0c3.9,9.5,7.9,19.1,11.8,28.7c-6.9-5.8-17.6-7.2-19.9-17.6c-0.4,0.3-0.8,0.6-1.2,0.8
	c2.2,3.4,4.4,6.8,6.5,10.1c-2,0.1-4.1,0.3-6.2,0.4c1.3,0.7,2.6,0.3,3.8,0.5c12.1,1.2,18,8.2,19.7,21c0.7,5.5,1.1,11,2.3,16.4
	c0.7,3.1,2.7,6,4.1,9c-0.2,0.1-0.3,0.2-0.5,0.3c-4.8-4.6-9.5-9.1-14-13.4c-0.7,3.2,3.2,4.7,5.1,7.4c-0.3,0.9-0.7,1.9-1,2.6
	c1.4-0.1,3.2-0.8,3.8-0.3c4.5,4.3,9,8.6,11,14.9c3.8,12.4,4.5,25.1,4.4,38c-0.1,5.1-1.4,9.7-4.3,13.5c-5.2,6.9-10.8,13.4-16.4,20
	c-6.1,7.3-11.6,15.1-14.7,24.2c-3.2,9.4-4.6,19-2.9,28.9c1.1,6.5,1.7,13.1,2.6,19.6c1.5,10.6,3.9,21.2,4.4,31.8
	c0.9,17.8,0.5,35.7,1,53.5c0.3,10.3,1.4,20.6,2.1,30.9c0.2,2.4-0.1,4.8,0.2,7.2c1.3,11.7,3,23.4,4.1,35.2c1,11.2,1.6,22.5,2.2,33.8
	c0.4,8.3,0.8,16.7,0.7,25.1c-0.1,25-0.4,50.1-0.7,75.1c-0.1,10.8-0.4,21.5-0.7,32.3c-0.2,8.1-0.4,16.2-0.7,24.3
	c-0.5,13.9-0.9,27.9-1.4,41.8c-0.4,12.1-1,24.3-1.4,36.4c-0.5,12.5-1,25-1.4,37.5c-0.5,12.7-1,25.5-1.4,38.2
	c-0.5,14.7-1,29.3-1.4,44c-0.3,9.2-0.5,18.4-0.7,27.6c-0.3,11-0.6,22-0.7,33c-0.3,20.2-0.7,40.5-0.7,60.7c0,17,0.4,34,0.7,51
	c0.2,15.7,0.4,31.3,0.7,47c0.3,14.2,0.9,28.4,1.4,42.6c0.5,13.3,1,26.7,1.4,40c0.2,6.3,0.4,12.6,0.7,18.9c0.2,4,0.4,8.1,0.7,12.1
	c0.9,12.4,1.9,24.8,2.8,37.2c0.5,6.6,0.9,13.3,1.5,19.9c0.9,9.3,1.9,18.6,2.8,27.9c0.5,5.4,0.9,10.9,1.5,16.3
	c0.9,7.9,1.9,15.7,2.8,23.5c0.6,4.8,1.1,9.6,1.7,14.4c1.1,7.8,2.2,15.6,3.3,23.4c1.1,7.7,1.9,15.4,3.1,23.1
	c1.2,8.1,2.7,16.2,4.1,24.3c1.6,9.6,3.2,19.3,4.8,28.9c1.5,8.5,2.9,16.9,4.5,25.3c1.8,9.4,3.8,18.8,5.7,28.2c5,0,9.6,0,14.5,0
	c-2-9.5-4-18.8-5.8-28.1c-1.9-10.2-3.6-20.4-5.4-30.6c-1.6-9-3.3-18-4.7-27.1c-1.6-10.2-2.9-20.5-4.4-30.8
	c-1.1-7.8-2.5-15.6-3.5-23.4c-1.1-8.4-1.9-16.9-3-25.3c-1.1-9.1-2.5-18.2-3.5-27.4c-0.9-8.5-1.4-17-2.2-25.5
	c-1.1-11.9-2.5-23.8-3.5-35.7c-0.8-9.2-1.5-18.4-2.2-27.7c-0.8-11.6-1.5-23.2-2.2-34.9c-0.6-11.1-1-22.1-1.5-33.2
	c-0.5-11.7-1-23.3-1.4-35c-0.3-9.4-0.6-18.9-0.7-28.3c-0.3-17.1-0.7-34.2-0.7-51.3c0-16.2,0.4-32.3,0.7-48.5
	c0.3-19,0.4-38.1,0.7-57.1c0.2-11.1,0.5-22.2,0.7-33.3c0.2-9.2,0.4-18.4,0.7-27.6c0.5-14.7,0.9-29.3,1.4-44c0.4-13,0.9-26,1.4-39
	c0.5-12.1,1-24.3,1.4-36.4c0.5-12.5,1-25,1.4-37.5c0.5-13.8,1-27.7,1.4-41.5c0.3-8,0.5-16,0.7-24c0.3-11.4,0.7-22.7,0.7-34.1
	c-0.1-25.9-0.3-51.7-0.7-77.6c-0.2-10.6-0.8-21.2-1.4-31.8c-0.7-12.8-1.4-25.6-2.2-38.5c-0.4-5.7-0.8-11.3-1.5-17
	c-1.6-13.5-3.7-26.9-4.9-40.4c-1.2-14.7-1.3-29.5-2.4-44.2c-0.7-9.2-2.1-18.3-3.5-27.3c-0.6-4.3-2.1-8.5-2.6-12.7
	c-0.2-1.4,1.3-3.1,2-4.7c0.9,0.9,1.9,1.8,2.7,2.8c0.5,0.7,0.9,1.5,1.3,2.2c0.2-0.1,0.3-0.1,0.5-0.2c-0.1-1.3-0.2-2.7-0.4-4.3
	c1.7,0.6,2.8,1.1,4,1.5c0.1-0.1,0.1-0.2,0.2-0.4c-1.4-1.1-2.8-2.1-4.8-3.6c1.8-0.2,2.8-0.4,3.9-0.5c0-0.2,0-0.5,0-0.7
	c-2.4,0-4.7,0-7.4,0c0.7-1.4,1.3-2.6,1.9-3.7c1.8-3.2,3-3.3,5.7-1c4.7,3.9,4.6,8.9,3.9,14.2c0.6-1,1.1-2,1.2-3c0.2-1.2,0-2.5,0-4.1
	c5.2,4.3,5.2,4.3,12.4,5.8c4.3,0.9,8.5,2,11.3,5.9c0.1,0.1,0.5,0.1,1.2,0.3c-3.2-4.5-7.2-6.7-12.9-7.1c1.2-0.4,1.7-0.6,2.2-0.8
	c0.4-0.2,0.6-0.6,1.5-1.4c-4.8,1.5-8.6,1.5-12.5-1.9c2.8-0.7,5.2-1.5,7.7-1.9c2.5-0.4,5.1-0.3,7.7-0.4c0-0.2,0.1-0.5,0.1-0.7
	c-1.5-0.3-3.1-0.6-4.7-0.9c0-0.4,0-1,0-0.7c-2.8,0.8-5.8,1.4-8.5,2.6c-2.7,1.1-3.8,0.1-5.1-2c-1.6-2.6-3.7-5-5.5-7.3
	c3.5-2.6,7.5-1,11.4,0c6.3,1.6,9.5,1.6,12.7-0.4c-2.4,0-4.4,0-7.2,0c1.4-0.9,2-1.3,3-1.9c-8.9,1.2-8.9,1.2-11.3-1.1
	c3.2-0.9,6-1.8,8.6-2.5c-0.1-0.1-0.6-0.6-1.1-1c1.2-1.9,2.4-3.6,3.5-5.4c-3,2.3-5.2,5.2-9.6,5.5c0.2-1.3,0.4-2.2,0.5-3.2
	c-1.5,5.3-5.7,5.9-10.1,5.9c2.4-3.6,4.8-7.1,7.1-10.5c-0.7-1.7-1.4-3.4-2.2-5.3c-1,10.5-4.7,12.7-9.9,15.6c0.2-2.4,0.5-4.7,0.6-6.9
	c0.2-2,1.9-4.3-0.6-5.9c-1.2,7.4,0.1,15.5-7.4,20.9c-2.3-9.4-2.5-18.6,0.4-27.6c2.1-6.5,1.7-6.3,7.2-5.9c6,0.4,12.1,0.7,17.8,2.3
	c7.9,2.1,14.6,6.6,18.1,14.6c1.4,3.2,3.1,6.4,4,9.7c0.8,2.9,0.8,6,1.2,8.9c1.2,1.2,2.9,2.8,4.7,4.6c-1.3-3-2.5-5.7-3.7-8.4
	c0.3-0.2,0.7-0.4,1-0.6c6.5,7.3,14.9,6.6,23.4,5.8c5.7-0.5,11.8-3.2,17,2c-0.9-1.3-1.9-2.4-3.1-3.1c-4.8-2.6-9.9-1.2-15-1
	c-3.7,0.1-7.4-0.3-11.2-0.4c1.1-2,2.3-2.7,3.2-3.8c2.7-3.3,5.6-5.3,10.2-3.4c1.2,0.5,2.8,0.1,4.8,0.1c-3.2-0.9-5.8-1.6-8.6-2.3
	c4.6-5.1,9.7-7.7,16.1-7.3c-2.4-0.4-4.8-0.2-7.1-0.4c-0.8-0.1-1.8-0.9-2.1-1.7c-0.3-0.8,0.2-1.9,0.3-2.9c-0.8,1.1-0.9,2.3-1.1,3.4
	c-0.2,1-0.2,2.4-0.8,2.9c-3.8,3.1-7.8,6-12.4,9.5c-0.2-2.7-0.3-5-0.5-7c-2.8,2.1-1.9-2.3-3.8-2.9c0.9,2.7,1.5,5.2,2.5,7.5
	c1.3,2.8-0.1,4.2-2.1,5.5c-2.1,1.4-3.6,0-4.8-1.4c-1.3-1.6-2.5-3.5-3.2-5.4c-2.8-7.1-5.5-14.2-8.2-21.3c1.7,0.6,4.4,1,6.5,2.3
	c1.9,1.3,3.2,3.6,4.7,5.4c0.2-0.8-0.1-1.3-0.3-1.7c-0.3-0.8-0.6-1.6-0.9-2.4c0.9,0,2-0.2,2.8,0.1c1.7,0.7,3.3,1.7,5.2,2.7
	c-0.7-1.4-1.4-2.5-2-3.7c2.9-0.5,5.7-1.1,9.3-1.7c-6.6-1.3-12.7,1.8-17.7-2.4c2.1-1.5,4.2-2.8,6-4.5c3.6-3.4,5-3.6,9.3-1.1
	c0.7,0.4,1.6,0.5,3.1,0.9c-1-1-1.4-1.5-1.8-1.9c0.1-0.3,0.1-0.5,0.2-0.8c3.3,0.4,6.6,0.8,10,1.2c0-0.1,0.1-0.2,0.1-0.3
	c-1.9-0.9-3.8-1.7-6-2.7c1.5-0.5,2.8-0.8,4.6-1.4c-5.4-0.7-10.2,3.5-15.3,0c1.8-2.4,3.2-4.6,4.9-6.5c1.8-2,3.9-3.7,5.9-5.6
	c-0.1-0.2-0.2-0.3-0.3-0.5c-2.6,1.6-5.2,3.3-7.5,4.7c-0.6-2.1-1.1-4-1.6-5.9c-0.6,0.1-1.2,0.1-1.8,0.2c3.7,2.6,1.7,5.3,0.8,7.8
	c-0.6,1.7-2,3.1-2.9,4.7c-5,8.7-17.2,9.2-24.6,6.3c-8.4-3.3-16.8-6.5-26-7.8c0.5-1,0.7-2,1.3-2.7c5.7-7.2,11.4-14.4,17.3-21.5
	c0.5-0.6,1.7-1.1,2.6-0.9c7.3,1.1,7.3,1.1,5.7,8.1c0,0.1,0,0.2,0,0.4c-2,5.7-0.5,12.3-4,17.9c1.1-1.5,2.2-3,3.2-4.4
	c0.4,1.6,0.9,3.5,1.5,5.4c0.6-7.3-1.8-14.7,3.8-22.4c1.1,3.5,1.7,6.2,2.9,8.7c1.1,2.4,3,4.5,3.9,6.9c1.2,3,3.7,1.6,6.1,3.2
	c-2.9-2.6-5.1-4.5-7.3-6.6c0.8-0.4,1.3-0.6,1.6-0.7c-0.9-1.1-2.3-2.1-2.8-3.5c-1.3-3.9-2.3-7.9-3.6-12.4c0.5-0.1,1.7-0.3,3-0.5
	c8.9-0.9,17.4-2.9,24.6-8.6c1.9-1.5,3.7-1.9,5.8-0.6c5.9,3.5,11.5,7.3,15.7,12.8c1.7,2.2,3.6,4.4,2.1,8c-1.4,3.4-2,7.2-2.2,10.9
	c-0.2,3.8,0.4,7.6,0.6,11.1c0.1-0.5,0.6-1.4,0.6-2.3c0.1-4.3-0.4-8.7,0.7-13c0.5-2.1,0.9-4.2,1.3-6.3c0.4,0,0.7,0.1,1.1,0.1
	c0.2,2.7,0.5,5.4,0.5,8.1c0.1,4.9,0.1,9.7,3.2,13.9c0.6,0.7,0.3,2.3,0,3.4c-1,4.9-2.2,9.8-3.2,14.8c0.4,0.1,0.7,0.2,1.1,0.2
	c0.5-2.1,1-4.2,1.5-6.3c0.2,0,0.3,0,0.5,0c0,3.6,0,7.1,0,10.7c0.2,0,0.3,0,0.5,0.1c0.6-2.3,1.3-4.5,2-6.9c0.6,0.6,1.1,1,1.6,1.5
	c-0.9-2.4-2.8-4.5-3.2-6.8c-0.4-2.4,0.5-5,1-8c3.9,2.4,7.2,4.4,10.5,6.5c1.6,1,3,2.3,4.5,3.4c0.5-1.2,0.5-1.2-8.7-7.8
	c0.3-0.6,0.6-1.1,0.9-1.8c-6.1,1.7-10.7-5.7-9.7-14.4c2.9,2.1,6,4.4,9.1,6.7c-1.7-2.7-3.9-4.6-5.9-6.8c-1.4-1.6-3.1-3.3-3.7-5.2
	c-1.4-4.9-2.2-9.9-3.1-14.4c2.3,1,5.1,2.3,8,3.4c1.2,0.4,3-0.1,3.8,0.6c2.8,2.3,5.5,4.8,7.7,7.6c1.3,1.7,1.6,4.2,2.4,6.3
	c-0.3,0-0.5,0.1-0.8,0.1c2.3,2.1,4.7,4.2,7.2,6.5c-2.1-3.3-4-6.2-5.8-9.1c0.3-0.2,0.6-0.4,0.9-0.6c4,2.8,7.2,7,13,7.6
	c-8.7-4.8-15.3-11.2-22.1-18.8c6.5-0.8,12.1-1.4,17.6-2.2c5.5-0.8,10.8-3.5,16.6-1.6c0-0.3,0-0.6,0-0.9c-1.9-0.3-3.9-0.5-5.8-0.8
	c0-0.2,0-0.5-0.1-0.7c3.2-0.8,6.5-1.6,9.6-2.3c-8.6-1.8-15.4,7.3-24.5,4.5c3.3-0.8,6.5-1.7,9.7-2.5c-3.5,0.1-6.8,0.6-10,1.4
	c-3.3,0.9-6.5,2.7-9.9,3.3c-7.7,1.5-14.1-1.5-20.4-6.6c3.2-0.5,5.8-0.9,7.8-1.2c1-1.7,1.9-3.3,2.8-4.8c-3.9,3.8-11.1,6.1-14.4,3.8
	c-4.4-2.9-8.6-6.2-12.8-9.3c2.2-6.1,11.3-12.9,18.7-13.2c12.6-0.6,23.8,2.3,31,14.1c-0.4-1.3-0.9-2.6-1.4-4.3c5,1.1,9.5,2.1,14,3.1
	c-3.3-1.7-6.8-2.8-10.3-3.6c-3.8-0.8-7.1-2.3-10-6.1c4,1.1,7.4,2.1,10.7,3c5.7,1.5,10.4,4.7,14.9,8.4c2.7,2.3,5.9,4.2,9.6,4
	c-3.5-1.8-7-3.7-10.5-5.5c0.1-0.2,0.3-0.5,0.4-0.7c1.1,0.1,2.1,0.3,3.3,0.4c-5.5-2.8-10.7-5.5-16-8.3c4.3-1.9,8.1-2.4,11.7,2
	c1.7,2.1,5.1,2.8,7.6,4.2c3,1.7,6,3.4,8.9,5c0-1.6-1.1-3.3-3.4-4.2c-2.4-1-4.7-2-7.9-3.4c2-0.3,3.1-0.4,4.1-0.5
	c-4.7,0-8.7-1-11.2-6.6c2.6-0.4,4.8-0.8,7-1.2c4.5-3.2,9.2-2.4,13.9-0.2c-0.9-1-1.8-2-2.7-2.9c-2.2,0-4.7,0-7.1,0
	c-0.1-0.2-0.1-0.4-0.2-0.6c3.4-1.1,6.8-2.2,11-3.6c-3.4,0.4-6.2,0.1-8.6,1.1c-6.1,2.5-12,5.6-18,8.4c-0.2-0.4-0.4-0.8-0.7-1.2
	c3.7-3.1,7.4-6.2,11-9.3c-0.2-0.3-0.5-0.5-0.7-0.8c-2.3,3.1-6.2,3.8-8.6,6.9c-2.5,3.2-5.9,5.2-10.7,4.6c-11.6-1.6-22.4-7.2-35.4-5.6
	c2.6-2.3,4.3-4.1,6.2-5.5c6.9-5.4,13.1-5.4,20.5-0.6c3,1.9,6.4,3.3,9.6,4.9c0.1-0.2,0.1-0.3,0.2-0.5c-4.6-2.9-9.2-5.8-14.1-8.9
	c3.8-5.1,8.8-5.7,14.1-5.9c-2-0.4-4.1-0.8-6-0.4c-6.2,1.3-11.7,5.4-18.4,5.2c-0.2,0-0.5,0.1-0.7,0.2c-2.8,1.3-5.6,2.6-8.7,4
	c1.7-4.5,5.8-5.6,9.2-7.7c-2,0.4-3.9,1.1-5.6,2c-1.6,1-3.8,2-4.3,3.5c-2.3,6.5-7.9,9.9-12.4,14.4c-0.2,0.2-0.7,0-1.9-0.1
	c0.9-4.8,2.2-9.4,2.5-14.1c0.2-3.4,1-6.1,4.2-7c2.9-0.8,6-1,9.1-0.8c3.3,0.2,6.5,1.1,9.7,1.7c-3.7-1.4-7.4-2.8-11.2-3
	c-3.7-0.2-7.4,1-11.5,1.7c-0.5-1.5-1.2-3.9-1.8-5.7c-0.8,0-1.5,0-2.1,0c3.1,8,3.1,9.7-0.1,15.2c-3.2-1.7-6.4-3.4-9.6-5.2
	c-0.2,0.3-0.4,0.5-0.6,0.8c2.3,1.5,4.6,3.2,7,4.6c2,1.1,2.8,2.1,2.1,4.7c-0.9,3.4-1.1,6.9-1.6,10.4c-0.2,1.1-0.2,2.4-0.8,3.3
	c-4,5.7-9.5,9.3-16.2,11c-2.9,0.7-5.8,1.2-8.4,1.7c2.9-3.7,6.2-6.9,8-10.7c1.5-3.2,2.9-5.7,6.5-6.8c-1.6,0.4-3.2,0.7-5.3,1.2
	c0.6-2.1,1.4-4,1.5-5.9c0.1-1.9-0.5-3.9-1-6.8c-1.1,16.7-2.9,21.8-8.1,23.6c1-1.1,1.8-2,3.1-3.4c-1.1,0.2-1.6,0.3-2.1,0.4
	c-0.2-1.1-0.4-2.1-0.4-2.2c-1.4,2.3-3.2,4.9-4.6,7.8c-2,4.1-5.2,3.1-8.7,2.8c-3.2-0.2-4.1-0.7-3.1-4.1c1.3-4.7,2.3-9.6,2.8-14.4
	c0.5-5.1-0.1-10.3,0.2-15.5c0.2-5.4,1.7-10.3,6.9-13c6.9-3.7,13.9-7.3,20.9-10.9c0.7-0.3,1.8-0.3,2.6,0c4.2,1.9,8.2,4,12.4,5.9
	c5.3,2.4,10.4,5.4,16.7,3.8c1.9-0.5,4.3,0,6.3,0.5c6.2,1.5,12.2,2.6,18.3-0.5c1.5-0.8,3.7-0.1,5.6-0.1c-0.3-0.4-0.7-1-1.2-1.7
	C145.3,148.1,150.6,150.8,156,152.5z M120.1,141.3c2.3,0,4.4,0.2,6.6,0c4.5-0.4,6.9-4.8,4-7.8c-3.5-3.7-7.4-6.8-13.2-6.8
	c-6.9,0-13.8,1.3-20.6-1.3c-0.5-0.2-1.7,0.3-2.1,0.8c-3.2,4.1-6.3,8.3-9.6,12.8c2.7,1.4,5.3,2.6,7.6,4.2c2.8,2.1,5.7,2.1,8.8,1.1
	c3-1,6.1-2.1,9.1-2.9c3.4-0.9,6.6-2.1,7.9-5.9c0.2-0.5,1-0.8,1.5-1.2c0.4,0.6,1.2,1.3,1.1,1.9C121,137.7,120.5,139.3,120.1,141.3z
	 M110,161.6c-0.1-0.4-0.3-0.9-0.4-1.3c-1.3,0.4-2.6,1-3.9,1.3c-0.6,0.2-1.4,0.2-2-0.1c-4.6-2.5-8.7-0.3-9.1,4.9
	c-0.2,2.1-0.7,4.2-1.1,6.3c-0.4,2.2-0.7,4.4-1.1,6.6c0.3,0.1,0.7,0.2,1,0.3c3.1-5.5,11.1-7.5,10.4-15.3
	C106,163.4,108,162.5,110,161.6z M105.9,92.8c3.7-6.8,7.5-14,11.4-21.2c-2.4,0.4-3.9,1.4-3.4,4.2c0.1,0.5-0.5,1.3-1,1.6
	c-0.2,0.2-1.3-0.2-1.4-0.6c-0.6-2-1.9-2.7-3.4-1.3c-1.9,1.6-5.1,2.5-4.3,6.2C104.7,85.5,105.3,89.2,105.9,92.8z M133.9,144.5
	c-7.3,0-14,0-20.5,0c0.4,1.2,0.7,2.1,1.1,3c-1,0.2-2,0.7-2.8,0.5c-5.1-0.9-5.1-1-6.4,0c4.9,0.6,10.1,1.3,15.4,1.9
	c0.8,0.1,1.7-0.1,2.4-0.4C126.6,147.9,130,146.3,133.9,144.5z M135.6,139.9c0.6,2.6,1.9,5,1.2,6.2c-0.9,1.6-3.5,2.3-5.3,3.3
	c6.5-3.1,13.2-3,20.5-1.2c-1.3-2-2.3-3.5-2.7-4.3c-2.1,0.2-3.5,0.8-4.5,0.4c-2.4-1-4.5-2.6-6.8-3.8
	C137.1,140.1,136.1,140,135.6,139.9z"/>
<path d="M156,152.5c-5.5-1.8-10.7-4.5-17-2.6c0.4,0.6,0.9,1.2,1.2,1.7c-1.9,0-4.1-0.6-5.6,0.1c-6.1,3.2-12.1,2-18.3,0.5
	c-2-0.5-4.4-1-6.3-0.5c-6.3,1.6-11.4-1.4-16.7-3.8c-4.2-1.9-8.2-4-12.4-5.9c-0.7-0.3-1.9-0.4-2.6,0c-7,3.6-14,7.2-20.9,10.9
	c-5.2,2.8-6.7,7.7-6.9,13c-0.2,5.2,0.3,10.4-0.2,15.5c-0.4,4.9-1.4,9.7-2.8,14.4c-1,3.4,0,3.9,3.1,4.1c3.5,0.3,6.7,1.3,8.7-2.8
	c1.4-2.8,3.2-5.5,4.6-7.8c0,0.1,0.2,1.1,0.4,2.2c0.5-0.1,1.1-0.2,2.1-0.4c-1.2,1.4-2.1,2.3-3.1,3.4c5.3-1.7,7.1-6.9,8.1-23.6
	c0.5,2.9,1.1,4.8,1,6.8c-0.1,1.9-1,3.8-1.5,5.9c2-0.5,3.7-0.8,5.3-1.2c-3.6,1-4.9,3.6-6.5,6.8c-1.8,3.8-5.1,6.9-8,10.7
	c2.6-0.5,5.5-0.9,8.4-1.7c6.7-1.7,12.2-5.3,16.2-11c0.6-0.9,0.6-2.2,0.8-3.3c0.5-3.5,0.7-7.1,1.6-10.4c0.7-2.5-0.2-3.6-2.1-4.7
	c-2.4-1.4-4.7-3-7-4.6c0.2-0.3,0.4-0.5,0.6-0.8c3.2,1.7,6.4,3.4,9.6,5.2c3.3-5.5,3.3-7.2,0.1-15.2c0.6,0,1.3,0,2.1,0
	c0.6,1.9,1.3,4.3,1.8,5.7c4-0.6,7.8-1.8,11.5-1.7c3.8,0.2,7.5,1.6,11.2,3c-3.2-0.6-6.5-1.5-9.7-1.7c-3-0.2-6.2,0-9.1,0.8
	c-3.1,0.9-4,3.6-4.2,7c-0.3,4.7-1.6,9.4-2.5,14.1c1.2,0.1,1.7,0.3,1.9,0.1c4.5-4.4,10.1-7.9,12.4-14.4c0.5-1.5,2.7-2.6,4.3-3.5
	c1.7-1,3.6-1.6,5.6-2c-3.4,2.1-7.5,3.2-9.2,7.7c3.1-1.4,5.9-2.7,8.7-4c0.2-0.1,0.5-0.2,0.7-0.2c6.7,0.2,12.1-3.9,18.4-5.2
	c1.9-0.4,4-0.1,6,0.4c-5.3,0.2-10.3,0.8-14.1,5.9c4.8,3.1,9.4,6,14.1,8.9c-0.1,0.2-0.1,0.3-0.2,0.5c-3.2-1.6-6.6-3-9.6-4.9
	c-7.4-4.8-13.6-4.7-20.5,0.6c-1.9,1.5-3.6,3.2-6.2,5.5c13-1.6,23.8,4,35.4,5.6c4.8,0.7,8.2-1.3,10.7-4.6c2.4-3.1,6.4-3.8,8.6-6.9
	c0.2,0.3,0.5,0.5,0.7,0.8c-3.7,3.1-7.4,6.2-11,9.3c0.2,0.4,0.4,0.8,0.7,1.2c6-2.9,11.9-5.9,18-8.4c2.3-1,5.2-0.7,8.6-1.1
	c-4.2,1.4-7.6,2.5-11,3.6c0.1,0.2,0.1,0.4,0.2,0.6c2.4,0,4.9,0,7.1,0c0.9,1,1.8,2,2.7,2.9c-4.7-2.3-9.4-3-13.9,0.2
	c-2.2,0.4-4.5,0.8-7,1.2c2.5,5.5,6.5,6.6,11.2,6.6c-1.1,0.1-2.1,0.3-4.1,0.5c3.2,1.4,5.5,2.4,7.9,3.4c2.3,0.9,3.4,2.6,3.4,4.2
	c-2.8-1.6-5.8-3.3-8.9-5c-2.6-1.4-5.9-2.1-7.6-4.2c-3.6-4.4-7.4-3.9-11.7-2c5.2,2.7,10.5,5.4,16,8.3c-1.1-0.1-2.2-0.3-3.3-0.4
	c-0.1,0.2-0.3,0.5-0.4,0.7c3.5,1.8,7,3.7,10.5,5.5c-3.7,0.2-6.9-1.7-9.6-4c-4.5-3.7-9.2-6.9-14.9-8.4c-3.4-0.9-6.7-1.9-10.7-3
	c2.9,3.8,6.2,5.3,10,6.1c3.5,0.8,7,1.8,10.3,3.6c-4.5-1-9-2-14-3.1c0.6,1.7,1,3,1.4,4.3c-7.2-11.8-18.4-14.7-31-14.1
	c-7.4,0.4-16.5,7.1-18.7,13.2c4.3,3.1,8.5,6.4,12.8,9.3c3.4,2.3,10.6,0,14.4-3.8c-0.9,1.5-1.8,3.1-2.8,4.8c-2.1,0.3-4.6,0.7-7.8,1.2
	c6.3,5.2,12.7,8.2,20.4,6.6c3.4-0.7,6.5-2.4,9.9-3.3c3.2-0.9,6.6-1.4,10-1.4c-3.2,0.8-6.4,1.6-9.7,2.5c9.1,2.8,15.8-6.3,24.5-4.5
	c-3.1,0.7-6.4,1.5-9.6,2.3c0,0.2,0,0.5,0.1,0.7c1.9,0.3,3.9,0.5,5.8,0.8c0,0.3,0,0.6,0,0.9c-5.8-2-11.1,0.8-16.6,1.6
	c-5.6,0.8-11.1,1.4-17.6,2.2c6.8,7.6,13.4,14,22.1,18.8c-5.8-0.6-9-4.8-13-7.6c-0.3,0.2-0.6,0.4-0.9,0.6c1.9,2.9,3.7,5.8,5.8,9.1
	c-2.5-2.2-4.8-4.4-7.2-6.5c0.3,0,0.5-0.1,0.8-0.1c-0.8-2.1-1.1-4.6-2.4-6.3c-2.2-2.8-4.9-5.3-7.7-7.6c-0.8-0.7-2.6-0.2-3.8-0.6
	c-2.9-1.1-5.8-2.4-8-3.4c0.9,4.5,1.7,9.5,3.1,14.4c0.6,1.9,2.2,3.6,3.7,5.2c2,2.2,4.2,4.1,5.9,6.8c-3.1-2.3-6.3-4.6-9.1-6.7
	c-1,8.7,3.6,16.1,9.7,14.4c-0.4,0.7-0.7,1.3-0.9,1.8c9.2,6.6,9.2,6.6,8.7,7.8c-1.5-1.1-2.9-2.4-4.5-3.4c-3.3-2.1-6.7-4.1-10.5-6.5
	c-0.4,3-1.4,5.6-1,8c0.4,2.3,2.3,4.4,3.2,6.8c-0.5-0.4-0.9-0.9-1.6-1.5c-0.7,2.4-1.3,4.7-2,6.9c-0.2,0-0.3,0-0.5-0.1
	c0-3.6,0-7.1,0-10.7c-0.2,0-0.3,0-0.5,0c-0.5,2.1-1,4.2-1.5,6.3c-0.4-0.1-0.7-0.2-1.1-0.2c1.1-4.9,2.2-9.8,3.2-14.8
	c0.2-1.1,0.5-2.7,0-3.4c-3.1-4.2-3.1-9-3.2-13.9c-0.1-2.7-0.4-5.4-0.5-8.1c-0.4,0-0.7-0.1-1.1-0.1c-0.4,2.1-0.7,4.2-1.3,6.3
	c-1.1,4.3-0.6,8.7-0.7,13c0,0.9-0.5,1.9-0.6,2.3c-0.2-3.5-0.9-7.3-0.6-11.1c0.2-3.7,0.8-7.5,2.2-10.9c1.5-3.6-0.4-5.8-2.1-8
	c-4.2-5.5-9.8-9.3-15.7-12.8c-2.2-1.3-3.9-0.9-5.8,0.6c-7.2,5.7-15.7,7.7-24.6,8.6c-1.3,0.1-2.6,0.4-3,0.5c1.3,4.5,2.2,8.5,3.6,12.4
	c0.5,1.3,1.8,2.3,2.8,3.5c-0.2,0.1-0.7,0.3-1.6,0.7c2.3,2,4.4,3.9,7.3,6.6c-2.4-1.7-4.9-0.3-6.1-3.2c-1-2.4-2.9-4.5-3.9-6.9
	c-1.1-2.5-1.7-5.2-2.9-8.7c-5.6,7.6-3.2,15.1-3.8,22.4c-0.5-1.9-1-3.8-1.5-5.4c-1,1.4-2.1,2.9-3.2,4.4c3.5-5.6,2-12.2,4-17.9
	c0-0.1,0-0.2,0-0.4c1.6-7,1.6-7-5.7-8.1c-0.8-0.1-2,0.3-2.6,0.9c-5.8,7.1-11.6,14.3-17.3,21.5c-0.6,0.7-0.8,1.6-1.3,2.7
	c9.3,1.4,17.6,4.5,26,7.8c7.4,2.9,19.5,2.4,24.6-6.3c0.9-1.6,2.3-3,2.9-4.7c0.9-2.5,2.9-5.2-0.8-7.8c0.6-0.1,1.2-0.1,1.8-0.2
	c0.5,1.9,1,3.8,1.6,5.9c2.3-1.4,4.9-3.1,7.5-4.7c0.1,0.2,0.2,0.3,0.3,0.5c-2,1.8-4.1,3.6-5.9,5.6c-1.7,1.9-3.1,4.1-4.9,6.5
	c5.1,3.5,9.9-0.7,15.3,0c-1.8,0.6-3.1,0.9-4.6,1.4c2.2,1,4.1,1.8,6,2.7c0,0.1-0.1,0.2-0.1,0.3c-3.3-0.4-6.6-0.8-10-1.2
	c-0.1,0.3-0.1,0.5-0.2,0.8c0.4,0.5,0.9,0.9,1.8,1.9c-1.4-0.4-2.4-0.5-3.1-0.9c-4.3-2.5-5.7-2.3-9.3,1.1c-1.8,1.7-3.9,3-6,4.5
	c5,4.3,11.1,1.2,17.7,2.4c-3.7,0.7-6.4,1.2-9.3,1.7c0.6,1.1,1.2,2.3,2,3.7c-1.9-1-3.5-2-5.2-2.7c-0.8-0.3-1.9-0.1-2.8-0.1
	c0.3,0.8,0.5,1.6,0.9,2.4c0.2,0.5,0.6,0.9,0.3,1.7c-1.6-1.9-2.8-4.2-4.7-5.4c-2-1.4-4.7-1.8-6.5-2.3c2.7,7,5.3,14.2,8.2,21.3
	c0.8,1.9,2,3.8,3.2,5.4c1.2,1.5,2.7,2.9,4.8,1.4c2-1.3,3.4-2.8,2.1-5.5c-1.1-2.3-1.6-4.8-2.5-7.5c2,0.6,1.1,5,3.8,2.9
	c0.1,1.9,0.3,4.2,0.5,7c4.6-3.5,8.6-6.4,12.4-9.5c0.6-0.5,0.6-1.9,0.8-2.9c0.2-1.2,0.3-2.4,1.1-3.4c-0.1,1-0.6,2.1-0.3,2.9
	c0.3,0.8,1.3,1.6,2.1,1.7c2.3,0.2,4.7,0.1,7.1,0.4c-6.4-0.4-11.5,2.2-16.1,7.3c2.8,0.8,5.4,1.5,8.6,2.3c-2,0-3.6,0.4-4.8-0.1
	c-4.5-1.9-7.5,0.1-10.2,3.4c-0.9,1.1-2.1,1.8-3.2,3.8c3.7,0.2,7.4,0.6,11.2,0.4c5.1-0.1,10.2-1.5,15,1c1.2,0.7,2.2,1.8,3.1,3.1
	c-5.2-5.2-11.3-2.5-17-2c-8.5,0.7-16.9,1.5-23.4-5.8c-0.3,0.2-0.7,0.4-1,0.6c1.2,2.7,2.4,5.4,3.7,8.4c-1.8-1.7-3.4-3.4-4.7-4.6
	c-0.4-3-0.4-6.1-1.2-8.9c-1-3.4-2.6-6.5-4-9.7c-3.5-8-10.1-12.5-18.1-14.6c-5.7-1.5-11.9-1.9-17.8-2.3c-5.5-0.4-5.1-0.6-7.2,5.9
	c-2.9,9.1-2.7,18.3-0.4,27.6c7.5-5.3,6.2-13.5,7.4-20.9c2.5,1.5,0.7,3.8,0.6,5.9c-0.2,2.2-0.4,4.5-0.6,6.9c5.2-2.9,8.9-5.1,9.9-15.6
	c0.8,1.9,1.5,3.6,2.2,5.3c-2.3,3.4-4.7,6.9-7.1,10.5c4.5,0,8.6-0.6,10.1-5.9c-0.2,1-0.3,1.9-0.5,3.2c4.4-0.2,6.6-3.2,9.6-5.5
	c-1.2,1.8-2.3,3.5-3.5,5.4c0.4,0.4,0.9,0.9,1.1,1c-2.6,0.8-5.5,1.6-8.6,2.5c2.4,2.2,2.4,2.2,11.3,1.1c-0.9,0.6-1.6,1-3,1.9
	c2.8,0,4.8,0,7.2,0c-3.2,2-6.4,2-12.7,0.4c-3.9-1-7.8-2.7-11.4,0c1.8,2.3,3.9,4.7,5.5,7.3c1.3,2.1,2.5,3.2,5.1,2
	c2.7-1.2,5.7-1.7,8.5-2.6c0-0.3,0,0.2,0,0.7c1.6,0.3,3.2,0.6,4.7,0.9c0,0.2-0.1,0.5-0.1,0.7c-2.6,0.1-5.1,0.1-7.7,0.4
	c-2.5,0.4-4.8,1.2-7.7,1.9c3.8,3.4,7.6,3.4,12.5,1.9c-0.9,0.8-1.2,1.2-1.5,1.4c-0.5,0.3-1,0.4-2.2,0.8c5.7,0.4,9.6,2.6,12.9,7.1
	c-0.8-0.2-1.1-0.2-1.2-0.3c-2.8-3.9-7-5-11.3-5.9c-7.1-1.5-7.1-1.5-12.4-5.8c0,1.6,0.1,2.8,0,4.1c-0.1,1.1-0.6,2.1-1.2,3
	c0.7-5.4,0.8-10.3-3.9-14.2c-2.7-2.3-4-2.2-5.7,1c-0.6,1.1-1.2,2.3-1.9,3.7c2.6,0,5,0,7.4,0c0,0.2,0,0.5,0,0.7
	c-1,0.1-2.1,0.3-3.9,0.5c1.9,1.4,3.3,2.5,4.8,3.6c-0.1,0.1-0.1,0.2-0.2,0.4c-1.1-0.4-2.3-0.9-4-1.5c0.1,1.6,0.3,3,0.4,4.3
	c-0.2,0.1-0.3,0.1-0.5,0.2c-0.4-0.7-0.8-1.6-1.3-2.2c-0.8-1-1.8-1.9-2.7-2.8c-0.7,1.6-2.2,3.2-2,4.7c0.5,4.3,2,8.5,2.6,12.7
	c1.3,9.1,2.8,18.2,3.5,27.3c1.1,14.7,1.1,29.5,2.4,44.2c1.1,13.5,3.3,26.9,4.9,40.4c0.7,5.6,1.1,11.3,1.5,17
	c0.8,12.8,1.5,25.6,2.2,38.5c0.5,10.6,1.2,21.2,1.4,31.8c0.4,25.9,0.6,51.7,0.7,77.6c0,11.4-0.4,22.7-0.7,34.1c-0.2,8-0.4,16-0.7,24
	c-0.5,13.8-0.9,27.7-1.4,41.5c-0.5,12.5-0.9,25-1.4,37.5c-0.5,12.1-1,24.3-1.4,36.4c-0.5,13-1,26-1.4,39c-0.5,14.7-1,29.3-1.4,44
	c-0.3,9.2-0.5,18.4-0.7,27.6c-0.3,11.1-0.5,22.2-0.7,33.3c-0.3,19-0.5,38.1-0.7,57.1c-0.2,16.2-0.7,32.3-0.7,48.5
	c0,17.1,0.4,34.2,0.7,51.3c0.2,9.4,0.4,18.9,0.7,28.3c0.4,11.7,0.9,23.3,1.4,35c0.5,11.1,0.9,22.1,1.5,33.2
	c0.6,11.6,1.4,23.2,2.2,34.9c0.6,9.2,1.3,18.5,2.2,27.7c1.1,11.9,2.4,23.8,3.5,35.7c0.8,8.5,1.3,17,2.2,25.5
	c1,9.1,2.4,18.2,3.5,27.4c1,8.4,1.9,16.9,3,25.3c1,7.8,2.4,15.6,3.5,23.4c1.5,10.3,2.8,20.5,4.4,30.8c1.4,9.1,3.1,18.1,4.7,27.1
	c1.8,10.2,3.4,20.4,5.4,30.6c1.8,9.3,3.8,18.6,5.8,28.1c-4.9,0-9.5,0-14.5,0c-1.9-9.4-3.9-18.8-5.7-28.2c-1.6-8.4-3.1-16.9-4.5-25.3
	c-1.7-9.6-3.2-19.2-4.8-28.9c-1.4-8.1-2.9-16.2-4.1-24.3c-1.2-7.7-2-15.4-3.1-23.1c-1.1-7.8-2.2-15.6-3.3-23.4
	c-0.6-4.8-1.2-9.6-1.7-14.4c-0.9-7.8-1.9-15.7-2.8-23.5c-0.6-5.4-1-10.9-1.5-16.3c-0.9-9.3-2-18.6-2.8-27.9
	c-0.6-6.6-1-13.3-1.5-19.9c-0.9-12.4-1.9-24.8-2.8-37.2c-0.3-4-0.6-8.1-0.7-12.1c-0.3-6.3-0.5-12.6-0.7-18.9
	c-0.5-13.3-1-26.7-1.4-40c-0.5-14.2-1.1-28.4-1.4-42.6c-0.4-15.7-0.5-31.3-0.7-47c-0.2-17-0.7-34-0.7-51c0-20.2,0.4-40.5,0.7-60.7
	c0.2-11,0.5-22,0.7-33c0.2-9.2,0.4-18.4,0.7-27.6c0.5-14.7,0.9-29.3,1.4-44c0.4-12.7,0.9-25.5,1.4-38.2c0.5-12.5,1-25,1.4-37.5
	c0.5-12.1,1-24.3,1.4-36.4c0.5-13.9,1-27.9,1.4-41.8c0.3-8.1,0.5-16.2,0.7-24.3c0.3-10.8,0.6-21.5,0.7-32.3
	c0.3-25,0.6-50.1,0.7-75.1c0-8.4-0.3-16.7-0.7-25.1c-0.6-11.3-1.2-22.5-2.2-33.8c-1.1-11.7-2.8-23.4-4.1-35.2
	c-0.3-2.4,0-4.8-0.2-7.2c-0.7-10.3-1.8-20.6-2.1-30.9c-0.5-17.8-0.1-35.7-1-53.5c-0.5-10.7-2.9-21.2-4.4-31.8
	C6,285.6,5.4,279,4.3,272.5c-1.7-10-0.3-19.5,2.9-28.9c3.1-9.1,8.6-16.9,14.7-24.2c5.5-6.6,11.2-13.1,16.4-20
	c2.9-3.9,4.2-8.4,4.3-13.5c0.1-12.9-0.6-25.6-4.4-38c-1.9-6.3-6.5-10.6-11-14.9c-0.6-0.6-2.3,0.1-3.8,0.3c0.3-0.7,0.6-1.7,1-2.6
	c-1.8-2.7-5.8-4.2-5.1-7.4c4.4,4.2,9.2,8.8,14,13.4c0.2-0.1,0.3-0.2,0.5-0.3c-1.4-3-3.4-5.8-4.1-9c-1.2-5.4-1.6-10.9-2.3-16.4
	c-1.7-12.9-7.6-19.8-19.7-21c-1.2-0.1-2.5,0.2-3.8-0.5c2.1-0.1,4.2-0.3,6.2-0.4C8,85.6,5.8,82.2,3.6,78.8c0.4-0.3,0.8-0.6,1.2-0.8
	c2.3,10.5,12.9,11.8,19.9,17.6c-4-9.6-7.9-19.2-11.8-28.7c-0.1,0,0.6,0,2.2,0c-1.6-2.6-3-4.9-4.6-7.5c1.5,1.1,3,2.1,4.1,2.9
	c0.9,4.7,1.9,9.3,2.8,13.9c3.5-7.3-0.2-13.9-0.9-20.7c-0.3-2.7,0.6-5.4,1.6-8.1c-2.3,5.9,0.2,11.2,1.7,16.7c1,3.6,0.1,7.6,0.4,11.4
	c0.3,3.2,1.1,6.4,1.7,9.5c4.4-3.4,8.4-6.4,12.3-9.5c0.1,0.1,0.3,0.3,0.4,0.4c-1.9,2.2-3.7,4.4-5.5,6.4c1.2,0.4,3,1.1,4.9,1.8
	c0,0.2-0.1,0.3-0.1,0.5c-1.3-0.3-2.6-0.9-4-0.9c-1.5-0.1-3.6-0.2-4.4,0.6c-0.9,1-1.3,3.2-0.9,4.7c1.1,4.2,3.1,8.1,4.1,12.3
	c0.9,4,0.9,8.2,1.6,12.3c0.8,4.7,1.8,9.3,2.8,14.2c3-4.9,5.5-9.1,8.1-13.2c6.3-10.2,4.9-21.1,2.6-32c-1.4-6.6-5-11.9-9.5-17.1
	c-5.2-6.1-11.7-11.9-12.1-21c-0.1-1.7-0.3-3.5,0.2-5.3c0.5,2.8,0.7,5.8,1.5,8.5c0.8,2.7,2.1,5.3,3.6,7.8c-1.4-7.9-0.3-16.2-4.3-23.5
	c-0.1-0.2-0.1-0.5-0.1-0.7c0-5,0-10.1,0.5-15.1c0.1,1.7,0.2,3.4,0.4,6c3.6-7.2,6.3-13.7,5.9-21.1c-0.6,2.8,1.4,5,0.6,8.2
	c-1.6,6.2-5.6,11.4-6.3,17.8c-0.2,1.5,0,3,0,4.3c3.1-3.8,6.1-7.2,8.7-10.9c1-1.4,1.2-3.4,1.6-5.2c0.7-2.6,1.2-5.2,2.1-8.6
	c0.2,1.8,0.4,2.7,0.5,4c0.8-0.9,1.4-1.6,1.9-2.2C37,13,35.2,17.6,33.1,23c2.3,1.1,4.7,2.3,7,3.5c0,0.2,0,0.3-0.1,0.5
	c-2-0.7-4-1.5-6.1-1.9c-1.3-0.2-3.2-0.2-3.9,0.6c-3.1,3.7-5,7.6-3.3,12.9c1.2,3.6,1.6,7.6,1.9,11.4c0.5,8.2,5.7,13.4,10.6,18.2
	c0.8-4.1,1.8-8.3,2.2-12.6c0.2-1.9-0.5-4.2-1.5-6c-2.3-3.9-3.1-7.9-2.1-12.8c0.7,3.6-0.2,7.2,2.8,10.3c0.3-1.7,0.5-2.9,0.7-4.1
	c-0.1,0.1-0.3,0.1-0.4,0.2c0.7,3.5,1.5,7.1,2.2,10.6c0.1,0.5,0.2,1,0,1.4c-3.3,8-1,15.5,1.4,23.2c1.9,6.1,3,12.5,4.5,19
	c4.7,0.7,11.3-4.5,13.7-10.7c3.3-8.3,1.9-15.8-3.3-22.8c-4.7-6.3-4.9-13-2.6-20.1c0.5-1.7,1.2-3.3,1.5-5.1c0.5-2.9,0.8-5.9,1.1-8.4
	c-0.3-0.2,0.3,0.2,1.6,1.4c-1.3-3.9-2.3-6.9-3.3-9.9c3.7,4.7,4.1,10,2.5,16.1c2.1-0.8,4-1.3,5.4-2.2c2.3-1.6,4.3-3.5,2.7-6.8
	c-2.1-4.4-4.1-8.9-5.8-12.8c0.9,1,2.4,2.7,4,4.5c1.3-3.6,5.3-6.3,2.1-10.9c0.4,0,0.8,0.1,1.2,0.1c0.3,1.8,0.6,3.6,1,5.7
	c1.4,0.1,3,0.3,4.6,0.4c0,0.2,0,0.4,0,0.7c-0.4,0.1-0.9,0.3-1.2,0.2c-3.8-0.9-6.3,0.8-6.6,4.6c-0.3,3.5,1.8,5,5.1,4
	c2.2-0.7,4.5-1.4,6.9-1.7c1.7-0.2,3.6,0.4,5.9,0.7c-5.8,0.9-10.9,1.8-16.2,2.6c0.2,1.3,0.5,2.8,0.7,3.8c4.9,0,9.7,0,14.9,0
	c-0.8,1-1.4,1.7-2,2.5c-2.2-0.9-4.8-1.9-7.7-3c1.2,2.8,2.1,4.8,3,6.8c-1.8-2.2-2.1-5.6-5.9-5.3c-2.5,0.2-5.2,4.2-4.6,6.2
	c-1.1,0-2.2-0.2-3.2,0c-3.3,0.6-5.2,2.1-6.4,5.9c-2.4,7.9-0.9,14.5,4.1,20.8c1.4,1.8,2.4,4,3.3,5.5c3.1-6.4,6.3-13.1,9.3-19.4
	c-0.1,1.2-0.2,2.9-0.3,4.9c4.1-2.2,7.1-5.3,9-9.7C82.8,48,82,50.2,81,53c-4.9,2-9.3,5.8-11.8,12.1c1.2-0.2,2.1-0.4,3.1-0.5
	c-6,2.6-4.2,8.4-5.3,12.9c-0.8,3.1-0.8,6.3-1.6,9.3c-0.9,3.2,1,5,3.1,6.1c2.4,1.3,4.3,0.1,5.8-2.2c-0.7,1.6-1.5,3.1-2.6,5.5
	c2-0.5,4.1-0.5,5.5-1.5c1.9-1.4,3.8-3.3,4.5-5.4c1.4-4.2,4.5-3.6,6.3-3.7C84.8,89,81,92.9,76.7,97.2c7,0.5,13.6-3.4,19.7-0.6
	c-3.6,0.4-7.5,1-11.5,1.4C78,98.7,71,99.3,65.8,93.2c-1.3-1.5-2.3-1.9-3.7,0.2c-2.8,3.8-6.7,6.2-11.2,7.7c-1,0.4-2.2,1.6-2.5,2.6
	c-1.6,6.5-4.2,12.3-8.2,17.7c-3,4-3.6,9-2,13.8c2.5,7.7,5.2,15.3,7.8,22.9c2.4-5.2,6.5-9.1,11.9-11.5c3-1.4,3.1-3.7,2.5-6.5
	c-0.9-4.1-1.5-8.3-2.4-12.5c-0.7-2.8-1.4-5.7-2.7-8.3c-2.2-4.7,0.4-8.3,2-12.3c-2.8,5.7-1.8,11,1.1,16.2c6.7-4.8,7.8-12.4,10.5-19.6
	c0.2,0.9,0.4,1.6,0.5,2.3c1.6-1.2,3.2-2.3,4.8-3.4c-2.3,3.9-8,5.5-7.1,11.7c4.4-2.5,8.5-4.8,12.5-7.1c0-0.1-0.1,0.4-0.3,1.9
	c3.1-2.2,5.6-4.1,8.2-5.9c0.1,0.1,0.3,0.3,0.4,0.4c-1.8,1.5-3.4,3.3-5.4,4.5c-2.1,1.4-4.5,2.2-6.6,4c4.8-1,9.6-2.1,14.3-3.1
	c-1,0.7-2.2,1.5-4.2,2.8c-8.3,0.2-17.9,0.2-23.6,10c-1.9,3.2-2.3,6.6-1.7,10.7c2.6-1.1,4.9-2.1,7.2-3c0.1,0.2,0.2,0.3,0.3,0.5
	c-2,1.3-4,2.7-6.6,4.4c0.7,2.7,1.5,5.8,2.4,9c11.4-3.7,20.4-10,26.5-20.1c3.5-5.7,7.5-11.3,9.8-17.4c1.8-4.7,1.6-10.2,1.7-15.4
	c0-1.5-1.8-3.3-3.2-4.4c-5.6-4.5-11.4-8.7-17.1-13.1c-0.8-0.6-1.3-1.5-1.4-2.6c1,0.9,2,1.8,3.8,3.5c-1.1-4.1-1.9-7.2-2.8-10.3
	c0.2-0.1,0.4-0.2,0.6-0.2c0.5,1.2,0.9,2.4,1.6,4.1c0.5-1,0.9-1.6,1.2-2.2c-2.7,7.5,2.9,10.8,7.4,14.4c2.9,2.3,6.2,4.2,10,6.1
	c-1.2-2.4-2.1-5.2-3.8-7.2c-3.9-4.6-7.7-8.9-7.1-15.6c0.2-1.9-1.2-3.9-1.3-6.4c0.4,0.5,0.7,1,1.6,2.1c-0.3-2.4-0.5-4.4-0.7-6.3
	c0.3,0,0.6,0,0.9-0.1c0.3,5.6,0.6,11.1,1,17.4c0.9-1.1,1.4-1.7,2.3-2.7c-0.6,4.3,0.8,7.4,3.8,9.6c0.9,0.6,3.1,0.6,3.9,0
	c2.9-2.5,4.7-5.4,3.3-9.7c-0.8-2.5-0.6-5.4-0.9-8.4c2.4-1,1.5-3.4,0.7-5.7c0.3,0,0.7,0,1,0c0,2.7,0,5.5,0,8.2
	c3.5-5.2,4.2-10.7,2.8-16.6c0.7,1.6,1.4,3.2,2.2,4.8c0.8-0.4,1.4-0.8,1.4-0.8c-1.3,4-2.8,8.4-4.3,12.9c4.9,0.6,7-1.1,9.1-6.1
	c1-2.4,2.5-4.5,4.5-6.3c-1.4,2.6-2.8,5.1-4.1,7.6c1.5,0.9,2.7,1.6,3.8,2.4c-3.1-2-4.9-0.3-6.8,2c-1,1.2-3,2-4.6,2.1
	c-2.2,0.2-3,1-2.9,3.1c0.1,2,0,4.1,0,6.9c3.4-1.3,6.3-2.5,10-4c-2.1,2.6-5.7,1.9-5.9,5.2c-0.6-0.1-1.2-0.2-1.7-0.2
	c-4.8,0-8.6,5-7.4,9.5c0.7,2.3,1.1,4.8,1.4,7.2c0.2,2.3,0,4.7,0,6.9c7.6-13,15.1-25.9,22.7-38.8c0.2,0.5,0.4,1.2,0.5,1.5
	c3.7-3.2,7.5-6.4,11.2-9.6c0.2,0.2,0.4,0.4,0.6,0.6c-2.6,2.5-5.4,4.8-7.9,7.4c-2.8,2.9-5.4,6-7.8,9.2c-2.3,3.1-4.2,6.6-5.7,10.4
	c2-1.5,3.9-3.3,6.2-4.3c2.3-1,4.9-1.2,7.5-1.5c-10.1,2.9-18,8-20.5,18.8c12.1-2.1,15-3.9,22.7-13.4c-0.7,1.6-1.4,3.2-2.3,5.1
	c1.3,0.2,2.5,0.3,2.9,0.4c-2.2,0.9-4.9,2-7.6,3.2c0.1,0.3,0.1,0.6,0.2,0.9c3.6,0.9,7.3,2.7,10.9,2.5c4.8-0.4,6.2-5.2,8.1-9
	c0.8-1.5,1.2-3.2,2.4-4.5c-0.7,6.1-4.1,10.7-8.5,14.8c5.7,4.9,14.3,3.2,21.8-3.7c2.3,0.4,4.1,0.8,5.7,1.1c-2.5,0.5-5.2,1.1-7.9,1.7
	c0.1,0.2,0.1,0.4,0.2,0.7c1.6,0.3,3.1,0.6,5.5,1.1c-4.3,0.2-7.8,0.4-11.2,0.6c0,0.3,0,0.7,0,1c3,1.5,7.2,0.7,9.1,4.4
	c-5.1-3.3-10.5-4.4-16.7-2.1c1.8,0.8,3.3,1.5,5.8,2.6c-2-0.2-3.4,0-4.3-0.5c-2.9-1.6-5.5-3.6-8.4-5.2c-9.5-5.3-21.2-4.1-29.8,2.9
	c-1,0.8-1.7,2-2.3,3.1c-3.3,6.9-6.5,13.8-10.2,21.6c2.8,0.8,5.6,2,8.4,2.3c5.2,0.5,10.4,0.7,15.7,0.7c1.3,0,2.7-1.3,3.8-2.3
	c1.8-1.6,3.4-3.6,5.3-5.1c4.2-3.4,4.7-6.5,1.6-10.9c-0.7-1-0.7-2.6-0.7-3.9c0.7,1.5,1.5,3,2.4,4.8c1.1-1.6,1.8-2.7,2.6-3.8
	c-0.4,3.3-0.8,6.4-1.1,9.1c6-1.1,11.8-2.1,17.9-3.2c-0.2,0.4-0.4,0.9-0.6,1.4c5.8,0.2,12.9-1.4,18.6-6.6c0.3,0.5,0.5,1,0.8,1.4
	c-2.8,1.5-5.6,3-9,4.9c2.5,0,4.3,0,6.1,0c0,0.3,0.1,0.6,0.1,0.9c-1.2,0.2-2.3,0.4-3.5,0.5c-4.3,0.3-8.7,0.5-13,0.7
	c-1.1,0.1-2.2,0.3-3.2,0c-6.2-2-11,0.9-15.5,4.4c-3.1,2.5-5.8,5.4-9.2,8.5c3.7,2.4,6.6,4.5,9.7,6.3c4.2,2.5,8.6,1.8,13.1,0.9
	c5-1.1,8.4-3.3,7.7-9.2c0-0.2,0.4-0.5,1-1.3c-0.3,2.9-0.4,5.1-0.7,7.5c2.5-0.7,5-1.5,7.6-1.9c2.5-0.3,5-0.1,8.2-0.1
	c-4.3,0.8-8.1,1.2-11.7,2.2c-3.7,1-7.3,2.6-11.7,4.2c1.5,1.6,2.6,3.8,4.2,4.1c3.7,0.8,7.6,0.9,11.4,1.1c4.2,0.2,8.4,0,12.7,0
	c0,0.4,0,0.7,0,1.1c-1.8-0.2-3.5-0.4-5.5-0.6c2.8,1.6,5.3,3.1,7.8,4.5c-0.2,0.3-0.3,0.6-0.5,0.9c-5.9-4.8-12.7-5.3-19.7-4.2
	c-3.9,0.6-6.8-1.2-9.3-3.6c-2-1.9-3.8-2.9-6.6-2.7c-2.5,0.2-5.1-0.2-7.7-0.3c2.2,4.1,5.9,5.7,10.5,6.3c2.3,0.3,4.4,1.8,6.2,3.5
	c-2.9-1.2-5.7-2.3-8.6-3.5c-0.2,0.4-0.4,0.9-0.6,1.3c1.6,0.8,3.2,1.6,5.6,2.8c-6.5-0.8-9.6-4.9-13.3-7.9c-0.3,0.4-0.7,1-0.8,1.1
	c-0.8-1.7-1.2-3.6-2.3-4.7c-4-4-8.4-6.9-14.6-6.5c-5.5,0.3-11.5,0.7-16.6-0.9c-4.3-1.3-5.9,0.1-7.9,2.9c-2.8,3.9-5.9,7.7-8.8,11.6
	c3.3,1.9,6.5,4.4,10.2,5.7c2.6,0.9,5.8,0.7,8.5,0.3c3.8-0.7,7.6-1.7,11.1-3.3c2.8-1.2,5.1-3.5,7.2-5c-0.6,1.1-1.6,3.1-2.8,5.4
	c5.6-0.1,11.3,1.5,16.3-2.5c-0.5,0.7-1,1.3-1.8,2.2c1.4,0.3,2.6,0.5,3.8,0.8c0,0.4-0.1,0.7-0.1,1.1c-8.8,0-17.6,0-26.4,0
	c0,0.3,0,0.6,0,0.9c1.4,0.6,2.9,1.2,4.3,1.8c-4.6-0.8-9.1-1.3-13.1,2.4c3.3,0.2,6.5,0.3,9.8,0.5c1.9,0.1,3.8,0.2,5.6,0.7
	c4.3,1.1,8.4,0.9,12.2-1.6c0.9-0.6,2-1,3.4-0.8c-2.3,1.4-4.7,2.8-7,4.1c0.1,0.3,0.2,0.5,0.3,0.8c3.4-1,6.9-1.7,10.1-3
	c4.5-1.8,8.8-2.1,13.5-1c4.8,1.1,9.8,1.7,14.7,0.1c-1.5,0.5-3.2,0.8-4.6,1.5C157.4,150.7,156.7,151.8,156,152.5L156,152.5z"/>
<path d="M105.9,92.8c-0.7-3.6-1.3-7.4-2-11.1c-0.8-3.6,2.4-4.5,4.3-6.2c1.6-1.4,2.8-0.6,3.4,1.3c0.1,0.3,1.2,0.7,1.4,0.6
	c0.5-0.4,1.1-1.2,1-1.6c-0.6-2.8,0.9-3.8,3.4-4.2C113.4,78.8,109.6,86,105.9,92.8z"/>
<path d="M135.6,139.9c0.5,0.1,1.5,0.2,2.4,0.6c2.3,1.2,4.4,2.7,6.8,3.8c1,0.4,2.4-0.2,4.5-0.4c0.5,0.7,1.5,2.3,2.7,4.3
	c-7.3-1.8-14-1.9-20.5,1.2c1.9-1.1,4.4-1.7,5.3-3.3C137.5,144.9,136.2,142.5,135.6,139.9z"/>
<path d="M161.1,191c-4.9-1.9-9.7-3.8-14.6-5.7c0.3-0.6,0.5-1.1,0.8-1.7c1.8,0.9,3.5,1.7,5.2,2.6C155.5,187.7,158.3,189.4,161.1,191
	C161.1,191,161.1,191,161.1,191z"/>
<path d="M155.9,152.6c1.1,0.3,2.7,0.2,3.2,1c2.3,3.3,5.4,4.5,9.3,4.4c-1.7,0.1-3.5,0.2-5.7,0.3c1.3,1.5,2.3,2.6,3.4,3.8
	c0.1-0.1,0.1-0.1,0.2-0.2C162.9,158.8,159.5,155.7,155.9,152.6C156,152.5,155.9,152.6,155.9,152.6z"/>
</svg>
