<?xml version="1.0" encoding="utf-8"?>
<!-- Generator: Adobe Illustrator 17.1.0, SVG Export Plug-In . SVG Version: 6.00 Build 0)  -->
<!DOCTYPE svg PUBLIC "-//W3C//DTD SVG 1.1//EN" "http://www.w3.org/Graphics/SVG/1.1/DTD/svg11.dtd">
<svg version="1.1" xmlns="http://www.w3.org/2000/svg" xmlns:xlink="http://www.w3.org/1999/xlink" x="0px" y="0px"
	 viewBox="0 0 440 760" enable-background="new 0 0 440 760" xml:space="preserve">
<g id="Layer_2" display="none">
	
		<rect x="-21.9" display="inline" fill="#020202" stroke="#FFFFFF" stroke-width="3" stroke-miterlimit="10" width="484.6" height="770.5"/>
</g>
<g id="Layer_1">
	<path fill="#020202" stroke="#FFFFFF" stroke-width="2" stroke-miterlimit="10" d="M351.3,641.3c-7.4-32.4,0.5-66.6-6.9-98.9
		c-4.6-20.8-10.2-41.2-21.7-59.6c-2.3-3.2-3.7-6.9-6-9.7c-6.9-9.2-2.8-18,1.8-26.4c6-10.6,12.5-21.7,19.4-31.9
		c5.5-7.9,11.1-16.2,18.5-22.2c7.9-6.9,17.1-14.3,29.1-6.9c1.8,0.9,5.1,0.5,9.2,0.5c-6.5-2.3-11.1-4.6-16.2-6.9
		c4.2-3.2,7.9-5.5,10.6-7.9c7.4-6.9,11.1-7.9,19.9-3.2c0.5-0.5,0.5-0.9,0.9-1.8c-4.2-1.8-7.9-3.2-12.5-5.1c3.7-6,7.4-12.9,11.1-19.4
		c-0.5,0-0.5-0.5-0.9-0.5c-1.8,1.4-3.2,3.2-5.1,4.6c-0.9-0.9-1.4-1.4-2.8-2.8c1.8,12.9-13.4,29.6-28.2,31.4
		c1.4-4.2,3.2-8.3,4.2-12.5c2.8-10.2,4.6-19.9,12.9-27.7c4.6-4.6,10.6-10.2,6.5-18.5c-0.5,4.6-0.9,4.2-6.5,11.1
		c-6,7.9-10.6,16.6-16.2,25c-3.2-5.5-5.5-11.6,0.9-16.2c-1.8-2.3-3.2-3.7-4.6-5.1c-0.9,7.9-0.9,15.3,0.9,22.2
		c2.3,9.7-0.9,18-11.6,22.7c-3.2-14.3-7.9-27.7-6.9-42.5c0.5-4.6-1.4-9.7-2.3-14.8c-0.5-2.3-0.9-5.1,0-7.4c2.8-8.3,9.7-10.6,18-11.6
		c6-0.9,12-4.2,18-6.5c2.3-0.9,4.6-2.8,6-3.2c-0.5-2.8-0.9-5.5-0.9-9.2c-1.8,7.9-5.1,12.5-12.5,13.4c0-1.4,0-2.3,0-3.2
		c-4.6,10.2-12.9,5.1-19.4,6c0.5-4.6,0.9-8.3,1.8-12.5c-3.2,4.6-4.6,9.7-7.4,13.9c-2.8,4.2-6,7.9-9.2,12
		c-11.6-4.2-14.8-12.5-6.9-22.2c2.3-3.2,5.1-6.5,7.9-9.2c0.9-1.4,2.3-3.2,3.2-3.7c9.7-2.8,19.4-5.5,28.7-7.9c0-0.5,0-0.9,0-1.4
		c-5.5,0.9-10.6,1.8-16.2,2.8c0-0.9-0.5-2.3-0.9-4.6c-0.9,1.8-1.4,3.7-2.3,4.2c-2.3,0.9-5.1,1.8-7.4,2.3c-0.5-2.3-2.3-4.6-1.4-6.5
		c1.4-4.6,3.2-9.2,6-13.4c4.6-6.5,10.6-12,16.2-18c0.5-0.5,0.5-1.4,0.9-3.2c-2.3,1.8-3.2,2.8-5.1,4.2c-0.5-1.4-0.9-2.8-0.9-4.2
		c0,9.2-7.4,12.5-12.5,18c-0.5-1.4-0.9-1.8-1.8-3.2c-0.5,11.6-7.4,31-11.6,34.7c-0.9-2.3-2.3-4.6-3.7-6.9c4.2,6.5-0.9,13.4-7.9,21.7
		c-0.9-4.2-1.4-7.4-1.8-11.1c0-6.9,1.8-13.4,6-19.9c6-10.2,8.8-21.7,12.9-32.8c-0.9,0.5-1.8,0.9-3.2,1.4c-0.5-2.8-0.5-5.1-0.9-7.9
		c-0.5,0-0.9,0-0.9,0c0,4.6,0,9.7,0,14.8h-0.5c-0.5-1.4-0.5-2.8-0.9-4.2c0,0-0.5,0-0.9,0c0,2.3,0,5.1,0,7.4c-1.4,0-2.3,0-3.2,0
		c0.5,0,1.4,0.5,1.8,0.9c-1.4,4.6-2.3,9.7-4.6,13.9c-11.6,17.1-11.1,41.6,6.9,55c6.5,5.1,14.8,12.5,8.3,23.1
		c-3.2-3.2-6-7.9-9.7-10.2c-7.9-5.1-11.6-12.5-14.3-20.8c-0.9-3.2-2.8-6.9-4.6-9.7c-3.2-4.2-6.9-7.9-10.2-11.6c0,0-0.5,0.5-0.9,0.9
		c3.7,4.6,7.4,9.7,11.6,15.3c-3.2,0-5.1-0.5-4.6-0.5c3.7,5.5,7.9,11.6,13.4,19.4c-3.7-0.9-5.1-0.9-6-1.4
		c28.7,13.9,28.7,42.1,33.3,67c-6,4.6-11.1,9.2-16.2,12.9c-4.2-7.9-7.4-15.3-11.6-21.7c-4.6-7.9-4.6-11.1,2.8-16.6
		c1.4-0.9,3.2-0.9,5.1-1.8c2.3-0.9,5.1-2.8,7.4-4.2c0,0-0.5-0.5-0.5-0.9c-2.8,0.9-5.1,1.8-9.2,3.2c0-5.5,0-9.2,0-12.9
		c0.9,7.9-3.2,12.9-10.2,15.7c-3.2-7.4-6.5-14.8-0.9-22.7c-3.2,4.2-5.5,6-8.8,0c-1.8-3.7-6-6-9.7-9.7c4.6,7.9,8.8,14.8,12.5,21.7
		c-0.9,0.5-1.8,1.4-2.3,1.8c-5.5-3.7-11.1-7.9-16.6-11.6c1.8,3.7,3.7,7.4,6,12c4.6,0.5,12.5,1.4,12.5,7.4
		c0.5,12.9,6.9,23.6,11.1,35.6c3.7,10.2,1.4,19.4-5.1,27.3c-6.9,8.3-14.8,15.3-23.6,24c-5.1-10.2-11.1-18.5-13.9-27.7
		c-5.5-19.9-9.2-40.2-14.3-60.6c-2.8-11.6-4.6-22.7,0.9-33.3c5.1-10.2,10.6-20.3,16.2-30.5c7.9-13.4,18.5-25.4,21.3-41.2
		c2.3-13.4,3.2-26.8,3.2-40.2c0-18,5.5-32.4,18.5-45.3c7.4-7.4,14.8-15.3,17.1-26.4c1.8-6.9,5.1-13.9,7.9-20.8
		c3.2-7.9,6.5-15.3,5.1-24c-0.9-6,2.8-8.8,7.9-9.7c2.3-0.5,4.2-0.9,6-1.4c0-1.8-0.5-3.2-0.5-4.2c-3.7,1.8-7.4,4.2-11.1,6
		c-0.5-0.5-1.4-1.4-1.8-1.8c2.8-6.5,6-13.4,8.8-19.9c-3.2-0.9-3.2-0.9-4.2,2.3c-0.9,3.2-2.3,6.5-3.7,10.2c-1.4-1.8-2.3-3.2-3.2-4.6
		c0,17.1,1.8,33.8-9.2,49.5c-0.9-9.2-2.3-17.6-2.8-25.4c0-6.9,0-13.9,1.8-20.3c1.4-4.6,5.5-8.8,9.2-12.5c6-6.5,12.5-12.5,19.4-18.5
		c0,0.5,2.8,1.4,4.6,0.9c-1.4-0.9-2.3-1.8-3.7-3.2c0.9-0.9,2.3-1.4,3.2-2.3c-0.5-0.5-1.4-1.4-1.8-1.8c-3.2,3.2-6,6.9-9.7,11.1
		c1.8-11.1,3.2-20.8,4.6-31c-2.3,4.6-4.6,9.2-4.6,13.4c1.4,16.2-9.7,25-18.5,35.1c4.2-14.3,8.3-28.2,12.5-42.5
		c-0.5,0-0.9-0.5-1.4-0.5c-0.5,0.9-1.4,1.8-2.3,3.2c-1.4-6.5-2.8-11.6-4.2-17.1c-0.9,0-1.4,0-2.3,0.5c0.5,2.3,0,5.1,1.4,6.9
		c6,12.9,4.6,25.4-3.7,38.8c-3.2-13.4-16.2-20.8-13.4-35.6c-0.9,0-1.8,0.5-2.3,0.5c0.5,4.6,0.9,9.2,1.4,13.9c-2.3-0.5-4.2-0.9-6-1.4
		c10.6,2.3,13.4,11.6,16.6,19.9c0.9,2.8,1.8,6.5,0.5,9.2c-8.3,18-5.1,36.5-4.6,55c0.5,11.6,0,22.2-6.9,31.4
		c-9.7,12.5-20.3,24-30.5,37c-1.4-3.2-2.8-7.4-5.5-10.2c-5.5-6.5-3.2-22.7,4.2-26.4c3.7-1.8,8.3-2.8,13.9-4.6
		c-8.8-2.3-13.4,3.7-19.9,5.5c0.5-3.2,1.4-6.5,1.8-9.2c0,0-0.5,0-0.9-0.5c-0.5,0.9-1.4,2.3-1.8,3.7c-0.5-1.4-0.9-1.8-1.8-3.2
		c0,7.9,0,14.3,0,22.7c-2.8-3.2-4.2-4.6-6-6.5c4.6,11.6,9.7,22.7,14.8,33.8c0.5,0.9,0.5,2.8,0.5,4.2c-1.4,15.3-2.3,31-4.2,46.2
		c-0.9,8.3-3.2,16.6-8.8,24c-0.5-0.9-0.9-1.4-0.9-1.8c0.9-19.4-8.3-33.8-22.2-45.8c-7.9-6.9-7.9-6.9-3.7-17.1
		c0.9-1.4,1.4-3.2,1.8-5.1c4.2-15.7,9.7-31,6-47.2c-0.5-1.4,1.8-4.2,3.2-5.1c5.1-3.2,11.1-5.5,15.7-9.2c4.2-3.2,7.4-3.2,12-2.3
		c6.9,1.4,14.3,2.3,19.4,2.8c0.9-2.3,1.8-3.2,1.8-4.2c-8.3-0.5-17.1-0.9-26.4-1.4c6.5-16.2,10.2-31.9,22.7-43.5
		c3.7-3.2,7.9-9.2,4.6-14.8c-1.8,4.6-4.2,10.2-6.5,16.6c-0.9-2.3-1.8-3.2-2.3-4.6c-3.2,6-6.5,12.5-9.7,18.5c-0.5,0-1.4-0.5-1.8-0.9
		c0-4.6,0-9.2,0-13.9c0.5-13.4,1.8-26.8,15.3-34.7c0.5,0,0.5-0.9,0.9-1.8c-2.8,1.4-5.1,1.8-8.3,3.2c0.5-4.6,0.9-8.8,1.4-12.9
		c-0.5,0.5-1.4,0.5-1.8,0.9c-3.2-10.2-7.9-19.9-10.2-31c0.5,4.2,0.9,8.3,1.4,12.9c-1.8-2.3-3.2-4.6-4.6-6.5
		c3.2,9.2,8.8,17.6,11.6,26.8c3.2,10.2-2.8,19.4-7.4,29.6c-4.2-9.2-8.3-17.1-12-25c0,0.5-0.5,2.8-0.9,6c-5.1-6-10.2-11.6-14.8-17.1
		c0.5-0.9,0,0-0.5,0.9c-0.5-0.9-0.9-1.4-1.4-2.3c-0.5,0.5-0.9,0.9-1.4,0.9c2.3,3.2,4.6,6.5,7.4,9.7c-1.4,0.5-2.8,0.5-5.5,1.4
		c12.5,1.4,17.1,9.2,22.7,17.1c-4.6-0.9-8.3-1.4-12.5-2.3c2.8,2.3,5.5,2.8,8.3,4.2c2.8,1.4,7.4,3.2,7.4,5.5
		c0.9,12.9,3.7,26.8,0.9,39.3c-2.8,14.3-14.8,23.1-30.1,26.8c-1.4-2.8-2.3-5.5-3.2-7.9c-4.6-7.9-3.2-15.7,0.9-23.1
		c3.7-7.4,7.9-13.9,18.5-11.6c-0.5-0.9-0.5-1.4-0.9-2.3c-4.6,0.9-9.7,1.8-13.9,2.8c0.5-2.8,1.4-6.9,2.3-11.1
		c0.9-4.6,2.3-8.8,1.8-13.4c0-2.8-3.2-5.1-4.6-7.9c2.8,18-1.8,33.8-9.2,49.9c-5.1-9.7-9.7-18.5-13.9-26.4c0,4.2-0.9,9.2,3.7,14.8
		c3.7,4.6,5.1,11.1,7.4,17.1c0.9,2.3,0.9,4.6,2.3,6.5c5.5,10.2,6.5,20.8,6.5,32.4c0,14.8-5.5,27.7-10.6,41.2
		c-0.5,0.9-3.7,2.3-3.7,2.3c-3.7-5.5-7.9-10.6-10.2-16.2c-1.8-3.2-1.4-7.9-2.3-12c-1.8-8.8,2.3-20.3,9.7-25.9
		c2.8-2.3,4.6-5.5,6.9-8.3c-0.5,0-0.5-0.5-0.9-0.5c-2.8,2.8-5.5,5.5-9.2,8.8c0.5-7.9,0.9-13.9,1.4-19.9c-0.5,0-0.9,0-0.9,0
		c-0.5,3.2-0.9,6-0.9,9.2c-0.5,0-0.9,0-1.4,0c-0.9-2.3-1.8-4.6-2.8-6.5c0,2.8,0.9,5.1,0.9,7.4c0,3.7,0.9,7.9,0,11.6
		c-2.3,8.3-5.5,16.6-8.3,24.5c-3.7-8.3-4.6-18-1.8-28.2c4.2-15.3,5.1-31,0.5-46.7c-0.5-1.4,0.5-4.6,1.4-5.5
		c7.4-5.1,7.9-12.9,9.2-20.3c1.4-7.4-0.5-16.6,11.6-18c-2.3-0.9-3.2-1.4-4.2-2.3c3.2-1.4,6-3.2,9.2-4.6c1.8-0.9,3.2-1.8,4.6-2.8
		c-0.9,0.9-0.9,0.5-1.4,0c-2.3,1.4-4.6,2.3-7.4,3.7c-0.5-9.2-1.4-17.1-1.8-25.9c-0.9,0-1.8,0-2.8,0.5c0.5,5.1,1.8,10.2,1.8,15.3
		c0,3.7,0.5,8.3-1.4,11.1c-3.2,5.1-7.9,9.2-11.6,13.4c-0.9-1.4-1.8-4.2-3.2-6.9c-0.5,0.9-0.9,0.9-0.9,1.4c0.5,1.4,0.9,2.8,1.8,4.2
		c4.2,9.2,2.3,18-2.8,25.9c-0.9,2.3-5.5,4.6-6.9,4.2c-5.5-3.2-10.2-7.9-16.2-12.5c3.2-1.8,5.5-2.8,8.8-4.6c-2.3,0-3.7,0-6,0
		c7.9-8.8-0.9-21.3,8.8-28.7c-1.8-0.9-3.2-1.4-5.5-2.8c-0.5,4.2-0.9,8.3-1.4,12.5c0,0-0.5,0-0.9,0c-0.9-5.1-1.4-10.2-2.3-15.3
		c-4.2,12,9.2,25.9-4.6,37.5c-6.5-7.9-9.2-17.6-8.8-28.2c-1.4,1.4-1.8,2.3-2.8,3.2c-1.8-2.3-3.7-4.6-5.1-6.5
		c4.6,7.9-0.5,7.9-6.5,7.9c2.3,0.9,4.2,1.8,5.1,1.4c4.6-1.8,6,0,6.9,4.2c0.5,2.3,1.4,4.2,2.3,6.5c1.8,6.9,4.2,13.4,11.1,17.1
		c15.3,7.9,19.9,21.3,19,37c-0.5,8.3-2.8,17.1-5.1,25.4c-4.2,16.6-1.4,32.4,8.3,46.2c10.2,13.9,21.7,26.4,33.3,39.3
		c15.3,17.6,14.3,37.5,6.9,55.5c-4.6,11.6-12.5,21.7-19.4,32.4c-0.9-1.8-1.4-3.2-2.3-5.1c-4.2-7.4-7.9-15.7-12.9-22.2
		c-4.6-6-2.3-11.1-0.9-17.1c0.9-5.1,4.6-6.5,9.2-7.4c0.9,0,2.8-0.5,3.2-0.9c3.7-10.2,11.6-6.9,19-6.5c0-0.5,0-1.4,0-1.8
		c-3.7-0.5-7.9-0.5-11.1-0.9c0.9-5.5,1.8-11.6,2.8-17.1c-0.5,0-0.9,0-1.4,0c-1.4,3.2-2.3,6.9-4.2,11.1c-2.3-6.9-4.6-12.9-6.5-19.4
		c-1.4-0.5-2.3-0.5-3.2-0.9c6,13.9,14.8,28.7-7.9,33.3c-0.9-4.2-1.4-8.3-2.3-12.5c-4.6-12.9-12-24.5-20.8-34.7
		c-4.2-5.1-11.1-9.2-3.7-17.1c0.9-0.5,0-2.3,0.5-3.2c2.3-5.5-0.5-12.5,5.5-16.6c0.5,0,0.5-0.9,0.5-1.4c-0.9,0-2.3,0.5-2.8,0.5
		c0-2.3,0.5-5.1,0.9-7.9c0,0-0.5,0-0.9,0c-1.8,5.1-4.2,10.2-6,15.3c-0.5,0-0.9,0-1.4,0c-0.9-6-1.8-12-2.8-18.5c-0.9,0-1.8,0-2.3,0
		c0,3.2-0.5,6.5,0,9.2c0.9,5.1,3.7,9.7,4.6,14.8c0.5,2.3-1.4,5.1-2.3,7.9c-1.8-0.9-3.7-1.4-5.1-2.8c-11.6-10.6-13.9-24.5-11.1-39.3
		c1.4-6.9,3.7-14.8,13.9-16.2c4.2-0.9,7.4-5.1,11.6-7.4c-5.1,1.4-9.2,3.7-13.4,6c-0.5,0-1.4-0.9-2.3-1.8c-2.8,3.2-5.5,6-8.3,8.3
		c-0.9-4.6-1.8-9.2-2.3-12.9c-0.9,12.9-1.8,26.8-2.8,40.7c-0.9,0-1.8,0-2.3,0c-0.5-2.8-0.9-5.5-0.9-8.3c0,0-0.5,0-0.9,0
		c0,1.8-0.5,3.7-0.9,6.9c-2.8-3.2-5.1-5.5-6.9-7.9c0.5,4.2,0.5,7.4,5.1,9.2c2.8,0.9,5.1,4.2,6.9,6.9c11.6,17.1,23.6,34.7,34.7,51.8
		c8.3,12.9,14.3,27.3,9.2,43.5c-24.5-8.8-30.1-26.4-24-50.4c-0.5,0-1.4,0-1.8,0.5c-0.9,3.7-1.8,7.4-2.3,11.1
		c-4.6-10.2-14.3-18-11.6-30.1c-1.4,0.5-3.2,0.9-3.2,0.5c-0.5-1.4-0.5-3.2-0.9-4.6c-0.5-0.9-0.9-1.8-1.4-2.8c-0.5,0-0.9,0-1.4,0.5
		c2.3,9.2,4.6,18.5,7.4,28.7c-3.7-0.5-6.9-1.4-10.6-1.8c-0.9,0.5-1.4,0.9-2.3,1.8c17.1,1.8,19,13.4,19.9,27.7
		c-5.1-3.2-9.2-5.5-12.5-8.3c-11.6-8.8-22.2-18.5-23.6-34.2c-1.4-15.3-5.5-30.5-1.8-46.2c3.7-16.2,6-33.3,23.6-41.6
		c4.6-2.3,4.6-4.6,3.7-7.4c-0.5-3.2,0.5-6.9,0.9-10.6c-4.2,6.9-1.8,16.6-12.9,19.9c1.8-12.9,3.7-25.4,6.5-37.5
		c-0.5,0.9-0.9,2.3-1.4,3.2c-2.8-11.6-5.5-22.2-7.9-32.4c-0.9,0-1.4,0-2.3,0c7.9,27.3,13.9,54.1-2.8,80.5c-4.6-6-8.8-11.6-12.9-17.1
		v0.5c-3.2,2.8-2.8,3.7,0.9,6.9c2.3,1.4,3.2,4.2,5.1,6c-0.5,0.5-0.9,0.9-0.9,1.8c-3.7-0.5-7.9-0.9-11.6-1.8c2.3,2.3,6,3.2,8.8,3.7
		c2.3,0.5,4.6,0.9,7.4,1.4c-0.9,4.6-1.4,9.2-2.8,12.9c-0.5,0.9-5.1,0.9-6.9,0c-11.1-5.5-19-13.9-22.7-25.9
		c-2.8-9.2,0.5-12.5,10.2-12.9c4.2,0,8.3-1.4,12-2.3c0-0.5,0-0.9,0-1.4c-5.5,0.9-11.6,1.8-18,2.8c7.9-9.7,15.3-18,22.2-26.4h-0.5
		c0-5.5,0-11.6,0-17.1c-0.9,12.9-4.2,25-18,32.8c-0.9-8.3-1.8-15.3-3.2-23.6c-1.4,2.8-1.8,4.2-2.3,5.5c-2.8-1.8-5.1-3.7-9.2-6.5
		c1.4,3.2,2.3,4.6,3.2,6.9c9.2,0,6.9,9.2,9.2,15.7c3.2,9.7-9.2,10.2-10.2,18c-1.4-1.8-2.8-4.2-3.7-6c-0.9,0.9-2.3,1.8-2.3,1.8
		c2.3,3.2,6,6,6.9,9.7c4.6,16.2,13.9,27.7,29.1,35.1c1.4,0.9,2.8,3.2,2.8,4.6c-0.5,6-1.4,12-2.3,19.9c-3.7-4.2-6.5-7.4-9.2-10.2
		c-9.2-9.2-18.5-18-27.3-27.3c-5.5-6-5.1-8.8-0.5-15.3c-1.8,1.8-3.7,3.2-5.5,5.1c-12.5-14.8-12-28.2,3.2-39.3
		c-6,1.8-11.1,1.4-11.6,8.3c-0.5,3.7-1.8,7.9-3.2,12.5c-5.1-5.5-9.2-10.2-13.4-14.8c0,0-0.5,0.5-0.9,0.5
		c6.5,9.2,12.9,18.5,19.4,27.7c-11.1,2.3-18.5,0-20.8-10.6c0,1.8,0.5,3.7,0.9,6.9c-4.6-4.2-7.9-7.4-12-11.1c0.5,1.8,0.9,2.3,0.9,3.2
		c0.9,0.9,1.4,2.3,2.3,3.2c7.4,7.9,16.6,12.5,27.7,13.9c2.8,0,5.1,4.6,6.9,7.9c0.5,0.5-2.3,3.2-3.7,4.6c-5.5,5.5-10.2,1.4-14.8-1.4
		c-6-3.7-12-7.9-18-11.6c-0.5,1.8-0.9,2.8-0.9,2.8c7.4,4.2,15.3,8.8,24,13.9c-13.9-2.8-26.4-5.5-39.8-8.3c1.4,1.4,1.8,1.8,2.3,2.3
		c0.5,0.9,0.9,1.4,0.9,1.4c-3.2,2.3-6,4.2-8.8,6c0,0.5,0.5,0.9,0.9,1.4c7.9-7.9,17.1-7.4,27.7-3.7c-3.2,3.2-6,6-9.2,8.8
		c2.8-0.5,5.5-0.9,6.9-2.8c3.2-4.6,6.9-5.1,11.6-3.2c6.5,3.2,13.4,1.8,18.5-2.3c4.6-3.2,6-0.9,8.3,1.8c5.5,6,11.1,12,17.6,17.1
		c7.9,6.5,16.6,18.5,17.1,26.4c-1.8-0.5-3.2-0.9-5.1-1.4c-0.9-0.5-1.8-1.4-2.8-1.8c-13.9-10.6-29.6-15.7-47.2-13.9
		c-5.5,0.5-11.6-0.9-17.1-2.8c-7.9-2.8-13.4-8.3-16.2-16.6c-0.5,0.5-0.9,0.9-1.8,0.9c1.4,2.8,2.3,5.5,3.7,8.3
		c-1.4,0.5-2.8,0.9-2.8,0.9c12.5,6,24,15.3,40.2,12c0,0.5,0,1.4,0,1.8c-3.7,1.8-7.9,4.2-12,6c3.2,0.5,6.9,0,9.2-1.4
		c12.9-7.9,25.4-5.5,34.7,6.9c-3.2,2.3-6.9,5.1-10.2,6.5c-3.2,0.9-6.9,0.9-10.2,0.5c-4.2-0.9-8.3-2.3-12.5-3.7c0,0,0,0.5,0,0.9
		c5.5,2.8,11.6,5.5,17.6,8.3c4.2-2.3,9.2-5.5,14.8-8.3c7.4-4.2,20.3,3.7,20.8,12.5c0.5,5.1,1.4,10.2,3.7,14.8
		c3.2,6.5,7.4,12.5,11.1,18.5c-10.2,3.7-20.3,5.5-29.6-0.5c-7.9-5.5-15.7-11.6-23.1-18c-6-5.1-12-10.2-20.3-11.6
		c-5.5-0.5-10.6-1.4-17.1-2.3c-1.8-8.3-4.2-16.2-6-25c-0.5,0-1.4,0-1.8,0.5c0.9,3.7,1.8,6.9,2.8,10.6c-2.3-0.9-4.6-1.4-6.9-2.3
		c6.9,3.7,8.3,9.7,8.3,16.6c-15.7-1.8-27.7-6.9-28.7-25c0,2.3,0,4.6-0.5,8.3c-3.7-3.2-6.9-6-9.2-8.8c-1.4,0.9-2.8,1.8-3.2,2.3
		c4.6,3.7,10.2,6.9,13.4,11.6c5.5,7.4,12,11.6,20.8,12.9c7.9,0.9,15.7,2.3,23.6,2.8c6.5,0.5,11.6,3.2,14.8,7.4
		c-3.7,1.4-6.9,2.8-10.2,4.2c0,0.9,0.5,1.8,0.5,2.8c6-6.9,12-5.1,17.1-1.4c7.9,6,14.8,13.4,23.1,20.3c-14.3,0-28.7,0.5-43,0
		c-4.2,0-8.8-1.8-12-4.2c-2.3-1.8-2.8-6.5-3.7-9.2c-0.9,0.5-2.3,2.3-3.7,5.1c-9.7-5.5-22.7-6.9-25-21.3c0.5,1.4,0.5,3.2,0.9,5.1
		c-7.9-5.5-12-16.2-23.6-13.9c1.4,0.9,2.8,1.4,4.2,1.8c1.4,0,2.8,0,3.7,0.9c6.5,6,12.5,12.5,19.9,19.4c-9.2-0.9-15.7-1.8-23.1-2.8
		c0,0-1.4,1.8-3.2,2.8c-1.8,0.9-3.7,1.8-5.5,2.8c21.7-8.3,39.3,2.3,57.3,12c-6.5,1.8-12.9,3.2-19,5.1c-11.1,3.2-21.7,7.9-32.8,10.6
		c-6,1.4-12,0.9-18.5,1.4c12.9,4.6,25-1.4,37-3.7c-1.4,2.8-2.8,5.1-3.7,7.9c1.4,0,1.8-0.9,2.3-1.8c0.5-0.9,1.4-1.4,1.8-2.3
		c12.9-12.5,29.1-12.9,45.8-12c12,0.9,24,2.8,36.1,2.3c12.5-0.5,25.4-3.2,38.4-5.1c3.7-0.5,8.8-2.3,11.6-0.5
		c12.5,7.4,24.5,16.2,36.5,24c-5.1,0.9-9.7,0-14.3,0c-11.6,0.5-23.6,1.8-35.6,2.8c-4.2,0-8.3,0-7.9-7.4c-1.8,2.3-2.8,3.2-3.7,4.2
		c-1.8-1.8-3.2-3.2-5.1-4.6c-0.5,0.5-0.9,1.4-1.8,1.8c2.8,2.3,6,4.2,8.8,6.5c-0.5,0.9-0.9,1.4-0.9,1.8c-10.2-1.4-20.8-2.3-31-3.7
		c0-0.9,0-0.5,0,0c0,0.9,0.5,1.4,0.5,1.8c-3.2,1.8-6.5,3.2-8.3,4.2c6.9,0,15.3-0.5,23.1-0.5c13.4,0,26.4,0,39.8,0
		c6.5,0,12.9,0,19.9,0c-6,8.3-11.6,15.3-17.1,22.7c0.5,0.5,0.9,0.9,1.8,1.4c0.9-0.9,1.8-2.3,3.7-4.6c0,10.2,0,19.4,0,30.1
		c1.8-6,3.2-10.2,5.1-14.8c0.5,0,0.9,0.9,0.5,0c0-5.5-1.4-11.6,0-17.1c2.3-8.8,9.2-14.3,18-14.3c10.2,0,19.4,4.2,25,13.4
		c4.6,7.9,7.9,16.2,9.7,24.5c5.1,23.1,9.2,46.2,13.9,70.7c-8.3-1.4-14.8-2.3-21.3-3.7c-0.9,0-1.4-2.3-1.8-3.2
		c-2.3-4.6-3.7-10.2-6.5-14.8c-5.5-9.2-6-9.2,1.8-16.2c0.5-0.5,0.9-1.4,1.4-2.3c0,0-0.5-0.5-0.9-0.5c-3.2,1.8-6.5,4.2-10.2,6.5
		c-4.2-12-6.9-23.6-5.5-35.6c-0.5,0.9-0.9,2.3-1.4,3.7c-2.3-3.2-4.6-6.5-6-8.8c1.8,8.3,4.2,17.6,6,26.4c-0.5,0-0.9,0-1.4,0.5
		c-0.9-1.4-1.4-2.8-2.3-4.6c-0.9,2.3-0.9,4.6,0,6c5.1,10.6,10.2,21.3,14.8,31.9c0.9,2.3,0.9,5.5,1.8,9.2
		c-16.6-3.2-31.9-5.1-44.8-14.8c-12-9.2-14.3-20.8-5.1-32.4c0.5-0.5,0.5-1.4,0.9-2.8c-2.3,1.4-3.2,2.3-6.5,3.7
		c0.5-6.9,0.5-12,0.9-17.6c-0.9,0.9-1.4,1.8-2.3,3.2c-1.4-3.2-2.8-6.5-4.2-9.7c-0.5,0-0.9,0-0.9,0.5c1.4,5.5,2.8,11.1,4.2,16.2
		c-4.6-4.2-8.8-8.3-11.6-12.9s-4.6-10.2-7.4-14.8c-1.4,7.9,3.7,13.9,8.3,19.9c10.6,13.9,11.6,16.2,7.9,26.4
		c-1.4-1.8-2.3-3.2-3.2-4.6c-18.5-27.7-42.1-48.5-74.9-56.9c-6-1.4-9.2-4.6-12.5-9.2c-1.8-2.8-3.2-5.1-5.1-7.9
		c-0.5,0-0.9,0.5-0.9,0.5c2.3,4.6,4.6,9.7,6.5,13.4c-7.9,1.8-15.7,3.2-23.1,6c-10.2,3.2-19.9,1.4-29.1-3.7c-1.4-0.9-2.3-1.4-5.5-2.3
		c8.3,9.2,17.6,10.6,27.7,9.7c0,0.9,0,2.3,0,3.2c-10.2,3.2-20.3,6.9-29.6,10.2c8.8,0.9,17.6-1.4,25.9-6.9c4.6-2.8,9.2-5.1,13.9-7.4
		c1.4-0.9,3.7,0,5.5-0.5c3.7-0.9,7.4-3.7,10.6-3.2c24.5,3.2,44.4,15.7,62.4,33.8c-10.2,0.9-16.2,12.9-27.3,6c-0.9-0.5-2.3,0-3.2,0
		c-8.3,0.5-16.2,1.4-22.7,1.8c3.2,2.3,12.5,3.2,20.3,1.4c2.8-0.5,5.5,0,8.3,0c-10.2,9.2-41.2,15.7-52.7,12.5
		c-1.8-0.5-2.8-3.2-4.6-4.6c-3.7-0.5-8.8-1.4-15.7-2.3c6.9,3.7,11.6,6,17.6,9.2c-12.9,2.8-21.7,9.7-24,17.6
		c12-14.8,32.4-17.6,46.7-15.7c-1.4,4.6-2.8,9.2-4.6,13.9c5.5-12.9,6.9-13.4,34.7-17.1c0.9,5.5,2.3,10.6,3.7,16.2
		c0.9-3.7,0.5-6.9,0-10.2c-0.9-5.1-0.9-10.2,5.5-12c4.2-1.4,7.9-4.2,11.6-5.5c12-3.7,11.6-5.1,18.5,5.1c4.2,6,7.4,12.5,11.1,18.5
		c2.3,3.7,4.6,7.9,6.9,11.1c-6.9,4.2-13.4,7.9-19.4,11.6c-2.3,1.4-5.5,2.8-8.3,3.2c-5.5,1.4-11.1,2.8-16.6,4.2c0,0.5,0,0.9,0.5,1.8
		c5.1-0.5,10.6-1.4,15.7-1.8c0.5,0.9,1.4,1.4,1.8,2.3c-2.3,3.2-4.6,7.9-7.4,8.8c-8.8,2.8-18.5,4.2-27.7,6c-6,0.9-11.1,0-12.5-7.9
		c-0.5-2.8-2.3-5.5-3.7-8.3c0,0-0.5,0-0.5,0.5c0.5,4.6,1.4,9.2,2.3,14.8c-19.9-6.5-33.3-6-38.8,0c5.1-0.5,11.6-1.4,19.4-2.3
		c-2.3,3.2-3.2,4.6-4.2,6c6-6.9,11.6-3.2,17.6-1.4c7.9,2.3,16.2,3.7,24.5,3.7c6,0,12.5-2.3,18.5-3.2c0.9,0,3.2,2.8,3.2,4.2
		c-1.4,9.7-6.9,17.6-15.3,23.1c-6.9,5.1-13.4,10.2-16.2,19.4c-1.8,6-7.9,9.2-12.9,9.2c-3.7,0-7.9-4.6-12.9-7.9
		c4.2-2.3,6-3.2,8.3-4.6c-8.3,7.4-14.3-4.6-21.7-3.7c4.2,3.2,9.2,5.1,12,8.8c6.9,9.7,14.3,13.4,25.9,6c-0.9,5.5-0.9,9.7-2.3,13.9
		c-1.8,8.3-4.2,9.2-12,6c-4.6-1.8-9.2-3.2-13.9-5.1c9.2,4.6,9.2,4.6,7.4,9.2c0.9-0.5,1.4-0.5,1.8-0.9c4.2-4.2,6.5,0.9,9.2,1.8
		c-0.9,1.8-2.3,4.2-3.7,5.5c-3.7,2.3-7.4,4.6-11.6,6.9c10.2-2.3,18.5-7.4,23.1-17.1c3.2-6.9,6.5-7.9,12.9-2.8
		c0.9,0.9,1.8,1.4,3.2,2.3c-2.3-7.9-14.8-6.9-11.1-17.6c2.3-6.9,2.8-14.8,10.2-19c0.5,6.9,0.9,13.4,7.4,17.1
		c-4.6-6.9-6.5-17.1-2.3-21.3c5.1-5.1,11.1-9.2,16.2-13.4c2.3,4.2,5.1,7.9,7.4,12c-0.9-8.3-3.7-16.2-2.3-23.6
		c0.9-6.9,5.1-13.9,9.2-20.3c7.9-12.5,26.8-18.5,38.8-8.8c4.2,3.2,10.2,5.1,15.7,6.5c14.3,3.7,28.7,6.5,43,10.2
		c10.2,2.3,18,6,23.1,17.6c11.1,24,26.4,46.2,39.3,69.8c8.3,14.8,11.6,31,14.3,47.6c-10.6-7.9-20.3-15.7-30.5-22.7
		c-12.5-8.8-14.8-24.5-7.4-34.7c-3.2-11.1-14.3-17.1-12.9-29.6c-0.5,0.9-0.9,2.3-1.4,4.2c-0.9-5.5-1.8-10.2-2.3-14.8
		c-0.5,0-1.4,0-1.8,0.5c1.4,7.9,2.8,15.7,4.6,24c-3.2-0.5-6.5-0.9-9.2-1.4c1.4,1.8,3.2,3.2,5.5,3.7c11.6,3.2,14.8,8.8,11.6,20.3
		c-1.4,5.1-2.3,10.6-3.7,16.6c-9.2-8.3-18.5-16.2-26.4-25c-7.4-8.3-13.9-13.4-4.6-27.7c3.7-6,3.7-12,0.5-17.1
		c-2.8-4.2-1.8-6,1.8-8.3c-1.8,0-3.7,0.5-6.9,0.9c-0.9-4.6-1.8-8.8-2.8-12.9c-5.5,11.1,8.8,19,6,29.6c-6-5.5-11.6-11.1-17.6-16.2
		c1.8,4.2,4.2,7.9,7.4,10.2c6.9,5.5,7.9,9.2,4.6,17.1c-1.4,2.3-2.3,4.6-3.7,8.3c-5.1-7.9-9.2-15.3-13.9-22.2c0,1.4-0.5,2.3-0.5,4.2
		c-3.7-5.5-6.9-10.2-10.2-13.9c-5.5-5.5-6.5-10.6-0.5-16.2c0,0,0-0.9-0.5-1.4c-2.3,1.8-4.6,3.7-6.9,5.5c-2.8-7.4-5.5-13.9-8.3-19.9
		c-0.5,0-0.9,0.5-1.4,0.5c3.2,8.3,6,17.1,9.2,25.4c-3.7-1.8-7.9-3.2-12-5.1c-4.6-2.3-7.9-0.5-11.1,3.7c5.5-3.2,10.2-1.4,15.7,1.4
		c8.3,3.7,14.8,9.2,19,16.6c2.8,4.6,6,9.2,9.2,13.4c3.2,4.2,6,8.3,10.2,13.9c-19.9-4.6-33.3-16.2-47.6-29.6c1.8,3.2,2.8,5.5,2.8,6
		c-6,1.4-11.6,1.8-16.6,4.2s-9.2,5.5-14.3,0.5c1.4,1.4,2.3,3.2,4.6,5.5c-4.2,1.4-7.4,2.8-11.6,4.6c3.2,0.5,6,1.4,8.8,1.8
		c3.2-5.1,10.6-10.2,19-11.6c0,0.9,0,2.3,0,3.7c6-7.4,21.7-2.3,28.7,10.2c-6.5-0.9-12-1.8-17.1-2.8c4.2,2.8,8.8,5.5,12.9,4.6
		c8.3-1.8,14.3,3.2,21.3,6c0,0,0.5,0.9,0.5,1.4c-0.9,1.8-1.8,3.2-2.3,5.1c5.5-6.9,11.6-5.5,16.6-0.9c6,5.5,10.6,12,16.2,18.5
		c-3.7,1.8-6.9,2.8-9.2,4.2c-6.5,4.2-11.6,3.7-16.2-2.3c-5.1-6.9-12.5-8.3-20.8-9.2c10.6,2.3,18,8.3,23.1,19
		c-5.5-0.5-10.2-0.9-14.8-1.4c-8.8-0.9-16.2-6-25.4-6c-7.9,0.5-16.2-2.8-23.6,3.2c15.3-5.5,28.2,2.3,42.1,7.9
		c-9.7,3.2-19.4,6.9-31,11.6c7.9-0.9,13.9-2.3,20.8-3.2c0-0.5,0.5,0.5,0.9,1.4c1.8-1.8,3.2-4.2,4.6-4.6c7.9-1.4,14.8-4.6,23.6-3.2
		c5.5,0.5,12-3.7,18.5-6c6.9-2.3,13.9-5.5,19.9,0c17.6,14.8,35.6,30.1,52.7,45.8c4.6,4.6,9.2,11.1,9.7,17.1
		c1.4,19.4-0.5,40.2,3.2,59.6c8.3,44.8,86.5,125.8,103.1,120.7c0.5-19,0,16.2,0-16.2C428.9,745.8,360.5,682.5,351.3,641.3z"/>
</g>
</svg>
